<svg height="512" viewBox="0 0 64 64" width="512" xmlns="http://www.w3.org/2000/svg" xmlns:xlink="http://www.w3.org/1999/xlink"><linearGradient id="New_Gradient_Swatch_10" gradientUnits="userSpaceOnUse" x1="-2" x2="64.611" y1="32" y2="32"><stop offset="0" stop-color="#bc4e9c"/><stop offset="1" stop-color="#f80759"/></linearGradient><linearGradient id="New_Gradient_Swatch_10-2" x2="64.611" xlink:href="#New_Gradient_Swatch_10" y1="42" y2="42"/><linearGradient id="New_Gradient_Swatch_10-3" x2="64.611" xlink:href="#New_Gradient_Swatch_10" y1="43" y2="43"/><linearGradient id="New_Gradient_Swatch_10-4" x2="64.611" xlink:href="#New_Gradient_Swatch_10" y1="34" y2="34"/><g id="Gradient_outline" data-name="Gradient outline"><path d="m47 6a3.973 3.973 0 0 0 -2.239.688 3.979 3.979 0 0 0 -6-2 3.975 3.975 0 0 0 -7.522 0 4 4 0 0 0 -6.239 3.312v19.586l-5.293-5.293a4.535 4.535 0 0 0 -6.414 6.414l11.707 11.707v20.586a1 1 0 0 0 1 1h24a1 1 0 0 0 1-1v-51a4 4 0 0 0 -4-4zm-8 2a2 2 0 0 1 4 0v6h-4zm0 8h4v10h-4zm-6-10a2 2 0 0 1 4 0v6h-4zm0 8h4v12h-4zm-6-6a2 2 0 0 1 4 0v6h-4zm0 8h4v10h-4zm-12.293 11.293a2.536 2.536 0 0 1 3.586-3.586l4.293 4.293-3.586 3.586zm34.293 32.707h-22v-2h22zm-22-4v-4h4v4zm6 0v-4h2a2 2 0 0 1 0 4zm16 0h-10.556a3.875 3.875 0 0 0 0-4h10.556zm0-6h-22v-2h22zm0-4h-22v-6a1 1 0 0 0 -.293-.707l-6.293-6.293 3.586-3.586 1.293 1.293a1 1 0 0 0 1.707-.707v-2h22zm0-20h-4v-8h4zm0-10h-4v-6a2 2 0 0 1 4 0z" fill="url(#New_Gradient_Swatch_10)"/><path d="m45 42h-2v2h4v-4h-2z" fill="url(#New_Gradient_Swatch_10-2)"/><path d="m39 42h2v2h-2z" fill="url(#New_Gradient_Swatch_10-3)"/><path d="m29 31v6a1 1 0 0 0 1 1h16a1 1 0 0 0 1-1v-6a1 1 0 0 0 -1-1h-16a1 1 0 0 0 -1 1zm2 1h14v4h-14z" fill="url(#New_Gradient_Swatch_10-4)"/></g></svg>