<?xml version="1.0"?>
<svg xmlns="http://www.w3.org/2000/svg" height="512px" viewBox="0 -32 512 511" width="512px" class=""><g><path d="m360.433594 112.726562h-41.234375v25.167969c0 30.417969-24.746094 55.167969-55.167969 55.167969h-40.242188c3.027344 10.496094 12.71875 18.199219 24.175782 18.199219h104.433594c2.960937 0 5.859374.875 8.320312 2.519531l24.882812 16.585938v-92.472657c0-13.878906-11.292968-25.167969-25.167968-25.167969zm-8.035156 64.265626c-8.277344 0-15-6.71875-15-15 0-8.277344 6.722656-15 15-15 8.28125 0 15 6.722656 15 15 0 8.28125-6.71875 15-15 15zm0 0" data-original="#000000" class="active-path" data-old_color="#000000" fill="#FFFFFF"/><path d="m464.867188.5h-417.734376c-25.820312 0-47.132812 20.867188-47.132812 47.132812v242.066407h512v-242.066407c0-26.351562-21.402344-47.132812-47.132812-47.132812zm-49.265626 257.894531c0 11.953125-13.363281 19.121094-23.320312 12.480469l-44.421875-29.613281h-99.890625c-28.058594 0-51.277344-21.0625-54.714844-48.199219h-29.113281l-44.421875 29.613281c-9.941406 6.625-23.320312-.511719-23.320312-12.480469v-120.5c0-30.515624 24.695312-55.167968 55.167968-55.167968h112.464844c28.179688 0 51.316406 21.039062 54.71875 48.199218h41.683594c30.417968 0 55.164062 24.75 55.164062 55.167969v120.5zm0 0" data-original="#000000" class="active-path" data-old_color="#000000" fill="#FFFFFF"/><path d="m289.199219 137.894531v-48.199219c0-13.773437-11.125-25.167968-25.167969-25.167968h-112.464844c-13.773437 0-25.167968 11.125-25.167968 25.167968v92.46875l24.882812-16.585937c2.460938-1.640625 5.359375-2.515625 8.320312-2.515625h104.429688c13.878906-.003906 25.167969-11.292969 25.167969-25.167969zm-129.597657-9.101562c-8.28125 0-15-6.71875-15-15 0-8.277344 6.71875-15 15-15 8.277344 0 15 6.722656 15 15 0 8.28125-6.722656 15-15 15zm48.199219 0c-8.28125 0-15-6.71875-15-15 0-8.277344 6.71875-15 15-15 8.277344 0 15 6.722656 15 15 0 8.28125-6.722656 15-15 15zm33.199219-15c0-8.277344 6.71875-15 15-15s15 6.722656 15 15c0 8.28125-6.71875 15-15 15s-15-6.71875-15-15zm0 0" data-original="#000000" class="active-path" data-old_color="#000000" fill="#FFFFFF"/><path d="m0 336.835938c0 26.351562 21.402344 47.132812 47.132812 47.132812h193.867188v34.265625h-65.332031c-8.285157 0-15 6.714844-15 15s6.714843 15 15 15h160.664062c8.285157 0 15-6.714844 15-15s-6.714843-15-15-15h-65.332031v-34.265625h193.867188c25.820312 0 47.132812-20.871094 47.132812-47.132812v-17.136719h-512zm0 0" data-original="#000000" class="active-path" data-old_color="#000000" fill="#FFFFFF"/></g> </svg>
