<?xml version="1.0" encoding="UTF-8" standalone="no"?>
<!DOCTYPE svg PUBLIC "-//W3C//DTD SVG 1.1//EN" "http://www.w3.org/Graphics/SVG/1.1/DTD/svg11.dtd">
<svg version="1.1" xmlns="http://www.w3.org/2000/svg" xmlns:xlink="http://www.w3.org/1999/xlink" preserveAspectRatio="xMidYMid meet" viewBox="0 0 640 640" width="640" height="640"><defs><path d="M197.99 0.57L199.18 0.69L200.35 0.86L201.51 1.07L202.65 1.33L203.77 1.63L204.88 1.98L205.97 2.37L207.03 2.79L208.08 3.26L209.1 3.77L210.11 4.31L211.08 4.89L212.04 5.51L212.96 6.17L213.87 6.85L214.74 7.57L215.58 8.33L216.4 9.11L217.18 9.93L217.94 10.77L218.66 11.65L219.35 12.55L220 13.48L220.62 14.43L221.2 15.41L221.74 16.41L222.25 17.43L222.72 18.48L223.15 19.55L223.53 20.63L223.88 21.74L224.18 22.86L224.44 24.01L224.65 25.16L224.82 26.34L224.94 27.52L225.01 28.72L225.04 29.94L225.04 332.65L293.39 73.38L293.55 72.81L293.71 72.25L293.89 71.69L294.08 71.14L294.28 70.59L294.48 70.05L294.7 69.51L294.93 68.97L295.17 68.45L295.42 67.92L295.67 67.41L295.94 66.9L296.22 66.39L296.51 65.9L296.8 65.4L297.11 64.92L297.42 64.44L297.75 63.97L298.08 63.5L298.42 63.04L298.77 62.59L299.13 62.14L299.5 61.71L299.88 61.27L300.27 60.85L300.66 60.43L301.07 60.02L301.48 59.62L301.9 59.23L302.33 58.84L302.76 58.47L303.21 58.1L303.66 57.73L304.12 57.38L304.59 57.03L305.07 56.7L305.55 56.37L306.04 56.05L306.54 55.74L307.05 55.44L307.56 55.15L308.08 54.87L308.6 54.6L309.12 54.34L309.65 54.09L310.18 53.85L310.71 53.62L311.25 53.41L311.79 53.2L312.34 53.01L312.88 52.83L313.43 52.66L313.99 52.5L314.54 52.35L315.1 52.21L315.66 52.08L316.22 51.97L316.78 51.86L317.35 51.77L317.91 51.68L318.48 51.61L319.05 51.55L319.62 51.5L320.2 51.47L320.77 51.44L321.34 51.42L321.92 51.42L322.49 51.43L323.07 51.45L323.64 51.48L324.22 51.52L324.8 51.57L325.37 51.63L325.95 51.71L326.52 51.8L327.1 51.9L327.67 52.01L328.25 52.13L328.82 52.26L329.39 52.41L362.81 61.21L363.97 61.55L365.11 61.92L366.23 62.34L367.32 62.8L368.39 63.31L369.42 63.85L370.43 64.42L371.42 65.04L372.37 65.69L373.29 66.38L374.18 67.1L375.05 67.85L375.88 68.63L376.67 69.44L377.44 70.28L378.17 71.15L378.86 72.04L379.52 72.96L380.15 73.91L380.74 74.88L381.29 75.86L381.8 76.87L382.28 77.9L382.71 78.95L383.11 80.01L383.46 81.09L383.77 82.18L384.05 83.29L384.27 84.41L384.46 85.54L384.6 86.68L384.7 87.83L384.75 88.99L384.75 90.16L384.71 91.33L384.62 92.5L384.49 93.68L384.3 94.85L384.07 96.03L383.78 97.21L375.18 129.83L375.44 129.73L375.69 129.63L375.95 129.53L376.2 129.44L376.46 129.35L376.72 129.26L376.98 129.17L377.24 129.09L377.51 129.01L377.77 128.93L378.04 128.85L378.3 128.78L378.57 128.7L378.84 128.63L379.1 128.57L379.37 128.5L379.64 128.44L379.92 128.38L380.19 128.32L380.46 128.27L380.74 128.21L381.01 128.16L381.29 128.12L381.56 128.07L381.84 128.03L382.12 127.99L382.4 127.95L382.68 127.92L382.96 127.89L383.24 127.86L383.53 127.83L383.81 127.81L384.09 127.79L384.38 127.77L384.66 127.76L384.95 127.74L385.24 127.73L385.52 127.73L385.81 127.72L386.1 127.72L458.77 127.72L459.99 127.75L461.19 127.82L462.37 127.94L463.55 128.11L464.7 128.32L465.85 128.58L466.97 128.88L468.08 129.23L469.16 129.61L470.23 130.04L471.28 130.51L472.3 131.01L473.3 131.56L474.28 132.14L475.24 132.76L476.16 133.41L477.06 134.1L477.94 134.82L478.78 135.58L479.6 136.36L480.38 137.18L481.14 138.02L481.86 138.89L482.54 139.79L483.2 140.72L483.82 141.68L484.4 142.65L484.94 143.65L485.45 144.68L485.92 145.73L486.34 146.79L486.73 147.88L487.08 148.99L487.38 150.11L487.64 151.25L487.85 152.41L488.02 153.58L488.14 154.77L488.21 155.97L488.24 157.18L488.24 366.49L488.23 366.87L488.23 367.26L488.21 367.64L488.2 368.03L488.17 368.41L488.15 368.79L488.11 369.17L488.08 369.55L488.04 369.92L487.99 370.3L487.94 370.67L487.88 371.04L487.82 371.41L487.76 371.78L487.69 372.15L487.61 372.52L487.54 372.88L487.45 373.24L487.36 373.61L487.27 373.96L487.18 374.32L487.07 374.68L486.97 375.03L486.86 375.38L486.75 375.73L486.63 376.08L486.51 376.43L486.38 376.77L486.25 377.11L486.11 377.45L485.98 377.79L485.83 378.13L485.69 378.46L485.54 378.79L485.38 379.12L485.22 379.45L485.06 379.78L484.89 380.1L484.72 380.42L484.55 380.74L488.56 380.74L489.52 380.76L490.48 380.82L491.42 380.91L492.36 381.05L493.28 381.22L494.19 381.42L495.08 381.66L495.96 381.94L496.83 382.24L497.67 382.58L498.51 382.96L499.32 383.36L500.12 383.79L500.9 384.26L501.66 384.75L502.39 385.27L503.11 385.81L503.81 386.39L504.48 386.99L505.13 387.61L505.75 388.26L506.35 388.93L506.92 389.63L507.47 390.34L507.99 391.08L508.48 391.84L508.95 392.62L509.38 393.42L509.78 394.23L510.15 395.06L510.5 395.91L510.8 396.78L511.08 397.66L511.32 398.55L511.52 399.46L511.69 400.38L511.83 401.31L511.92 402.26L511.98 403.21L512 404.18L512 422.18L511.98 423.15L511.92 424.1L511.83 425.05L511.69 425.98L511.52 426.9L511.32 427.81L511.08 428.7L510.8 429.58L510.5 430.45L510.15 431.3L509.78 432.13L509.38 432.95L508.95 433.74L508.48 434.52L507.99 435.28L507.47 436.02L506.92 436.74L506.35 437.43L505.75 438.1L505.13 438.75L504.48 439.38L503.81 439.98L503.11 440.55L502.39 441.1L501.66 441.62L500.9 442.11L500.12 442.57L499.32 443L498.51 443.41L497.67 443.78L496.82 444.12L495.96 444.43L495.08 444.7L494.18 444.94L493.28 445.15L492.36 445.32L491.42 445.45L490.48 445.55L489.52 445.61L488.56 445.63L172.87 445.63L172.55 445.62L172.24 445.6L171.94 445.57L171.63 445.53L171.33 445.47L171.04 445.4L170.75 445.33L170.46 445.24L170.18 445.14L169.91 445.03L169.64 444.91L169.37 444.78L169.11 444.64L168.86 444.49L168.61 444.33L168.37 444.16L168.14 443.98L167.92 443.79L167.7 443.6L167.49 443.4L167.29 443.19L167.09 442.97L166.91 442.74L166.73 442.51L166.56 442.27L166.4 442.03L166.25 441.77L166.11 441.52L165.98 441.25L165.86 440.98L165.75 440.7L165.65 440.42L165.56 440.14L165.48 439.85L165.42 439.55L165.36 439.25L165.32 438.95L165.29 438.64L165.27 438.33L165.26 438.02L165.27 437.71L165.29 437.4L165.32 437.09L165.36 436.79L165.42 436.49L165.48 436.19L165.56 435.9L165.65 435.62L165.75 435.34L165.86 435.06L165.98 434.79L166.11 434.53L166.25 434.27L166.4 434.02L166.56 433.77L166.73 433.53L166.91 433.3L167.09 433.07L167.29 432.85L167.49 432.64L167.7 432.44L167.92 432.25L168.14 432.06L168.37 431.88L168.61 431.72L168.86 431.56L169.11 431.41L169.37 431.27L169.64 431.14L169.91 431.01L170.18 430.9L170.46 430.8L170.75 430.72L171.04 430.64L171.33 430.57L171.63 430.52L171.94 430.47L172.24 430.44L172.55 430.42L172.87 430.42L488.56 430.42L488.9 430.41L489.23 430.39L489.56 430.36L489.89 430.31L490.21 430.25L490.53 430.18L490.85 430.09L491.16 430L491.46 429.89L491.76 429.77L492.05 429.64L492.34 429.5L492.62 429.34L492.89 429.18L493.16 429.01L493.42 428.83L493.67 428.63L493.91 428.43L494.15 428.22L494.38 428L494.6 427.77L494.81 427.54L495.01 427.29L495.2 427.04L495.38 426.78L495.56 426.52L495.72 426.24L495.87 425.96L496.01 425.68L496.14 425.38L496.26 425.09L496.37 424.78L496.47 424.47L496.55 424.16L496.62 423.84L496.68 423.52L496.73 423.19L496.76 422.86L496.79 422.52L496.79 422.18L496.79 404.18L496.79 403.84L496.76 403.5L496.73 403.17L496.68 402.85L496.62 402.52L496.55 402.2L496.47 401.89L496.37 401.58L496.26 401.28L496.14 400.98L496.01 400.68L495.87 400.4L495.72 400.12L495.56 399.85L495.38 399.58L495.2 399.32L495.01 399.07L494.81 398.82L494.6 398.59L494.38 398.36L494.15 398.14L493.91 397.93L493.67 397.73L493.42 397.54L493.16 397.35L492.89 397.18L492.62 397.02L492.34 396.87L492.05 396.72L491.76 396.59L491.46 396.47L491.16 396.37L490.85 396.27L490.53 396.18L490.22 396.11L489.89 396.05L489.56 396.01L489.23 395.97L488.9 395.95L488.56 395.95L23.44 395.95L23.1 395.95L22.77 395.97L22.43 396.01L22.11 396.05L21.78 396.11L21.46 396.18L21.15 396.27L20.84 396.37L20.54 396.47L20.24 396.59L19.95 396.72L19.66 396.87L19.38 397.02L19.11 397.18L18.84 397.35L18.58 397.54L18.33 397.73L18.09 397.93L17.85 398.14L17.62 398.36L17.4 398.59L17.19 398.82L16.99 399.07L16.8 399.32L16.62 399.58L16.44 399.85L16.28 400.12L16.13 400.4L15.99 400.68L15.86 400.98L15.74 401.28L15.63 401.58L15.53 401.89L15.45 402.2L15.37 402.52L15.31 402.85L15.27 403.17L15.23 403.5L15.21 403.84L15.21 404.18L15.21 422.18L15.21 422.52L15.23 422.86L15.27 423.19L15.31 423.52L15.37 423.84L15.45 424.16L15.53 424.47L15.63 424.78L15.74 425.09L15.86 425.39L15.99 425.68L16.13 425.96L16.28 426.24L16.44 426.52L16.62 426.78L16.8 427.04L16.99 427.29L17.19 427.54L17.4 427.78L17.62 428L17.85 428.22L18.09 428.43L18.33 428.63L18.58 428.83L18.84 429.01L19.11 429.18L19.38 429.34L19.66 429.5L19.95 429.64L20.24 429.77L20.54 429.89L20.84 430L21.15 430.09L21.46 430.18L21.78 430.25L22.11 430.31L22.43 430.36L22.77 430.39L23.1 430.41L23.44 430.42L147.52 430.42L147.83 430.42L148.14 430.44L148.45 430.47L148.75 430.52L149.05 430.57L149.35 430.64L149.64 430.72L149.92 430.8L150.2 430.9L150.48 431.01L150.75 431.14L151.01 431.27L151.27 431.41L151.52 431.56L151.77 431.72L152.01 431.88L152.24 432.06L152.47 432.25L152.68 432.44L152.9 432.64L153.1 432.85L153.29 433.07L153.48 433.3L153.65 433.53L153.82 433.77L153.98 434.02L154.13 434.27L154.27 434.53L154.4 434.79L154.52 435.06L154.63 435.34L154.73 435.62L154.82 435.9L154.9 436.19L154.97 436.49L155.02 436.79L155.07 437.09L155.1 437.4L155.12 437.71L155.12 438.02L155.12 438.33L155.1 438.64L155.07 438.95L155.02 439.25L154.97 439.55L154.9 439.85L154.82 440.14L154.73 440.42L154.63 440.7L154.52 440.98L154.4 441.25L154.27 441.52L154.13 441.77L153.98 442.03L153.82 442.27L153.65 442.51L153.48 442.74L153.29 442.97L153.1 443.19L152.9 443.4L152.68 443.6L152.47 443.79L152.24 443.98L152.01 444.16L151.77 444.33L151.52 444.49L151.27 444.64L151.01 444.78L150.75 444.91L150.48 445.03L150.2 445.14L149.92 445.24L149.64 445.33L149.35 445.4L149.05 445.47L148.75 445.53L148.45 445.57L148.14 445.6L147.83 445.62L147.52 445.63L23.44 445.63L22.48 445.61L21.52 445.55L20.58 445.45L19.64 445.32L18.72 445.15L17.81 444.94L16.92 444.7L16.04 444.43L15.17 444.12L14.33 443.78L13.49 443.41L12.68 443L11.88 442.57L11.1 442.11L10.34 441.62L9.61 441.1L8.89 440.55L8.19 439.98L7.52 439.38L6.87 438.75L6.25 438.1L5.65 437.43L5.08 436.74L4.53 436.02L4.01 435.28L3.52 434.52L3.05 433.74L2.62 432.95L2.22 432.13L1.85 431.3L1.5 430.45L1.2 429.58L0.92 428.7L0.68 427.81L0.48 426.9L0.31 425.98L0.17 425.05L0.08 424.1L0.02 423.15L0 422.18L0 404.18L0.02 403.21L0.08 402.26L0.17 401.31L0.31 400.38L0.48 399.46L0.68 398.55L0.92 397.66L1.2 396.78L1.5 395.91L1.85 395.06L2.22 394.23L2.62 393.42L3.05 392.62L3.52 391.84L4.01 391.08L4.53 390.34L5.08 389.63L5.65 388.93L6.25 388.26L6.87 387.61L7.52 386.99L8.19 386.39L8.89 385.81L9.61 385.27L10.34 384.75L11.1 384.26L11.88 383.79L12.68 383.36L13.49 382.96L14.33 382.58L15.17 382.24L16.04 381.94L16.92 381.66L17.81 381.42L18.72 381.22L19.64 381.05L20.58 380.91L21.52 380.82L22.48 380.76L23.44 380.74L28.09 380.74L27.91 380.42L27.74 380.1L27.57 379.78L27.41 379.45L27.25 379.12L27.1 378.8L26.95 378.46L26.8 378.13L26.66 377.79L26.52 377.46L26.38 377.12L26.25 376.77L26.13 376.43L26 376.08L25.89 375.73L25.77 375.38L25.66 375.03L25.56 374.68L25.46 374.32L25.36 373.97L25.27 373.61L25.18 373.25L25.1 372.88L25.02 372.52L24.95 372.15L24.88 371.78L24.81 371.42L24.75 371.04L24.69 370.67L24.64 370.3L24.6 369.92L24.56 369.55L24.52 369.17L24.49 368.79L24.46 368.41L24.44 368.03L24.42 367.64L24.41 367.26L24.4 366.87L24.4 366.49L24.4 175.67L24.42 174.46L24.49 173.26L24.62 172.07L24.78 170.9L25 169.74L25.25 168.6L25.56 167.47L25.9 166.37L26.29 165.28L26.72 164.21L27.18 163.17L27.69 162.14L28.24 161.14L28.82 160.16L29.44 159.21L30.09 158.28L30.78 157.38L31.5 156.51L32.25 155.66L33.04 154.85L33.85 154.06L34.7 153.31L35.57 152.59L36.47 151.9L37.4 151.25L38.35 150.63L39.33 150.05L40.33 149.5L41.36 148.99L42.4 148.53L43.47 148.1L44.56 147.71L45.66 147.37L46.79 147.07L47.93 146.81L49.09 146.59L50.26 146.43L51.45 146.31L52.65 146.23L53.86 146.21L88.41 146.21L89.63 146.23L90.83 146.31L92.01 146.43L93.19 146.59L94.34 146.81L95.48 147.07L96.61 147.37L97.72 147.71L98.8 148.1L99.87 148.53L100.92 148.99L101.94 149.5L102.94 150.05L103.92 150.63L104.87 151.25L105.8 151.9L106.7 152.59L107.58 153.31L108.42 154.06L109.24 154.85L110.02 155.66L110.77 156.51L111.5 157.38L112.18 158.28L112.84 159.21L113.45 160.16L114.04 161.14L114.58 162.14L115.09 163.17L115.56 164.21L115.98 165.28L116.37 166.37L116.72 167.47L117.02 168.6L117.28 169.74L117.49 170.9L117.66 172.07L117.78 173.26L117.85 174.46L117.88 175.67L117.88 212.94L117.87 213.25L117.85 213.56L117.82 213.87L117.78 214.17L117.72 214.47L117.65 214.77L117.58 215.06L117.49 215.34L117.39 215.62L117.28 215.9L117.16 216.17L117.03 216.43L116.89 216.69L116.74 216.95L116.58 217.19L116.41 217.43L116.23 217.66L116.04 217.89L115.85 218.11L115.65 218.32L115.44 218.52L115.22 218.71L114.99 218.9L114.76 219.08L114.52 219.25L114.28 219.4L114.02 219.55L113.77 219.7L113.5 219.83L113.23 219.95L112.96 220.06L112.67 220.16L112.39 220.25L112.1 220.32L111.8 220.39L111.5 220.44L111.2 220.49L110.89 220.52L110.58 220.54L110.27 220.54L109.96 220.54L109.65 220.52L109.34 220.49L109.04 220.44L108.74 220.39L108.44 220.32L108.15 220.25L107.87 220.16L107.59 220.06L107.31 219.95L107.04 219.83L106.78 219.7L106.52 219.55L106.27 219.4L106.02 219.25L105.78 219.08L105.55 218.9L105.32 218.71L105.1 218.52L104.89 218.32L104.69 218.11L104.5 217.89L104.31 217.66L104.13 217.43L103.97 217.19L103.81 216.95L103.66 216.69L103.52 216.43L103.39 216.17L103.26 215.9L103.15 215.62L103.05 215.34L102.97 215.06L102.89 214.77L102.82 214.47L102.77 214.17L102.72 213.87L102.69 213.56L102.67 213.25L102.67 212.94L102.67 175.67L102.66 175.08L102.62 174.5L102.56 173.93L102.48 173.36L102.38 172.8L102.25 172.25L102.11 171.7L101.94 171.17L101.75 170.64L101.54 170.13L101.32 169.62L101.07 169.12L100.81 168.64L100.53 168.17L100.23 167.71L99.91 167.26L99.58 166.82L99.23 166.4L98.87 165.99L98.49 165.6L98.09 165.22L97.68 164.85L97.26 164.5L96.83 164.17L96.38 163.85L95.92 163.55L95.44 163.27L94.96 163.01L94.46 162.76L93.96 162.54L93.44 162.33L92.91 162.14L92.38 161.98L91.83 161.83L91.28 161.71L90.72 161.6L90.15 161.52L89.58 161.46L89 161.43L88.41 161.42L53.86 161.42L53.27 161.43L52.69 161.46L52.12 161.52L51.55 161.6L50.99 161.71L50.44 161.83L49.89 161.98L49.36 162.14L48.83 162.33L48.32 162.54L47.81 162.76L47.31 163.01L46.83 163.27L46.36 163.55L45.89 163.85L45.45 164.17L45.01 164.5L44.59 164.85L44.18 165.22L43.78 165.6L43.4 165.99L43.04 166.4L42.69 166.82L42.36 167.26L42.04 167.71L41.74 168.17L41.46 168.64L41.2 169.13L40.95 169.62L40.73 170.13L40.52 170.64L40.33 171.17L40.17 171.7L40.02 172.25L39.9 172.8L39.79 173.36L39.71 173.93L39.65 174.5L39.62 175.08L39.61 175.67L39.61 366.49L39.62 367.07L39.65 367.65L39.71 368.23L39.79 368.79L39.9 369.35L40.02 369.91L40.17 370.45L40.33 370.99L40.52 371.51L40.73 372.03L40.95 372.53L41.2 373.03L41.46 373.51L41.74 373.99L42.04 374.45L42.36 374.9L42.69 375.33L43.04 375.76L43.41 376.16L43.78 376.56L44.18 376.94L44.59 377.3L45.01 377.65L45.45 377.98L45.9 378.3L46.36 378.6L46.83 378.88L47.31 379.14L47.81 379.39L48.32 379.62L48.83 379.82L49.36 380.01L49.89 380.18L50.44 380.32L50.99 380.45L51.55 380.55L52.12 380.63L52.69 380.69L53.27 380.73L53.86 380.74L88.41 380.74L89 380.73L89.58 380.69L90.15 380.63L90.72 380.55L91.28 380.45L91.83 380.32L92.37 380.18L92.91 380.01L93.44 379.82L93.95 379.62L94.46 379.39L94.95 379.14L95.44 378.88L95.91 378.6L96.37 378.3L96.82 377.98L97.26 377.65L97.68 377.3L98.09 376.94L98.48 376.56L98.86 376.16L99.23 375.76L99.58 375.33L99.91 374.9L100.23 374.45L100.52 373.99L100.81 373.51L101.07 373.03L101.31 372.53L101.54 372.03L101.75 371.51L101.94 370.98L102.1 370.45L102.25 369.91L102.37 369.35L102.48 368.79L102.56 368.23L102.62 367.65L102.65 367.07L102.66 366.49L102.66 238.29L102.67 237.97L102.69 237.66L102.72 237.36L102.76 237.05L102.82 236.75L102.88 236.46L102.96 236.17L103.05 235.88L103.15 235.6L103.26 235.33L103.38 235.06L103.51 234.79L103.65 234.53L103.8 234.28L103.96 234.04L104.13 233.8L104.31 233.56L104.49 233.34L104.69 233.12L104.89 232.91L105.1 232.71L105.32 232.51L105.54 232.33L105.78 232.15L106.02 231.98L106.26 231.82L106.51 231.67L106.77 231.53L107.04 231.4L107.31 231.28L107.58 231.17L107.86 231.07L108.15 230.98L108.44 230.9L108.73 230.84L109.03 230.78L109.34 230.74L109.64 230.71L109.95 230.69L110.27 230.68L110.58 230.69L110.89 230.71L111.2 230.74L111.5 230.78L111.8 230.84L112.09 230.9L112.38 230.98L112.67 231.07L112.95 231.17L113.23 231.28L113.5 231.4L113.76 231.53L114.02 231.67L114.27 231.82L114.52 231.98L114.76 232.15L114.99 232.33L115.22 232.51L115.43 232.71L115.64 232.91L115.85 233.12L116.04 233.34L116.23 233.56L116.4 233.8L116.57 234.04L116.73 234.28L116.88 234.53L117.02 234.79L117.15 235.06L117.27 235.33L117.38 235.6L117.48 235.88L117.57 236.17L117.65 236.46L117.72 236.75L117.77 237.05L117.81 237.36L117.85 237.66L117.86 237.97L117.87 238.29L117.87 366.48L117.87 366.87L117.86 367.26L117.85 367.64L117.83 368.02L117.81 368.41L117.78 368.79L117.75 369.17L117.71 369.55L117.67 369.92L117.62 370.3L117.57 370.67L117.52 371.04L117.46 371.41L117.39 371.78L117.32 372.15L117.25 372.52L117.17 372.88L117.09 373.24L117 373.6L116.91 373.96L116.81 374.32L116.71 374.68L116.6 375.03L116.5 375.38L116.38 375.73L116.26 376.08L116.14 376.43L116.01 376.77L115.88 377.11L115.75 377.45L115.61 377.79L115.47 378.13L115.32 378.46L115.17 378.79L115.02 379.12L114.86 379.45L114.69 379.78L114.53 380.1L114.36 380.42L114.18 380.74L135.51 380.74L135.32 380.41L135.14 380.08L134.96 379.75L134.79 379.42L134.62 379.08L134.45 378.74L134.29 378.4L134.14 378.06L133.98 377.71L133.83 377.37L133.69 377.01L133.55 376.66L133.42 376.31L133.28 375.95L133.16 375.59L133.04 375.23L132.92 374.87L132.81 374.5L132.7 374.14L132.59 373.77L132.5 373.4L132.4 373.02L132.31 372.65L132.23 372.27L132.15 371.9L132.07 371.52L132 371.13L131.94 370.75L131.88 370.37L131.82 369.98L131.77 369.59L131.73 369.2L131.69 368.81L131.66 368.42L131.63 368.02L131.6 367.63L131.58 367.23L131.57 366.83L131.56 366.43L131.56 366.03L131.56 29.94L131.58 28.72L131.66 27.52L131.78 26.34L131.95 25.16L132.16 24.01L132.42 22.86L132.72 21.74L133.06 20.63L133.45 19.55L133.88 18.48L134.35 17.43L134.85 16.41L135.4 15.41L135.98 14.43L136.6 13.48L137.25 12.55L137.94 11.65L138.66 10.77L139.41 9.93L140.2 9.11L141.01 8.33L141.86 7.57L142.73 6.85L143.63 6.17L144.56 5.51L145.51 4.89L146.49 4.31L147.49 3.77L148.52 3.26L149.57 2.79L150.63 2.37L151.72 1.98L152.83 1.63L153.95 1.33L155.09 1.07L156.25 0.86L157.42 0.69L158.61 0.57L159.81 0.5L161.02 0.47L195.58 0.47L196.79 0.5L197.99 0.57ZM321.49 66.64L321.3 66.64L321.11 66.65L320.93 66.66L320.74 66.68L320.56 66.69L320.37 66.71L320.19 66.73L320 66.75L319.82 66.78L319.63 66.81L319.45 66.84L319.27 66.87L319.08 66.91L318.9 66.94L318.72 66.99L318.54 67.03L318.36 67.07L318.18 67.12L318 67.17L317.82 67.22L317.64 67.28L317.46 67.34L317.28 67.4L317.11 67.46L316.93 67.52L316.75 67.59L316.58 67.66L316.41 67.73L316.23 67.8L316.06 67.88L315.89 67.96L315.72 68.04L315.55 68.12L315.38 68.21L315.21 68.3L315.04 68.39L314.87 68.48L314.71 68.58L314.46 68.72L314.22 68.87L313.98 69.03L313.75 69.19L313.52 69.35L313.29 69.52L313.07 69.69L312.85 69.86L312.63 70.04L312.42 70.22L312.21 70.41L312.01 70.6L311.81 70.8L311.62 70.99L311.43 71.2L311.24 71.4L311.06 71.61L310.88 71.82L310.7 72.04L310.53 72.26L310.37 72.48L310.21 72.7L310.05 72.93L309.9 73.16L309.75 73.4L309.61 73.64L309.47 73.88L309.33 74.12L309.2 74.37L309.08 74.62L308.96 74.87L308.84 75.13L308.73 75.38L308.63 75.64L308.53 75.91L308.43 76.17L308.34 76.44L308.26 76.71L308.18 76.98L308.1 77.26L235.13 354.04L235.06 354.31L234.99 354.59L234.93 354.87L234.88 355.15L234.83 355.42L234.79 355.7L234.75 355.98L234.72 356.26L234.7 356.54L234.68 356.82L234.66 357.1L234.65 357.37L234.65 357.65L234.65 357.93L234.66 358.21L234.67 358.49L234.69 358.76L234.71 359.04L234.74 359.31L234.78 359.59L234.82 359.86L234.86 360.14L234.91 360.41L234.97 360.68L235.03 360.95L235.1 361.22L235.17 361.49L235.25 361.76L235.33 362.02L235.42 362.29L235.51 362.55L235.61 362.81L235.72 363.07L235.83 363.33L235.94 363.59L236.06 363.85L236.19 364.1L236.32 364.35L236.45 364.6L236.59 364.85L236.74 365.09L236.89 365.33L237.04 365.57L237.2 365.81L237.37 366.04L237.53 366.26L237.7 366.49L237.88 366.71L238.06 366.92L238.24 367.13L238.43 367.34L238.62 367.54L238.81 367.74L239.01 367.94L239.21 368.13L239.42 368.31L239.63 368.5L239.84 368.68L240.05 368.85L240.27 369.02L240.5 369.19L240.72 369.35L240.95 369.5L241.18 369.66L241.42 369.8L241.65 369.95L241.9 370.09L242.14 370.22L242.39 370.35L242.64 370.47L242.89 370.59L243.14 370.71L243.4 370.82L243.66 370.93L243.92 371.03L244.19 371.12L244.46 371.21L244.73 371.3L245 371.38L245.28 371.45L278.69 380.26L278.97 380.33L279.24 380.4L279.52 380.46L279.8 380.51L280.08 380.56L280.36 380.6L280.63 380.64L280.91 380.67L281.19 380.69L281.47 380.71L281.75 380.73L282.03 380.74L282.31 380.74L282.58 380.74L282.86 380.73L283.14 380.72L283.42 380.7L283.69 380.68L283.97 380.65L284.24 380.61L284.52 380.57L284.79 380.53L285.06 380.48L285.33 380.42L285.61 380.36L285.87 380.29L286.14 380.22L286.41 380.14L286.68 380.06L286.94 379.97L287.2 379.88L287.47 379.78L287.73 379.67L287.99 379.56L288.24 379.45L288.5 379.33L288.75 379.2L289 379.07L289.25 378.94L289.5 378.8L289.74 378.65L289.99 378.5L290.22 378.34L290.46 378.19L290.69 378.02L290.92 377.86L291.14 377.68L291.36 377.51L291.57 377.33L291.78 377.15L291.99 376.96L292.19 376.77L292.39 376.58L292.59 376.38L292.78 376.18L292.97 375.97L293.15 375.76L293.33 375.55L293.5 375.33L293.67 375.12L293.84 374.89L294 374.67L294.16 374.44L294.31 374.21L294.46 373.97L294.6 373.73L294.74 373.49L294.87 373.25L295 373L295.13 372.75L295.25 372.5L295.36 372.25L295.47 371.99L295.58 371.73L295.68 371.46L295.77 371.2L295.86 370.93L295.95 370.66L296.03 370.39L296.11 370.11L369.08 93.33L369.22 92.76L369.33 92.19L369.42 91.62L369.49 91.05L369.53 90.49L369.55 89.92L369.55 89.36L369.52 88.8L369.47 88.24L369.41 87.69L369.32 87.14L369.21 86.6L369.07 86.06L368.92 85.53L368.75 85.01L368.56 84.5L368.35 83.99L368.12 83.49L367.87 83.01L367.6 82.53L367.32 82.06L367.02 81.6L366.7 81.16L366.36 80.73L366.01 80.31L365.64 79.9L365.25 79.51L364.85 79.13L364.43 78.76L364 78.42L363.56 78.08L363.1 77.77L362.62 77.47L362.13 77.19L361.63 76.93L361.11 76.69L360.59 76.46L360.05 76.26L359.49 76.08L358.93 75.92L325.52 67.11L325.43 67.08L325.33 67.06L325.24 67.04L325.15 67.02L325.06 67L324.97 66.98L324.88 66.96L324.79 66.94L324.7 66.92L324.61 66.9L324.51 66.88L324.42 66.86L324.33 66.85L324.24 66.83L324.15 66.82L324.06 66.8L323.97 66.79L323.87 66.77L323.78 66.76L323.69 66.75L323.6 66.74L323.51 66.73L323.42 66.72L323.32 66.71L323.23 66.7L323.14 66.69L323.05 66.68L322.96 66.67L322.87 66.67L322.77 66.66L322.68 66.66L322.59 66.65L322.5 66.65L322.41 66.64L322.32 66.64L322.23 66.64L322.13 66.63L322.04 66.63L321.95 66.63L321.86 66.63L321.67 66.63L321.49 66.64ZM223.28 375.9L222.68 377.34L221.95 378.96L221.09 380.74L230.57 380.74L229.1 379.48L227.71 378.13L226.4 376.68L225.19 375.14L224.08 373.51L223.74 374.62L223.28 375.9ZM310.78 374.11L310.74 374.24L310.71 374.36L310.67 374.49L310.63 374.62L310.59 374.76L310.54 374.89L310.5 375.03L310.45 375.17L310.4 375.32L310.35 375.46L310.3 375.61L310.25 375.76L310.19 375.91L310.13 376.07L310.07 376.23L310.01 376.39L309.95 376.55L309.88 376.71L309.82 376.88L309.75 377.05L309.68 377.22L309.6 377.4L309.53 377.58L309.45 377.75L309.38 377.94L309.3 378.12L309.22 378.31L309.13 378.5L309.05 378.69L308.96 378.88L308.87 379.08L308.78 379.28L308.69 379.48L308.6 379.68L308.5 379.89L308.4 380.1L308.3 380.31L308.2 380.52L308.1 380.74L360.33 380.74L360.16 380.42L359.99 380.1L359.82 379.78L359.66 379.45L359.5 379.12L359.34 378.79L359.19 378.46L359.05 378.13L358.9 377.79L358.76 377.45L358.63 377.11L358.5 376.77L358.37 376.43L358.25 376.08L358.13 375.73L358.02 375.38L357.91 375.03L357.8 374.68L357.7 374.32L357.61 373.96L357.51 373.61L357.43 373.24L357.34 372.88L357.26 372.52L357.19 372.15L357.12 371.78L357.06 371.41L357 371.04L356.94 370.67L356.89 370.3L356.84 369.92L356.8 369.55L356.76 369.17L356.73 368.79L356.7 368.41L356.68 368.03L356.66 367.64L356.65 367.26L356.64 366.87L356.64 366.49L356.64 200.16L310.81 373.99L310.78 374.11ZM160.44 15.69L159.86 15.73L159.28 15.79L158.72 15.87L158.16 15.97L157.6 16.1L157.06 16.24L156.53 16.41L156 16.6L155.48 16.8L154.98 17.03L154.48 17.28L154 17.54L153.52 17.82L153.06 18.12L152.61 18.44L152.18 18.77L151.75 19.12L151.35 19.48L150.95 19.86L150.57 20.26L150.21 20.67L149.86 21.09L149.53 21.52L149.21 21.97L148.91 22.43L148.63 22.91L148.37 23.39L148.12 23.89L147.89 24.39L147.69 24.91L147.5 25.44L147.33 25.97L147.19 26.51L147.06 27.07L146.96 27.63L146.88 28.19L146.82 28.77L146.78 29.35L146.77 29.94L146.77 366.03L146.78 366.62L146.82 367.2L146.88 367.77L146.96 368.34L147.06 368.9L147.19 369.45L147.33 370L147.5 370.53L147.69 371.06L147.89 371.58L148.12 372.08L148.37 372.58L148.63 373.06L148.91 373.53L149.21 374L149.53 374.44L149.86 374.88L150.21 375.3L150.57 375.71L150.95 376.11L151.35 376.49L151.76 376.85L152.18 377.2L152.61 377.53L153.06 377.85L153.52 378.15L154 378.43L154.48 378.69L154.98 378.94L155.48 379.16L156 379.37L156.53 379.56L157.06 379.72L157.6 379.87L158.16 380L158.72 380.1L159.28 380.18L159.86 380.24L160.44 380.27L161.03 380.29L195.58 380.29L195.97 380.28L196.36 380.25L196.75 380.21L197.14 380.14L197.52 380.06L197.91 379.97L198.29 379.85L198.67 379.72L199.04 379.56L199.42 379.4L199.79 379.21L200.16 379L200.53 378.78L200.9 378.54L201.27 378.28L201.63 378.01L202 377.71L202.36 377.4L202.72 377.07L203.07 376.72L203.43 376.36L203.78 375.97L204.13 375.57L204.48 375.15L204.83 374.72L205.18 374.26L205.52 373.79L205.87 373.3L206.21 372.79L206.55 372.27L206.88 371.72L207.22 371.16L207.55 370.58L207.88 369.99L208.21 369.37L208.54 368.74L208.87 368.09L209.19 367.42L209.51 366.74L209.83 366.03L209.83 29.94L209.82 29.35L209.79 28.77L209.73 28.19L209.65 27.63L209.54 27.07L209.42 26.51L209.27 25.97L209.11 25.44L208.92 24.91L208.71 24.39L208.49 23.89L208.24 23.39L207.98 22.91L207.7 22.43L207.4 21.97L207.08 21.52L206.75 21.09L206.4 20.66L206.03 20.26L205.65 19.86L205.26 19.48L204.85 19.12L204.43 18.77L203.99 18.44L203.54 18.12L203.08 17.82L202.61 17.54L202.12 17.28L201.63 17.03L201.12 16.8L200.61 16.6L200.08 16.41L199.55 16.24L199 16.1L198.45 15.97L197.89 15.87L197.32 15.79L196.75 15.73L196.17 15.69L195.58 15.68L161.03 15.68L160.44 15.69ZM371.85 341.58L433.43 341.58L433.74 341.58L434.05 341.6L434.36 341.63L434.66 341.68L434.96 341.73L435.25 341.8L435.55 341.87L435.83 341.96L436.11 342.06L436.39 342.17L436.66 342.29L436.92 342.42L437.18 342.57L437.43 342.72L437.68 342.87L437.92 343.04L438.15 343.22L438.38 343.41L438.59 343.6L438.8 343.8L439.01 344.01L439.2 344.23L439.39 344.46L439.56 344.69L439.73 344.93L439.89 345.17L440.04 345.43L440.18 345.69L440.31 345.95L440.43 346.22L440.54 346.5L440.64 346.78L440.73 347.06L440.81 347.35L440.88 347.65L440.93 347.95L440.98 348.25L441.01 348.56L441.03 348.87L441.03 349.18L441.03 349.49L441.01 349.8L440.98 350.11L440.93 350.41L440.88 350.71L440.81 351.01L440.73 351.3L440.64 351.58L440.54 351.86L440.43 352.14L440.31 352.41L440.18 352.67L440.04 352.93L439.89 353.19L439.73 353.43L439.56 353.67L439.39 353.9L439.2 354.13L439.01 354.35L438.8 354.56L438.59 354.76L438.38 354.95L438.15 355.14L437.92 355.32L437.68 355.49L437.43 355.64L437.18 355.79L436.92 355.94L436.66 356.07L436.39 356.19L436.11 356.3L435.83 356.4L435.55 356.49L435.25 356.56L434.96 356.63L434.66 356.68L434.36 356.73L434.05 356.76L433.74 356.78L433.43 356.78L371.85 356.78L371.85 366.01L371.86 366.6L371.9 367.18L371.95 367.75L372.04 368.32L372.14 368.88L372.26 369.43L372.41 369.97L372.58 370.51L372.76 371.04L372.97 371.55L373.2 372.06L373.44 372.55L373.71 373.04L373.99 373.51L374.29 373.97L374.6 374.42L374.94 374.86L375.28 375.28L375.65 375.69L376.03 376.08L376.42 376.46L376.83 376.83L377.25 377.18L377.69 377.51L378.14 377.83L378.6 378.12L379.07 378.41L379.56 378.67L380.05 378.91L380.56 379.14L381.08 379.35L381.6 379.54L382.14 379.7L382.68 379.85L383.23 379.97L383.79 380.08L384.36 380.16L384.94 380.22L385.52 380.25L386.1 380.26L458.77 380.26L459.36 380.25L459.94 380.22L460.52 380.16L461.08 380.08L461.64 379.97L462.2 379.85L462.74 379.7L463.28 379.54L463.8 379.35L464.32 379.14L464.82 378.91L465.32 378.67L465.8 378.41L466.28 378.12L466.74 377.83L467.19 377.51L467.62 377.18L468.05 376.83L468.45 376.46L468.85 376.08L469.23 375.69L469.59 375.28L469.94 374.86L470.27 374.42L470.59 373.97L470.89 373.51L471.17 373.04L471.44 372.55L471.68 372.06L471.91 371.55L472.11 371.04L472.3 370.51L472.47 369.97L472.61 369.43L472.74 368.88L472.84 368.32L472.92 367.75L472.98 367.18L473.02 366.6L473.03 366.01L473.03 356.78L458.78 356.78L458.46 356.78L458.15 356.76L457.85 356.73L457.54 356.68L457.24 356.63L456.95 356.56L456.66 356.49L456.37 356.4L456.09 356.3L455.82 356.19L455.55 356.07L455.28 355.94L455.02 355.79L454.77 355.64L454.52 355.49L454.29 355.32L454.05 355.14L453.83 354.95L453.61 354.76L453.4 354.56L453.2 354.35L453 354.13L452.82 353.9L452.64 353.67L452.47 353.43L452.31 353.19L452.16 352.93L452.02 352.67L451.89 352.41L451.77 352.14L451.66 351.86L451.56 351.58L451.47 351.3L451.39 351.01L451.33 350.71L451.27 350.41L451.23 350.11L451.2 349.8L451.18 349.49L451.17 349.18L451.18 348.87L451.2 348.56L451.23 348.25L451.27 347.95L451.33 347.65L451.39 347.35L451.47 347.06L451.56 346.78L451.66 346.5L451.77 346.22L451.89 345.95L452.02 345.69L452.16 345.43L452.31 345.17L452.47 344.93L452.64 344.69L452.82 344.46L453 344.23L453.2 344.01L453.4 343.8L453.61 343.6L453.83 343.41L454.05 343.22L454.29 343.04L454.52 342.87L454.77 342.72L455.02 342.57L455.28 342.42L455.55 342.29L455.82 342.17L456.09 342.06L456.37 341.96L456.66 341.87L456.95 341.8L457.24 341.73L457.54 341.68L457.85 341.63L458.15 341.6L458.46 341.58L458.78 341.58L473.03 341.58L473.03 181.14L371.85 181.14L371.85 341.58ZM385.52 142.94L384.94 142.98L384.36 143.03L383.79 143.12L383.23 143.22L382.68 143.34L382.14 143.49L381.6 143.66L381.08 143.84L380.56 144.05L380.05 144.28L379.56 144.52L379.07 144.79L378.6 145.07L378.14 145.37L377.69 145.68L377.25 146.02L376.83 146.36L376.42 146.73L376.03 147.11L375.65 147.5L375.28 147.91L374.94 148.33L374.6 148.77L374.29 149.22L373.99 149.68L373.71 150.15L373.44 150.64L373.2 151.13L372.97 151.64L372.76 152.16L372.58 152.68L372.41 153.22L372.26 153.76L372.14 154.31L372.04 154.87L371.96 155.44L371.9 156.01L371.86 156.6L371.85 157.18L371.85 166.41L473.03 166.41L473.03 157.18L473.02 156.6L472.98 156.01L472.92 155.44L472.84 154.87L472.74 154.31L472.61 153.76L472.47 153.22L472.3 152.68L472.11 152.16L471.91 151.64L471.68 151.13L471.44 150.64L471.17 150.15L470.89 149.68L470.59 149.22L470.28 148.77L469.94 148.33L469.59 147.91L469.23 147.5L468.85 147.11L468.46 146.73L468.05 146.36L467.62 146.02L467.19 145.68L466.74 145.37L466.28 145.07L465.81 144.79L465.32 144.52L464.82 144.28L464.32 144.05L463.8 143.84L463.28 143.66L462.74 143.49L462.2 143.34L461.64 143.22L461.08 143.12L460.52 143.03L459.94 142.98L459.36 142.94L458.78 142.93L386.1 142.93L385.52 142.94Z" id="a1nmckcyaZ"></path><linearGradient id="gradientb2MtZ1casz" gradientUnits="userSpaceOnUse" x1="256" y1="0.47" x2="256" y2="450.22"><stop style="stop-color: #8206bc;stop-opacity: 1" offset="0%"></stop><stop style="stop-color: #cc2858;stop-opacity: 1" offset="78.2502109214588%"></stop><stop style="stop-color: #f2a309;stop-opacity: 1" offset="100%"></stop></linearGradient><path d="M90.74 463.37C90.74 465.91 90.74 486.21 90.74 488.75C90.74 492.92 87.35 496.32 83.17 496.32C81.95 496.32 72.16 496.32 70.94 496.32C66.76 496.32 63.37 492.92 63.37 488.75C63.37 486.21 63.37 465.91 63.37 463.37C63.37 459.17 59.96 455.77 55.76 455.77C51.56 455.77 48.16 459.17 48.16 463.37C48.16 465.91 48.16 486.21 48.16 488.75C48.16 501.31 58.38 511.53 70.94 511.53C72.16 511.53 81.95 511.53 83.17 511.53C95.73 511.53 105.95 501.31 105.95 488.75C105.95 486.21 105.95 465.91 105.95 463.37C105.95 459.17 102.55 455.77 98.35 455.77C94.15 455.77 90.74 459.17 90.74 463.37Z" id="i3pMrBkvP"></path><linearGradient id="gradientahaaJojiv" gradientUnits="userSpaceOnUse" x1="77.05" y1="455.77" x2="77.05" y2="511.53"><stop style="stop-color: #820db9;stop-opacity: 1" offset="0%"></stop><stop style="stop-color: #cf2658;stop-opacity: 1" offset="100%"></stop></linearGradient><path d="M448.63 463.37C448.63 465.91 448.63 486.21 448.63 488.75C448.63 492.92 445.24 496.32 441.06 496.32C439.84 496.32 430.05 496.32 428.83 496.32C424.66 496.32 421.26 492.92 421.26 488.75C421.26 486.21 421.26 465.91 421.26 463.37C421.26 459.17 417.86 455.77 413.66 455.77C409.46 455.77 406.05 459.17 406.05 463.37C406.05 465.91 406.05 486.21 406.05 488.75C406.05 501.31 416.27 511.53 428.83 511.53C430.05 511.53 439.84 511.53 441.06 511.53C453.62 511.53 463.84 501.31 463.84 488.75C463.84 486.21 463.84 465.91 463.84 463.37C463.84 459.17 460.44 455.77 456.24 455.77C452.04 455.77 448.63 459.17 448.63 463.37Z" id="b29Uu5LEfO"></path><linearGradient id="gradientc1yQ3bMJEw" gradientUnits="userSpaceOnUse" x1="434.95" y1="455.77" x2="434.95" y2="511.53"><stop style="stop-color: #830bba;stop-opacity: 1" offset="0%"></stop><stop style="stop-color: #c92656;stop-opacity: 1" offset="100%"></stop></linearGradient><path d="M63.53 223.19C63.53 232.76 63.53 309.39 63.53 318.97C63.53 323.17 66.94 326.58 71.14 326.58C75.34 326.58 78.74 323.17 78.74 318.97C78.74 309.39 78.74 232.76 78.74 223.19C78.74 218.99 75.34 215.58 71.14 215.58C66.94 215.58 63.53 218.99 63.53 223.19Z" id="a2UGJ9xoO"></path><linearGradient id="gradientb182CFHzgV" gradientUnits="userSpaceOnUse" x1="71.14" y1="215.58" x2="71.14" y2="326.58"><stop style="stop-color: #8206bc;stop-opacity: 1" offset="0%"></stop><stop style="stop-color: #c62555;stop-opacity: 1" offset="100%"></stop></linearGradient><path d="M165.31 69.08C161.11 69.08 157.71 72.48 157.71 76.68C157.71 80.88 161.11 84.28 165.31 84.28C167.91 84.28 188.69 84.28 191.29 84.28C195.49 84.28 198.89 80.88 198.89 76.68C198.89 72.48 195.49 69.08 191.29 69.08C186.09 69.08 167.91 69.08 165.31 69.08Z" id="a1Y0nQ8r6F"></path><linearGradient id="gradienta28tIAJjkW" gradientUnits="userSpaceOnUse" x1="178.3" y1="69.08" x2="178.3" y2="84.28"><stop style="stop-color: #9506bc;stop-opacity: 1" offset="0%"></stop><stop style="stop-color: #cc2858;stop-opacity: 1" offset="100%"></stop></linearGradient><path d="M165.31 42.81C161.11 42.81 157.71 46.22 157.71 50.42C157.71 54.62 161.11 58.02 165.31 58.02C167.91 58.02 188.69 58.02 191.29 58.02C195.49 58.02 198.89 54.62 198.89 50.42C198.89 46.22 195.49 42.81 191.29 42.81C186.09 42.81 167.91 42.81 165.31 42.81Z" id="akwb92s65"></path><linearGradient id="gradientaidlhZGkS" gradientUnits="userSpaceOnUse" x1="178.3" y1="42.81" x2="178.3" y2="58.02"><stop style="stop-color: #8005b9;stop-opacity: 1" offset="0%"></stop><stop style="stop-color: #c82655;stop-opacity: 1" offset="100%"></stop></linearGradient><path d="M165.31 95.34C161.11 95.34 157.71 98.74 157.71 102.94C157.71 107.14 161.11 110.55 165.31 110.55C167.91 110.55 188.69 110.55 191.29 110.55C195.49 110.55 198.89 107.14 198.89 102.94C198.89 98.74 195.49 95.34 191.29 95.34C186.09 95.34 167.91 95.34 165.31 95.34Z" id="b45QdAFYST"></path><linearGradient id="gradiente1nsWX92dC" gradientUnits="userSpaceOnUse" x1="178.3" y1="95.34" x2="178.3" y2="110.55"><stop style="stop-color: #8506c0;stop-opacity: 1" offset="0%"></stop><stop style="stop-color: #cc285e;stop-opacity: 1" offset="100%"></stop></linearGradient><path d="M322.75 94.44C318.69 93.36 314.53 95.79 313.46 99.85C312.39 103.91 314.81 108.07 318.87 109.14C321.38 109.8 341.48 115.1 343.99 115.76C344.64 115.94 345.29 116.02 345.93 116.02C349.3 116.02 352.38 113.76 353.28 110.35C354.35 106.29 351.93 102.13 347.87 101.06C342.84 99.73 325.26 95.1 322.75 94.44Z" id="b2vpqW3HjN"></path><linearGradient id="gradientbqTTvyCDk" gradientUnits="userSpaceOnUse" x1="333.37" y1="94.18" x2="333.37" y2="116.02"><stop style="stop-color: #7f06b7;stop-opacity: 1" offset="0%"></stop><stop style="stop-color: #c82756;stop-opacity: 1" offset="100%"></stop></linearGradient><path d="M316.05 119.83C311.99 118.76 307.83 121.18 306.76 125.24C305.69 129.31 308.11 133.46 312.17 134.54C314.69 135.2 334.78 140.5 337.29 141.16C337.94 141.33 338.59 141.41 339.24 141.41C342.61 141.41 345.68 139.15 346.58 135.74C347.66 131.68 345.23 127.52 341.17 126.45C336.15 125.13 318.56 120.49 316.05 119.83Z" id="fhAwtSuQ2"></path><linearGradient id="gradienta6PUwyf0Lk" gradientUnits="userSpaceOnUse" x1="326.67" y1="119.58" x2="326.67" y2="141.41"><stop style="stop-color: #830aba;stop-opacity: 1" offset="0%"></stop><stop style="stop-color: #c92555;stop-opacity: 1" offset="100%"></stop></linearGradient><path d="M397.09 202.75C392.89 202.75 389.49 206.15 389.49 210.35C389.49 214.55 392.89 217.95 397.09 217.95C402.16 217.95 442.72 217.95 447.79 217.95C451.99 217.95 455.39 214.55 455.39 210.35C455.39 206.15 451.99 202.75 447.79 202.75C437.65 202.75 402.16 202.75 397.09 202.75Z" id="c1HPdCSk8c"></path><linearGradient id="gradienthkE5t1mF" gradientUnits="userSpaceOnUse" x1="422.44" y1="202.75" x2="422.44" y2="217.95"><stop style="stop-color: #8103bc;stop-opacity: 1" offset="0%"></stop><stop style="stop-color: #d5296e;stop-opacity: 1" offset="100%"></stop></linearGradient></defs><g><g><g><use xlink:href="#a1nmckcyaZ" opacity="1" fill="url(#gradientb2MtZ1casz)"></use><g><use xlink:href="#a1nmckcyaZ" opacity="1" fill-opacity="0" stroke="#000000" stroke-width="1" stroke-opacity="0"></use></g></g><g><use xlink:href="#i3pMrBkvP" opacity="1" fill="url(#gradientahaaJojiv)"></use><g><use xlink:href="#i3pMrBkvP" opacity="1" fill-opacity="0" stroke="#000000" stroke-width="1" stroke-opacity="0"></use></g></g><g><use xlink:href="#b29Uu5LEfO" opacity="1" fill="url(#gradientc1yQ3bMJEw)"></use><g><use xlink:href="#b29Uu5LEfO" opacity="1" fill-opacity="0" stroke="#000000" stroke-width="1" stroke-opacity="0"></use></g></g><g><use xlink:href="#a2UGJ9xoO" opacity="1" fill="url(#gradientb182CFHzgV)"></use><g><use xlink:href="#a2UGJ9xoO" opacity="1" fill-opacity="0" stroke="#000000" stroke-width="1" stroke-opacity="0"></use></g></g><g><use xlink:href="#a1Y0nQ8r6F" opacity="1" fill="url(#gradienta28tIAJjkW)"></use><g><use xlink:href="#a1Y0nQ8r6F" opacity="1" fill-opacity="0" stroke="#000000" stroke-width="1" stroke-opacity="0"></use></g></g><g><use xlink:href="#akwb92s65" opacity="1" fill="url(#gradientaidlhZGkS)"></use><g><use xlink:href="#akwb92s65" opacity="1" fill-opacity="0" stroke="#000000" stroke-width="1" stroke-opacity="0"></use></g></g><g><use xlink:href="#b45QdAFYST" opacity="1" fill="url(#gradiente1nsWX92dC)"></use><g><use xlink:href="#b45QdAFYST" opacity="1" fill-opacity="0" stroke="#000000" stroke-width="1" stroke-opacity="0"></use></g></g><g><use xlink:href="#b2vpqW3HjN" opacity="1" fill="url(#gradientbqTTvyCDk)"></use><g><use xlink:href="#b2vpqW3HjN" opacity="1" fill-opacity="0" stroke="#000000" stroke-width="1" stroke-opacity="0"></use></g></g><g><use xlink:href="#fhAwtSuQ2" opacity="1" fill="url(#gradienta6PUwyf0Lk)"></use><g><use xlink:href="#fhAwtSuQ2" opacity="1" fill-opacity="0" stroke="#000000" stroke-width="1" stroke-opacity="0"></use></g></g><g><use xlink:href="#c1HPdCSk8c" opacity="1" fill="url(#gradienthkE5t1mF)"></use><g><use xlink:href="#c1HPdCSk8c" opacity="1" fill-opacity="0" stroke="#000000" stroke-width="1" stroke-opacity="0"></use></g></g></g></g></svg>