<?xml version="1.0" encoding="UTF-8" standalone="no"?>
<!DOCTYPE svg PUBLIC "-//W3C//DTD SVG 1.1//EN" "http://www.w3.org/Graphics/SVG/1.1/DTD/svg11.dtd">
<svg version="1.1" xmlns="http://www.w3.org/2000/svg" xmlns:xlink="http://www.w3.org/1999/xlink" preserveAspectRatio="xMidYMid meet" viewBox="0 0 512 512" width="512" height="512"><defs><path d="M190.38 194.53L190.69 194.56L190.99 194.6L191.29 194.66L191.58 194.72L191.87 194.8L192.15 194.89L192.43 194.99L192.7 195.1L192.97 195.22L193.24 195.35L193.49 195.49L193.74 195.63L193.99 195.79L194.23 195.96L194.46 196.14L194.68 196.32L194.9 196.51L195.11 196.72L195.31 196.93L195.5 197.14L195.69 197.37L195.86 197.6L196.03 197.83L196.19 198.08L196.34 198.33L196.48 198.59L196.61 198.85L196.73 199.12L196.84 199.39L196.94 199.67L197.02 199.96L197.1 200.24L197.17 200.54L197.22 200.84L197.26 201.14L197.3 201.44L197.31 201.75L197.32 202.06L197.31 202.37L197.3 202.68L197.26 202.99L197.22 203.29L197.17 203.58L197.1 203.88L197.02 204.17L196.94 204.45L196.84 204.73L196.73 205L196.61 205.27L196.48 205.53L196.34 205.79L196.19 206.04L196.03 206.29L195.86 206.52L195.69 206.75L195.5 206.98L195.31 207.19L195.11 207.4L194.9 207.6L194.68 207.8L194.46 207.98L194.23 208.16L193.99 208.33L193.74 208.48L193.49 208.63L193.24 208.77L192.97 208.9L192.7 209.02L192.43 209.13L192.15 209.23L191.87 209.32L191.58 209.4L191.29 209.46L190.99 209.52L190.69 209.56L190.38 209.59L190.07 209.61L189.76 209.62L105.45 209.62L105.13 209.61L104.83 209.59L104.52 209.56L104.22 209.52L103.92 209.46L103.63 209.4L103.34 209.32L103.06 209.23L102.78 209.13L102.5 209.02L102.24 208.9L101.97 208.77L101.72 208.63L101.47 208.48L101.22 208.33L100.98 208.16L100.75 207.98L100.53 207.8L100.31 207.6L100.1 207.4L99.9 207.19L99.71 206.98L99.52 206.75L99.35 206.52L99.18 206.29L99.02 206.04L98.87 205.79L98.73 205.53L98.6 205.27L98.48 205L98.37 204.73L98.27 204.45L98.18 204.17L98.11 203.88L98.04 203.58L97.99 203.29L97.94 202.99L97.91 202.68L97.89 202.37L97.89 202.06L97.89 201.75L97.91 201.44L97.94 201.14L97.99 200.84L98.04 200.54L98.11 200.24L98.18 199.96L98.27 199.67L98.37 199.39L98.48 199.12L98.6 198.85L98.73 198.59L98.87 198.33L99.02 198.08L99.18 197.83L99.35 197.6L99.52 197.37L99.71 197.14L99.9 196.93L100.1 196.72L100.31 196.51L100.53 196.32L100.75 196.14L100.98 195.96L101.22 195.79L101.47 195.63L101.72 195.49L101.97 195.35L102.24 195.22L102.5 195.1L102.78 194.99L103.06 194.89L103.34 194.8L103.63 194.72L103.92 194.66L104.22 194.6L104.52 194.56L104.83 194.53L105.13 194.51L105.45 194.5L189.76 194.5L190.07 194.51L190.38 194.53Z" id="b1xtGbe0kz"></path><linearGradient id="gradientcH3MKEh17" gradientUnits="userSpaceOnUse" x1="147.6" y1="194.5" x2="147.6" y2="209.62"><stop style="stop-color: #7f09b6;stop-opacity: 1" offset="0%"></stop><stop style="stop-color: #c53e76;stop-opacity: 1" offset="40.05972039631418%"></stop><stop style="stop-color: #ffa701;stop-opacity: 1" offset="100%"></stop></linearGradient><path d="M166.98 53.11L171.04 53.26L175.08 53.47L179.1 53.73L183.1 54.06L187.08 54.45L191.05 54.9L195 55.41L198.93 55.98L202.85 56.61L206.75 57.3L210.63 58.04L214.5 58.85L218.36 59.72L222.2 60.65L226.02 61.64L229.83 62.69L233.63 63.8L237.41 64.97L274.63 64.97L276.23 64.49L277.84 64.01L279.44 63.55L281.05 63.1L282.66 62.66L284.28 62.23L285.89 61.81L287.51 61.4L289.14 60.99L290.76 60.6L292.39 60.22L294.02 59.85L295.65 59.49L297.29 59.14L298.93 58.79L300.57 58.46L302.21 58.14L303.85 57.83L305.5 57.53L307.15 57.23L308.8 56.95L310.45 56.68L312.11 56.42L313.76 56.17L315.42 55.93L317.08 55.69L318.74 55.47L320.4 55.26L322.07 55.06L323.73 54.87L325.4 54.69L327.07 54.52L328.74 54.36L330.41 54.21L332.08 54.07L333.75 53.94L335.43 53.82L337.1 53.71L338.78 53.61L340.46 53.52L340.77 53.51L341.08 53.51L341.38 53.53L341.69 53.55L341.99 53.59L342.28 53.64L342.57 53.71L342.86 53.78L343.15 53.86L343.42 53.96L343.7 54.07L343.97 54.18L344.23 54.31L344.49 54.44L344.74 54.59L344.99 54.75L345.23 54.91L345.46 55.08L345.69 55.27L345.91 55.46L346.12 55.66L346.32 55.86L346.52 56.08L346.7 56.3L346.88 56.53L347.05 56.77L347.22 57.01L347.37 57.26L347.51 57.52L347.64 57.78L347.77 58.05L347.88 58.32L347.98 58.6L348.07 58.89L348.16 59.18L348.22 59.47L348.28 59.77L348.33 60.07L348.36 60.38L348.38 60.69L348.39 61L348.39 61.31L348.38 61.62L348.35 61.92L348.31 62.22L348.26 62.51L348.19 62.81L348.12 63.09L348.04 63.38L347.94 63.66L347.83 63.93L347.72 64.2L347.59 64.46L347.45 64.72L347.31 64.97L347.15 65.22L346.99 65.46L346.81 65.69L346.63 65.92L346.44 66.14L346.24 66.35L346.04 66.55L345.82 66.75L345.6 66.94L345.37 67.12L345.13 67.29L344.89 67.45L344.64 67.6L344.39 67.74L344.12 67.88L343.85 68L343.58 68.11L343.3 68.21L343.02 68.31L342.73 68.39L342.43 68.46L342.13 68.51L341.83 68.56L341.52 68.59L341.21 68.62L339.74 68.69L338.27 68.78L336.8 68.87L335.33 68.98L333.86 69.09L332.39 69.21L330.92 69.34L329.46 69.47L327.99 69.62L326.53 69.77L325.06 69.93L323.6 70.1L322.14 70.28L320.68 70.47L319.22 70.66L317.77 70.86L316.31 71.07L314.86 71.29L313.41 71.52L311.96 71.76L310.51 72L309.06 72.25L307.61 72.51L306.17 72.78L304.73 73.06L303.29 73.34L301.85 73.63L300.41 73.93L298.97 74.24L297.54 74.56L296.11 74.88L294.68 75.22L293.25 75.56L291.83 75.91L290.4 76.27L288.98 76.63L287.57 77.01L286.15 77.39L284.74 77.78L283.32 78.17L283.32 340.13L286.25 339.13L289.18 338.18L292.12 337.27L295.06 336.4L298.02 335.57L300.98 334.79L303.95 334.05L306.92 333.35L309.91 332.69L312.9 332.08L315.89 331.51L318.9 330.98L321.91 330.5L324.92 330.05L327.95 329.65L330.98 329.3L334.02 328.98L337.06 328.71L340.11 328.48L343.17 328.29L346.23 328.15L349.3 328.05L352.37 327.99L355.45 327.97L358.54 327.99L361.63 328.06L364.73 328.17L367.84 328.33L370.95 328.52L374.06 328.76L377.19 329.04L380.31 329.37L383.44 329.74L386.58 330.15L389.73 330.6L392.87 331.09L396.03 331.63L399.19 332.21L402.35 332.83L405.52 333.5L405.52 333.5L405.51 333.49L405.5 333.49L405.49 333.47L405.48 333.46L404.93 332.88L404.38 332.29L403.83 331.69L403.28 331.07L402.73 330.43L402.19 329.78L401.65 329.11L401.12 328.43L400.59 327.73L400.07 327.02L399.56 326.28L399.06 325.54L398.57 324.77L398.09 324L397.62 323.2L397.17 322.39L396.73 321.56L396.31 320.72L395.91 319.86L395.52 318.99L395.15 318.1L394.8 317.19L394.48 316.26L394.17 315.32L393.89 314.37L393.63 313.4L393.4 312.41L393.19 311.4L393.01 310.38L392.86 309.35L392.74 308.29L392.65 307.22L392.59 306.14L392.57 305.03L392.58 303.91L392.62 302.78L392.69 301.63L392.81 300.46L392.96 299.27L393.15 298.07L393.28 297.37L393.42 296.67L393.58 295.99L393.75 295.31L393.93 294.63L394.13 293.97L394.34 293.32L394.56 292.67L394.79 292.03L395.04 291.4L395.3 290.79L395.57 290.18L395.85 289.58L396.14 288.99L396.45 288.41L396.77 287.84L397.09 287.29L397.43 286.74L397.78 286.21L398.14 285.68L398.52 285.17L398.9 284.67L399.29 284.19L399.69 283.71L400.11 283.25L400.53 282.8L400.96 282.37L401.4 281.94L401.85 281.53L402.31 281.14L402.78 280.76L403.26 280.39L403.74 280.04L404.24 279.7L404.74 279.38L405.25 279.07L405.77 278.78L406.29 278.51L406.83 278.25L407.37 278L407.88 277.79L408.4 277.59L408.92 277.41L409.44 277.24L409.97 277.09L410.5 276.95L411.03 276.82L411.57 276.72L412.1 276.62L412.65 276.54L413.19 276.48L413.73 276.43L414.28 276.4L414.83 276.38L415.38 276.37L415.94 276.38L416.49 276.41L417.05 276.45L417.6 276.5L418.16 276.57L418.72 276.66L419.29 276.75L419.85 276.87L420.41 276.99L420.97 277.14L421.54 277.29L422.1 277.46L422.67 277.65L423.23 277.85L423.79 278.07L424.36 278.3L424.92 278.54L425.48 278.8L426.05 279.07L426.61 279.36L427.17 279.66L427.73 279.98L428.29 280.31L428.84 280.65L429.4 281.01L429.99 281.4L430.52 281.75L431.18 282.18L431.55 282.43L432.38 282.98L433.28 283.57L433.76 283.89L434.25 284.22L434.75 284.55L435.26 284.88L435.78 285.22L436.3 285.57L436.82 285.91L437.33 286.25L437.84 286.59L438.35 286.92L438.84 287.25L439.32 287.56L439.79 287.87L440.24 288.17L440.67 288.45L441.07 288.72L441.45 288.97L441.8 289.2L442.13 289.41L442.41 289.61L442.67 289.77L442.88 289.91L443.06 290.03L443.19 290.11L443.27 290.17L443.31 290.19L443.31 289.71L443.31 288.49L443.31 286.59L443.31 284.04L443.31 280.89L443.32 277.15L443.32 272.89L443.32 268.13L443.32 262.91L443.32 257.27L443.32 251.25L443.32 244.89L443.32 238.23L443.32 231.3L443.32 224.14L443.32 216.8L443.33 209.3L443.33 201.69L443.33 194.01L443.33 186.29L443.33 178.57L443.33 170.9L443.33 163.31L443.33 155.83L443.33 148.51L443.33 141.38L443.33 134.49L443.33 127.87L443.33 121.55L443.33 115.59L443.33 110.01L443.33 104.86L443.33 100.16L443.33 95.97L443.33 92.32L443.33 89.25L443.33 86.79L443.33 84.99L443.33 83.88L443.33 83.5L443.32 83.39L443.31 83.27L443.29 83.15L443.26 83.03L443.23 82.91L443.18 82.8L443.13 82.68L443.07 82.56L443.01 82.44L442.94 82.33L442.86 82.21L442.77 82.1L442.68 81.99L442.58 81.87L442.47 81.76L442.36 81.66L442.24 81.55L442.12 81.45L441.98 81.34L441.85 81.25L441.7 81.15L441.56 81.06L441.4 80.97L441.24 80.88L441.08 80.79L440.91 80.71L440.73 80.64L440.55 80.57L440.36 80.5L440.17 80.44L439.98 80.38L439.78 80.32L439.57 80.27L439.37 80.23L439.15 80.19L438.94 80.16L438.71 80.13L438.49 80.11L438.26 80.09L438.03 80.08L437.98 80.08L437.94 80.08L437.89 80.08L437.85 80.07L437.8 80.07L437.76 80.07L437.71 80.07L437.67 80.06L437.62 80.06L437.58 80.05L437.53 80.05L437.49 80.05L437.44 80.04L437.4 80.04L437.35 80.03L437.31 80.03L437.26 80.02L437.22 80.01L437.18 80.01L437.13 80L437.09 80L437.04 79.99L437 79.98L436.95 79.97L436.91 79.97L436.86 79.96L436.82 79.95L436.77 79.94L436.73 79.93L436.69 79.92L436.64 79.91L436.6 79.9L436.55 79.89L436.51 79.88L436.47 79.87L436.42 79.86L436.38 79.85L436.33 79.84L436.29 79.83L436.25 79.81L434.74 79.41L433.23 79L431.72 78.61L430.21 78.22L428.7 77.84L427.19 77.47L425.69 77.1L424.18 76.74L422.68 76.39L421.17 76.04L419.67 75.71L418.17 75.38L416.67 75.06L415.17 74.74L413.68 74.43L412.18 74.13L410.69 73.84L409.19 73.55L407.7 73.28L406.21 73.01L404.72 72.74L403.24 72.49L401.75 72.24L400.27 72L398.79 71.77L397.31 71.54L395.83 71.32L394.36 71.11L392.88 70.91L391.41 70.71L389.94 70.52L388.48 70.34L387.01 70.17L385.55 70L384.09 69.84L382.63 69.69L381.18 69.55L379.72 69.41L378.27 69.29L376.83 69.17L376.52 69.13L376.21 69.09L375.91 69.04L375.61 68.97L375.32 68.89L375.03 68.8L374.75 68.7L374.48 68.59L374.21 68.47L373.94 68.34L373.68 68.2L373.43 68.05L373.19 67.89L372.95 67.72L372.72 67.54L372.5 67.35L372.28 67.16L372.07 66.96L371.87 66.75L371.68 66.53L371.49 66.31L371.32 66.07L371.15 65.84L371 65.59L370.85 65.34L370.71 65.08L370.58 64.82L370.46 64.55L370.35 64.28L370.26 64L370.17 63.72L370.09 63.44L370.03 63.15L369.97 62.85L369.93 62.56L369.9 62.25L369.88 61.95L369.88 61.64L369.88 61.34L369.9 61.03L369.93 60.72L369.98 60.41L370.03 60.11L370.1 59.81L370.18 59.52L370.27 59.23L370.37 58.95L370.48 58.68L370.6 58.41L370.73 58.14L370.87 57.88L371.02 57.63L371.18 57.39L371.35 57.15L371.53 56.92L371.71 56.7L371.91 56.48L372.11 56.27L372.32 56.07L372.54 55.88L372.76 55.7L372.99 55.52L373.23 55.35L373.48 55.2L373.73 55.05L373.98 54.91L374.24 54.78L374.51 54.66L374.78 54.56L375.06 54.46L375.34 54.37L375.63 54.29L375.92 54.23L376.21 54.17L376.51 54.13L376.81 54.1L377.12 54.08L377.42 54.08L377.73 54.08L378.04 54.1L379.54 54.22L381.04 54.36L382.54 54.5L384.05 54.64L385.56 54.8L387.07 54.96L388.58 55.13L390.1 55.31L391.61 55.5L393.13 55.69L394.66 55.89L396.18 56.1L397.7 56.32L399.23 56.54L400.76 56.78L402.29 57.02L403.83 57.26L405.36 57.52L406.9 57.78L408.43 58.05L409.97 58.33L411.51 58.61L413.06 58.9L414.6 59.2L416.14 59.51L417.69 59.83L419.24 60.15L420.79 60.48L422.34 60.82L423.89 61.16L425.44 61.52L426.99 61.88L428.55 62.24L430.1 62.62L431.66 63L433.21 63.39L434.77 63.79L436.33 64.19L437.89 64.6L439.45 65.02L440.25 65.09L441.04 65.19L441.82 65.31L442.59 65.46L443.34 65.63L444.09 65.83L444.82 66.05L445.54 66.29L446.25 66.56L446.94 66.85L447.62 67.16L448.28 67.5L448.93 67.85L449.56 68.23L450.17 68.62L450.77 69.04L451.35 69.47L451.91 69.92L452.45 70.39L452.97 70.88L453.47 71.38L453.95 71.9L454.41 72.44L454.85 72.99L455.26 73.56L455.65 74.14L456.02 74.73L456.37 75.34L456.69 75.96L456.98 76.6L457.25 77.24L457.5 77.9L457.71 78.57L457.9 79.25L458.07 79.93L458.2 80.63L458.31 81.34L458.38 82.05L458.43 82.77L458.44 83.5L458.44 214.99L459.12 215.15L459.82 215.35L460.55 215.58L461.29 215.85L462.06 216.15L462.84 216.49L463.65 216.88L464.47 217.3L465.32 217.78L466.18 218.29L467.07 218.86L467.97 219.47L468.89 220.14L469.83 220.86L470.8 221.64L471.77 222.47L472.77 223.36L473.79 224.32L474.82 225.33L475.87 226.41L476.94 227.56L478.02 228.78L479.12 230.06L480.24 231.42L481.37 232.85L482.52 234.35L483.69 235.93L484.87 237.6L486.07 239.34L487.28 241.16L488.51 243.07L489.75 245.07L491.01 247.15L492.28 249.32L493.57 251.59L494.87 253.94L496.18 256.4L497.51 258.95L498.85 261.6L500.21 264.35L501.45 266.98L502.62 269.65L503.72 272.35L504.75 275.09L505.72 277.85L506.61 280.66L507.44 283.5L508.2 286.37L508.89 289.28L509.51 292.22L510.06 295.2L510.54 298.21L510.96 301.26L511.3 304.35L511.58 307.47L511.79 310.63L511.93 313.82L512 317.05L512 320.32L511.93 323.63L511.8 326.97L511.59 330.35L511.32 333.77L510.97 337.23L510.56 340.72L510.08 344.25L509.53 347.83L508.91 351.44L508.23 355.09L507.47 358.78L506.64 362.51L505.75 366.28L504.79 370.09L503.75 373.94L502.65 377.83L501.48 381.76L500.24 385.73L498.94 389.74L497.56 393.79L496.11 397.89L496.34 398.06L496.56 398.23L496.77 398.41L496.98 398.6L497.19 398.79L497.39 398.98L497.59 399.18L497.78 399.38L497.97 399.59L498.16 399.8L498.34 400.02L498.51 400.24L498.68 400.46L498.85 400.69L499.01 400.92L499.16 401.15L499.31 401.39L499.45 401.63L499.59 401.88L499.72 402.13L499.85 402.38L499.97 402.64L500.09 402.9L500.2 403.16L500.3 403.42L500.4 403.69L500.49 403.96L500.57 404.24L500.65 404.51L500.72 404.79L500.79 405.07L500.85 405.36L500.9 405.64L500.95 405.93L500.99 406.22L501.02 406.51L501.05 406.81L501.06 407.11L501.07 407.41L501.08 407.71L501.08 446.65L501.07 447.16L501.04 447.66L500.99 448.15L500.92 448.64L500.83 449.12L500.72 449.59L500.59 450.06L500.45 450.52L500.29 450.97L500.11 451.41L499.92 451.85L499.71 452.27L499.48 452.69L499.24 453.1L498.98 453.49L498.71 453.88L498.42 454.25L498.12 454.62L497.81 454.97L497.48 455.31L497.14 455.63L496.79 455.94L496.42 456.24L496.05 456.53L495.66 456.8L495.27 457.06L494.86 457.3L494.44 457.53L494.02 457.74L493.58 457.93L493.13 458.11L492.68 458.27L492.22 458.41L491.75 458.54L491.28 458.65L490.8 458.73L490.31 458.8L489.81 458.85L489.31 458.88L488.81 458.9L399.53 458.9L399.02 458.88L398.52 458.85L398.03 458.8L397.54 458.73L397.06 458.65L396.58 458.54L396.11 458.41L395.65 458.27L395.2 458.11L394.76 457.93L394.32 457.74L393.89 457.53L393.48 457.3L393.07 457.06L392.67 456.8L392.29 456.53L391.91 456.24L391.55 455.94L391.19 455.63L390.85 455.31L390.53 454.97L390.21 454.62L389.91 454.25L389.63 453.88L389.36 453.49L389.1 453.1L388.86 452.69L388.63 452.27L388.42 451.85L388.22 451.41L388.04 450.97L387.88 450.52L387.74 450.06L387.61 449.59L387.51 449.12L387.42 448.64L387.35 448.15L387.3 447.66L387.27 447.16L387.26 446.65L387.26 407.99L387.27 407.48L387.3 406.97L387.35 406.46L387.42 405.96L387.51 405.47L387.62 404.98L387.75 404.51L387.9 404.04L388.06 403.57L388.24 403.12L388.44 402.67L388.66 402.24L388.89 401.81L389.14 401.4L389.4 400.99L389.68 400.6L389.97 400.21L390.28 399.84L390.6 399.48L390.93 399.14L391.28 398.8L391.63 398.48L392.01 398.18L392.39 397.88L392.78 397.61L393.19 397.34L393.6 397.1L394.03 396.86L394.47 396.65L394.91 396.45L395.36 396.27L395.83 396.1L396.3 395.96L396.77 395.83L397.26 395.72L397.75 395.63L398.25 395.56L398.76 395.5L399.27 395.47L399.78 395.46L403.79 395.46L403.81 395.24L403.83 395.01L403.84 394.78L403.86 394.55L403.88 394.33L403.89 394.1L403.91 393.87L403.93 393.64L403.95 393.42L403.97 393.19L403.99 392.96L404.01 392.73L404.03 392.5L404.05 392.28L404.07 392.05L404.09 391.82L404.11 391.59L404.13 391.36L404.15 391.14L404.18 390.91L404.2 390.68L404.22 390.45L404.25 390.22L404.27 389.99L404.29 389.77L404.32 389.54L404.34 389.31L404.37 389.08L404.39 388.85L404.42 388.62L404.45 388.39L404.47 388.17L404.5 387.94L404.53 387.71L404.55 387.48L404.58 387.25L404.61 387.02L404.64 386.79L404.67 386.57L404.7 386.34L107.28 386.34L107.31 386.57L107.34 386.8L107.37 387.03L107.4 387.26L107.43 387.5L107.46 387.73L107.48 387.96L107.51 388.19L107.54 388.42L107.56 388.65L107.59 388.88L107.62 389.11L107.64 389.35L107.67 389.58L107.69 389.81L107.72 390.04L107.74 390.27L107.77 390.5L107.79 390.73L107.81 390.96L107.84 391.2L107.86 391.43L107.88 391.66L107.9 391.89L107.93 392.12L107.95 392.35L107.97 392.58L107.99 392.81L108.01 393.04L108.03 393.27L108.05 393.5L108.07 393.73L108.09 393.96L108.1 394.2L108.12 394.43L108.14 394.66L108.16 394.89L108.17 395.12L108.19 395.35L108.21 395.58L112.02 395.58L112.54 395.59L113.06 395.62L113.57 395.67L114.08 395.74L114.58 395.83L115.07 395.95L115.56 396.08L116.04 396.22L116.51 396.39L116.97 396.58L117.42 396.78L117.86 397L118.29 397.23L118.71 397.48L119.13 397.75L119.53 398.03L119.92 398.33L120.29 398.64L120.66 398.96L121.01 399.3L121.35 399.65L121.67 400.01L121.98 400.39L122.28 400.78L122.56 401.18L122.83 401.59L123.08 402.01L123.32 402.44L123.54 402.88L123.74 403.34L123.92 403.8L124.09 404.26L124.24 404.74L124.37 405.22L124.48 405.72L124.57 406.22L124.65 406.72L124.7 407.23L124.73 407.75L124.74 408.27L124.74 446.48L124.73 447L124.7 447.51L124.65 448.01L124.58 448.51L124.48 449L124.38 449.49L124.25 449.97L124.1 450.44L123.94 450.9L123.75 451.35L123.56 451.8L123.34 452.23L123.11 452.66L122.86 453.08L122.6 453.48L122.32 453.87L122.03 454.26L121.72 454.63L121.4 454.99L121.07 455.33L120.72 455.67L120.36 455.99L119.99 456.3L119.61 456.59L119.21 456.87L118.81 457.13L118.39 457.38L117.97 457.61L117.53 457.82L117.09 458.02L116.63 458.2L116.17 458.37L115.7 458.52L115.22 458.64L114.74 458.75L114.24 458.84L113.75 458.92L113.24 458.97L112.73 459L112.22 459.01L23.44 459.01L22.93 459L22.42 458.97L21.91 458.92L21.41 458.84L20.92 458.75L20.44 458.64L19.96 458.52L19.49 458.37L19.03 458.2L18.57 458.02L18.13 457.82L17.69 457.61L17.27 457.38L16.85 457.13L16.45 456.87L16.05 456.59L15.67 456.3L15.3 455.99L14.94 455.67L14.59 455.33L14.26 454.99L13.94 454.63L13.63 454.26L13.34 453.87L13.06 453.48L12.8 453.08L12.55 452.66L12.32 452.23L12.1 451.8L11.9 451.35L11.72 450.9L11.56 450.44L11.41 449.97L11.28 449.49L11.17 449L11.08 448.51L11.01 448.01L10.96 447.51L10.93 447L10.92 446.48L10.92 408.1L10.92 407.8L10.93 407.49L10.95 407.19L10.98 406.89L11.01 406.59L11.05 406.3L11.1 406L11.15 405.71L11.21 405.42L11.27 405.14L11.35 404.86L11.43 404.57L11.51 404.3L11.6 404.02L11.7 403.75L11.81 403.48L11.92 403.21L12.03 402.95L12.16 402.69L12.28 402.43L12.42 402.18L12.56 401.93L12.7 401.68L12.85 401.44L13.01 401.2L13.17 400.96L13.34 400.73L13.51 400.5L13.68 400.28L13.86 400.06L14.05 399.85L14.24 399.63L14.44 399.43L14.64 399.22L14.84 399.03L15.05 398.83L15.26 398.64L15.48 398.46L15.7 398.28L15.93 398.11L14.48 394.01L13.1 389.95L11.79 385.93L10.54 381.95L9.37 378.02L8.27 374.12L7.23 370.27L6.27 366.46L5.37 362.68L4.54 358.95L3.78 355.26L3.09 351.6L2.47 347.99L1.92 344.41L1.44 340.87L1.02 337.37L0.68 333.91L0.4 330.49L0.2 327.11L0.06 323.76L-0.01 320.45L-0.01 317.18L0.06 313.95L0.2 310.75L0.41 307.59L0.69 304.47L1.03 301.38L1.45 298.33L1.93 295.31L2.48 292.33L3.1 289.39L3.79 286.48L4.55 283.61L5.38 280.77L6.28 277.96L7.24 275.19L8.28 272.46L9.38 269.75L10.55 267.09L11.79 264.45L13.15 261.69L14.5 259.04L15.83 256.48L17.15 254.02L18.45 251.65L19.74 249.38L21.01 247.2L22.27 245.11L23.52 243.11L24.75 241.2L25.96 239.37L27.16 237.62L28.34 235.96L29.51 234.37L30.66 232.86L31.8 231.42L32.92 230.06L34.02 228.78L35.1 227.56L36.17 226.41L37.22 225.32L38.25 224.3L39.26 223.35L40.26 222.45L41.24 221.62L42.2 220.84L43.14 220.12L44.06 219.45L44.96 218.83L45.84 218.26L46.71 217.74L47.55 217.27L48.37 216.84L49.18 216.46L49.96 216.12L50.72 215.81L51.46 215.54L52.18 215.31L52.88 215.11L53.56 214.95L53.56 83.5L53.57 82.77L53.62 82.05L53.69 81.33L53.8 80.63L53.93 79.93L54.1 79.24L54.29 78.56L54.5 77.9L54.75 77.24L55.02 76.59L55.32 75.96L55.64 75.34L55.98 74.73L56.35 74.13L56.74 73.55L57.16 72.98L57.6 72.43L58.06 71.9L58.54 71.37L59.04 70.87L59.56 70.38L60.1 69.91L60.67 69.46L61.24 69.03L61.84 68.61L62.46 68.22L63.09 67.84L63.73 67.49L64.4 67.16L65.08 66.84L65.77 66.55L66.48 66.29L67.2 66.04L67.93 65.82L68.68 65.62L69.44 65.45L70.21 65.3L70.99 65.18L71.78 65.09L72.58 65.02L77.11 63.85L81.61 62.73L86.09 61.68L90.55 60.69L94.98 59.76L99.39 58.89L103.78 58.08L108.14 57.33L112.48 56.64L116.8 56L121.09 55.43L125.37 54.92L129.62 54.47L133.85 54.08L138.06 53.75L142.25 53.48L146.43 53.27L150.58 53.11L154.71 53.02L158.82 52.99L162.91 53.02L166.98 53.11ZM27.82 410.69L27.79 410.69L27.78 410.7L27.76 410.7L27.73 410.7L27.71 410.7L27.69 410.7L27.67 410.7L27.65 410.7L27.64 410.7L27.62 410.7L27.61 410.7L27.58 410.71L27.55 410.71L27.51 410.72L27.47 410.73L27.43 410.74L27.39 410.75L27.35 410.75L27.31 410.76L27.27 410.77L27.24 410.78L27.2 410.78L27.16 410.79L27.12 410.8L27.08 410.8L27.04 410.81L27 410.81L26.97 410.82L26.93 410.82L26.89 410.83L26.85 410.83L26.81 410.84L26.77 410.84L26.73 410.85L26.69 410.85L26.66 410.85L26.62 410.86L26.58 410.86L26.54 410.86L26.5 410.87L26.46 410.87L26.43 410.87L26.39 410.87L26.35 410.88L26.31 410.88L26.27 410.88L26.23 410.88L26.19 410.88L26.16 410.89L26.12 410.89L26.08 410.89L26.04 410.89L26.04 443.89L109.63 443.89L109.63 410.69L27.88 410.69L27.85 410.69L27.82 410.69ZM402.37 443.78L485.96 443.78L485.96 410.77L485.92 410.77L485.88 410.77L485.84 410.77L485.81 410.77L485.77 410.77L485.73 410.77L485.69 410.76L485.65 410.76L485.61 410.76L485.57 410.76L485.53 410.75L485.49 410.75L485.46 410.75L485.42 410.75L485.38 410.74L485.34 410.74L485.3 410.74L485.26 410.73L485.22 410.73L485.18 410.72L485.14 410.72L485.1 410.71L485.06 410.71L485.03 410.7L484.99 410.7L484.95 410.69L484.91 410.69L484.87 410.68L484.83 410.67L484.79 410.67L484.75 410.66L484.71 410.65L484.67 410.65L484.64 410.64L484.6 410.63L484.56 410.62L484.52 410.61L484.48 410.61L484.44 410.6L484.4 410.59L484.4 410.59L484.39 410.59L484.35 410.59L484.32 410.59L484.3 410.58L484.28 410.58L484.26 410.58L484.22 410.58L484.21 410.58L484.2 410.58L484.18 410.58L484.15 410.58L484.12 410.58L402.37 410.58L402.37 443.78ZM52.7 231.81L52.24 232.15L51.77 232.51L51.28 232.91L50.78 233.34L50.25 233.8L49.72 234.29L49.16 234.81L48.59 235.36L48.01 235.95L47.41 236.57L46.79 237.23L46.16 237.92L45.52 238.65L44.86 239.42L44.18 240.23L43.5 241.07L42.8 241.96L42.09 242.89L41.36 243.85L40.62 244.86L39.87 245.91L39.1 247.01L38.33 248.15L37.54 249.33L36.74 250.56L35.93 251.84L35.11 253.16L34.27 254.53L33.43 255.96L32.58 257.43L31.71 258.95L30.84 260.52L29.95 262.14L29.06 263.82L28.15 265.55L27.24 267.33L26.32 269.17L25.39 271.06L24.27 273.45L23.21 275.87L22.22 278.33L21.29 280.82L20.43 283.34L19.63 285.91L18.9 288.5L18.23 291.14L17.62 293.81L17.08 296.51L16.61 299.26L16.2 302.03L15.86 304.85L15.58 307.7L15.36 310.59L15.21 313.52L15.12 316.49L15.1 319.49L15.15 322.53L15.26 325.61L15.43 328.73L15.67 331.89L15.97 335.08L16.34 338.32L16.78 341.59L17.28 344.91L17.84 348.26L18.47 351.65L19.16 355.09L19.92 358.56L20.74 362.08L21.63 365.63L22.59 369.23L23.61 372.87L24.69 376.55L25.84 380.27L27.05 384.03L28.33 387.84L29.68 391.69L31.09 395.58L93.06 395.58L92.97 394.47L92.87 393.37L92.77 392.26L92.65 391.16L92.53 390.05L92.4 388.95L92.26 387.84L92.11 386.74L91.95 385.63L91.79 384.53L91.61 383.43L91.43 382.33L91.24 381.24L91.05 380.15L90.84 379.06L90.63 377.97L90.41 376.89L90.18 375.82L89.95 374.74L89.71 373.68L89.46 372.62L89.2 371.56L88.94 370.51L88.66 369.47L88.39 368.43L88.1 367.4L87.81 366.38L87.51 365.36L87.2 364.36L86.89 363.36L86.57 362.37L86.24 361.39L85.91 360.42L85.57 359.46L85.22 358.51L84.87 357.57L84.51 356.64L84.15 355.73L83.78 354.82L83.4 353.93L83.35 353.81L83.3 353.7L83.26 353.59L83.21 353.47L83.16 353.36L83.11 353.25L83.07 353.14L83.02 353.03L82.98 352.92L82.93 352.81L82.89 352.7L82.84 352.59L82.8 352.48L82.75 352.37L82.71 352.27L82.67 352.16L82.63 352.05L82.58 351.94L82.54 351.84L82.5 351.73L82.46 351.63L82.42 351.52L82.38 351.42L82.34 351.32L82.3 351.21L82.26 351.11L82.22 351.01L82.18 350.9L82.15 350.8L82.11 350.7L82.07 350.6L82.03 350.5L82 350.4L81.96 350.3L81.93 350.2L81.89 350.1L81.86 350L81.82 349.9L81.79 349.81L81.75 349.71L81.74 349.68L81.73 349.65L81.71 349.62L81.7 349.59L81.69 349.56L81.67 349.54L81.66 349.51L81.65 349.48L81.64 349.45L81.62 349.42L81.61 349.39L81.6 349.36L81.59 349.33L81.57 349.3L81.56 349.27L81.55 349.24L81.54 349.21L81.53 349.18L81.51 349.15L81.5 349.12L81.49 349.09L81.48 349.06L81.47 349.03L81.46 349L81.45 348.97L81.43 348.94L81.42 348.91L81.41 348.88L81.4 348.85L81.39 348.82L81.38 348.79L81.37 348.76L81.36 348.73L81.35 348.7L81.34 348.67L81.33 348.64L81.32 348.61L81.31 348.57L81.31 348.54L81.3 348.51L81.29 348.49L81.29 348.47L81.28 348.45L81.27 348.43L81.27 348.41L81.26 348.39L81.26 348.37L81.25 348.35L81.25 348.33L81.24 348.31L81.24 348.29L81.23 348.27L81.23 348.25L81.22 348.23L81.22 348.2L81.21 348.18L81.21 348.16L81.2 348.14L81.2 348.12L81.19 348.1L81.19 348.08L81.18 348.06L81.18 348.04L81.18 348.02L81.17 348L81.17 347.98L81.16 347.96L81.16 347.94L81.16 347.92L81.15 347.9L81.15 347.88L81.14 347.86L81.14 347.84L81.14 347.81L81.13 347.79L81.13 347.77L81.13 347.75L81.12 347.73L81.12 347.71L81.12 347.69L80.95 347.07L80.8 346.47L80.67 345.88L80.56 345.3L80.46 344.74L80.39 344.19L80.33 343.66L80.3 343.13L80.28 342.62L80.28 342.12L80.3 341.63L80.34 341.15L80.4 340.68L80.47 340.21L80.57 339.76L80.68 339.31L80.81 338.86L80.97 338.43L81.14 337.99L81.33 337.57L81.54 337.14L81.76 336.72L82.01 336.3L82.28 335.88L82.56 335.47L82.86 335.05L83.18 334.64L83.53 334.22L83.89 333.81L84.26 333.39L84.66 332.97L85.08 332.54L85.51 332.11L85.97 331.68L86.44 331.24L86.93 330.8L87.45 330.35L87.98 329.89L88.53 329.43L89.09 328.96L89.77 328.4L90.43 327.84L91.09 327.27L91.75 326.7L92.4 326.12L93.04 325.54L93.67 324.95L94.29 324.35L94.9 323.75L95.5 323.14L96.09 322.53L96.66 321.91L97.23 321.28L97.77 320.65L98.3 320L98.82 319.35L99.31 318.7L99.79 318.03L100.25 317.35L100.69 316.67L101.11 315.98L101.5 315.27L101.88 314.56L102.23 313.84L102.55 313.11L102.86 312.37L103.13 311.62L103.38 310.85L103.6 310.08L103.79 309.29L103.96 308.5L104.09 307.69L104.19 306.87L104.26 306.04L104.29 305.19L104.3 304.34L104.27 303.47L104.2 302.58L104.09 301.69L103.95 300.78L103.9 300.46L103.83 300.14L103.77 299.83L103.69 299.52L103.62 299.22L103.53 298.92L103.45 298.62L103.36 298.33L103.26 298.04L103.16 297.76L103.06 297.48L102.95 297.2L102.84 296.93L102.72 296.67L102.6 296.41L102.48 296.15L102.35 295.9L102.22 295.66L102.09 295.42L101.95 295.19L101.81 294.96L101.67 294.74L101.52 294.53L101.37 294.32L101.21 294.12L101.06 293.93L100.9 293.74L100.74 293.56L100.57 293.38L100.41 293.22L100.24 293.06L100.07 292.91L99.89 292.76L99.71 292.63L99.54 292.5L99.36 292.38L99.17 292.27L98.99 292.17L98.8 292.07L98.62 291.99L98.43 291.91L98.24 291.84L98.04 291.78L97.85 291.73L97.65 291.69L97.45 291.66L97.25 291.63L97.05 291.62L96.85 291.61L96.65 291.6L96.45 291.61L96.25 291.62L96.04 291.64L95.84 291.66L95.64 291.69L95.43 291.73L95.23 291.77L95.03 291.82L94.83 291.87L94.62 291.93L94.42 291.99L94.22 292.06L94.02 292.13L93.83 292.2L93.63 292.28L93.44 292.36L93.24 292.45L93.05 292.53L92.86 292.62L92.67 292.72L92.49 292.81L92.3 292.91L92.12 293.01L91.95 293.11L91.77 293.21L91.6 293.31L91.43 293.42L91.26 293.52L91.1 293.63L90.94 293.73L77.48 302.62L77.2 302.81L76.91 302.99L76.61 303.19L76.3 303.4L75.97 303.61L75.63 303.82L75.28 304.04L74.92 304.26L74.54 304.48L74.16 304.7L73.76 304.92L73.36 305.14L72.95 305.35L72.52 305.57L72.09 305.77L71.66 305.98L71.21 306.17L70.76 306.36L70.3 306.53L69.84 306.7L69.36 306.86L68.89 307L68.41 307.14L67.92 307.25L67.44 307.36L66.94 307.44L66.45 307.51L65.95 307.56L65.45 307.59L64.95 307.6L64.45 307.59L63.95 307.56L63.45 307.51L62.94 307.43L62.44 307.32L61.94 307.19L61.44 307.03L60.94 306.84L60.45 306.62L59.96 306.37L59.49 306.11L59.04 305.82L58.62 305.53L58.21 305.21L57.83 304.89L57.48 304.54L57.14 304.19L56.82 303.82L56.52 303.43L56.24 303.04L55.98 302.62L55.73 302.2L55.51 301.76L55.3 301.31L55.1 300.85L54.92 300.37L54.75 299.88L54.6 299.38L54.46 298.87L54.34 298.34L54.22 297.81L54.12 297.26L54.03 296.7L53.95 296.13L53.88 295.55L53.82 294.96L53.76 294.36L53.72 293.75L53.68 293.13L53.64 292.5L53.62 291.86L53.6 291.21L53.58 290.55L53.57 289.88L53.56 289.21L53.56 288.52L53.56 287.83L53.56 287.12L53.56 286.41L53.56 285.7L53.56 231.21L53.14 231.5L52.7 231.81ZM458.44 285.6L458.44 285.62L458.44 285.63L458.44 285.68L458.44 285.69L458.44 285.7L458.44 285.72L458.44 288.84L458.44 289.31L458.43 289.79L458.43 290.28L458.42 290.77L458.41 291.26L458.4 291.76L458.38 292.25L458.36 292.75L458.33 293.25L458.3 293.75L458.27 294.25L458.22 294.75L458.17 295.25L458.12 295.75L458.05 296.24L457.97 296.74L457.89 297.23L457.8 297.71L457.69 298.19L457.57 298.67L457.45 299.14L457.31 299.6L457.15 300.06L456.98 300.51L456.8 300.95L456.61 301.39L456.4 301.81L456.17 302.23L455.93 302.63L455.66 303.03L455.39 303.41L455.09 303.79L454.77 304.15L454.44 304.5L454.08 304.83L453.71 305.15L453.31 305.46L452.89 305.75L452.45 306.03L451.99 306.29L451.49 306.54L451 306.75L450.5 306.94L450.01 307.09L449.51 307.22L449 307.32L448.5 307.4L448 307.46L447.5 307.49L447 307.49L446.5 307.48L446 307.45L445.51 307.4L445.01 307.33L444.52 307.24L444.04 307.14L443.55 307.02L443.07 306.88L442.6 306.74L442.13 306.58L441.67 306.41L441.21 306.24L440.76 306.05L440.32 305.85L439.88 305.65L439.45 305.44L439.03 305.23L438.62 305.02L438.22 304.8L437.82 304.58L437.44 304.36L437.07 304.13L436.7 303.91L436.35 303.7L436.02 303.48L435.69 303.27L435.37 303.07L435.07 302.87L434.79 302.68L434.51 302.5L430.29 299.71L421.07 293.62L420.95 293.54L420.82 293.47L420.7 293.39L420.57 293.31L420.45 293.23L420.32 293.15L420.19 293.08L420.06 293L419.92 292.92L419.79 292.85L419.65 292.77L419.51 292.7L419.37 292.63L419.23 292.56L419.09 292.49L418.95 292.42L418.8 292.35L418.66 292.29L418.51 292.23L418.37 292.17L418.22 292.11L418.07 292.05L417.92 291.99L417.77 291.94L417.62 291.89L417.47 291.84L417.32 291.8L417.17 291.76L417.02 291.72L416.87 291.68L416.71 291.65L416.56 291.61L416.41 291.59L416.25 291.56L416.1 291.54L415.95 291.52L415.8 291.51L415.64 291.5L415.49 291.49L415.34 291.49L415.29 291.49L415.24 291.49L415.19 291.49L415.14 291.49L415.09 291.49L415.04 291.5L414.99 291.5L414.94 291.5L414.89 291.51L414.84 291.51L414.79 291.52L414.74 291.52L414.69 291.53L414.64 291.53L414.59 291.54L414.54 291.55L414.49 291.55L414.44 291.56L414.39 291.57L414.34 291.58L414.29 291.59L414.24 291.6L414.19 291.61L414.14 291.62L414.09 291.63L414.04 291.65L413.99 291.66L413.94 291.67L413.9 291.68L413.85 291.7L413.8 291.71L413.75 291.73L413.7 291.75L413.65 291.76L413.61 291.78L413.56 291.8L413.51 291.82L413.46 291.83L413.41 291.85L413.37 291.87L413.18 291.96L413 292.05L412.81 292.16L412.63 292.27L412.45 292.39L412.27 292.51L412.1 292.65L411.93 292.79L411.76 292.95L411.59 293.1L411.42 293.27L411.26 293.44L411.1 293.62L410.94 293.81L410.78 294.01L410.63 294.21L410.48 294.41L410.33 294.63L410.19 294.85L410.05 295.07L409.91 295.31L409.78 295.54L409.64 295.79L409.52 296.04L409.39 296.29L409.28 296.55L409.16 296.82L409.05 297.09L408.94 297.36L408.84 297.64L408.74 297.92L408.64 298.21L408.55 298.5L408.47 298.8L408.38 299.1L408.31 299.4L408.23 299.71L408.17 300.02L408.1 300.34L408.05 300.65L407.91 301.57L407.8 302.46L407.74 303.35L407.7 304.22L407.71 305.07L407.74 305.92L407.81 306.75L407.91 307.57L408.05 308.38L408.21 309.18L408.4 309.96L408.62 310.74L408.87 311.5L409.15 312.25L409.45 312.99L409.77 313.73L410.12 314.45L410.5 315.16L410.89 315.86L411.31 316.56L411.75 317.24L412.21 317.92L412.69 318.58L413.19 319.24L413.7 319.89L414.23 320.53L414.78 321.17L415.34 321.8L415.91 322.42L416.5 323.03L417.1 323.64L417.71 324.24L418.33 324.83L418.97 325.42L419.61 326.01L420.25 326.58L420.91 327.16L421.57 327.72L422.24 328.29L422.91 328.84L422.93 328.86L423.18 329.07L423.42 329.27L423.66 329.47L423.91 329.67L424.15 329.88L424.39 330.08L424.63 330.28L424.87 330.49L425.1 330.69L425.34 330.9L425.57 331.1L425.8 331.31L426.03 331.52L426.26 331.72L426.48 331.93L426.7 332.14L426.92 332.36L427.13 332.57L427.35 332.79L427.56 333L427.76 333.22L427.96 333.44L428.16 333.67L428.36 333.89L428.55 334.12L428.74 334.35L428.92 334.58L429.1 334.81L429.27 335.05L429.44 335.29L429.61 335.53L429.77 335.78L429.92 336.03L430.07 336.28L430.21 336.53L430.35 336.79L430.49 337.06L430.61 337.32L430.73 337.59L430.85 337.86L430.86 337.88L430.86 337.9L430.87 337.91L430.87 337.93L430.88 337.94L430.89 337.96L430.89 337.97L430.9 337.99L430.91 338.01L430.92 338.04L430.92 338.06L430.93 338.07L430.94 338.09L430.95 338.12L430.95 338.14L430.97 338.17L430.97 338.18L430.98 338.22L430.99 338.23L431 338.27L431.01 338.3L431.03 338.35L431.05 338.39L431.06 338.43L431.06 338.44L431.07 338.46L431.08 338.49L431.09 338.51L431.09 338.52L431.1 338.53L431.1 338.56L431.12 338.6L431.12 338.62L431.13 338.64L431.14 338.66L431.17 338.75L431.18 338.78L431.19 338.82L431.19 338.83L431.2 338.85L431.21 338.88L431.21 338.89L431.22 338.91L431.23 338.93L431.23 338.94L431.24 338.97L431.25 339L431.25 339.02L431.26 339.05L431.27 339.07L431.27 339.09L431.28 339.11L431.29 339.13L431.29 339.15L431.3 339.18L431.3 339.2L431.31 339.22L431.32 339.24L431.32 339.26L431.33 339.29L431.33 339.31L431.34 339.33L431.35 339.35L431.35 339.37L431.36 339.4L431.36 339.42L431.37 339.44L431.37 339.46L431.38 339.48L431.38 339.51L431.39 339.53L431.39 339.55L431.4 339.57L431.4 339.6L431.41 339.62L431.41 339.64L431.42 339.66L431.42 339.68L431.43 339.71L431.43 339.73L431.44 339.75L431.44 339.77L431.45 339.8L431.45 339.82L431.46 339.84L431.46 339.86L431.47 339.88L431.47 339.91L431.47 339.92L431.48 339.94L431.48 339.97L431.49 339.99L431.49 340.02L431.5 340.06L431.51 340.09L431.52 340.13L431.52 340.16L431.53 340.18L431.53 340.19L431.53 340.22L431.54 340.24L431.54 340.26L431.54 340.27L431.55 340.29L431.55 340.31L431.55 340.32L431.56 340.35L431.56 340.36L431.56 340.38L431.57 340.41L431.57 340.43L431.58 340.46L431.58 340.5L431.59 340.53L431.59 340.55L431.59 340.57L431.6 340.6L431.6 340.62L431.6 340.64L431.61 340.67L431.61 340.69L431.61 340.73L431.61 340.74L431.62 340.78L431.62 340.81L431.63 340.83L431.63 340.87L431.63 340.9L431.64 340.92L431.64 340.96L431.64 340.99L431.65 341.03L431.65 341.06L431.66 341.1L431.66 341.12L431.66 341.14L431.66 341.17L431.67 341.2L431.67 341.23L431.67 341.25L431.67 341.28L431.68 341.31L431.68 341.34L431.68 341.36L431.68 341.39L431.69 341.42L431.69 341.45L431.69 341.48L431.69 341.5L431.69 341.53L431.7 341.56L431.7 341.59L431.7 341.61L431.7 341.64L431.7 341.67L431.71 341.7L431.71 341.73L431.71 341.76L431.71 341.78L431.71 341.81L431.71 341.84L431.71 341.87L431.72 341.9L431.72 341.93L431.72 341.95L431.72 341.98L431.72 342.01L431.72 342.04L431.72 342.07L431.72 342.1L431.72 342.13L431.73 342.16L431.73 342.18L431.73 342.21L431.73 342.24L431.73 342.27L431.73 342.4L431.73 342.54L431.73 342.67L431.73 342.8L431.73 342.94L431.72 343.07L431.72 343.21L431.71 343.35L431.7 343.49L431.69 343.63L431.68 343.77L431.67 343.91L431.66 344.05L431.65 344.19L431.63 344.34L431.61 344.48L431.59 344.63L431.58 344.77L431.55 344.92L431.53 345.07L431.51 345.22L431.48 345.37L431.46 345.52L431.43 345.67L431.4 345.83L431.37 345.98L431.34 346.13L431.3 346.29L431.27 346.45L431.23 346.61L431.19 346.76L431.15 346.92L431.11 347.09L431.07 347.25L431.02 347.41L430.98 347.58L430.93 347.74L430.88 347.91L430.83 348.07L430.77 348.24L430.77 348.27L430.76 348.29L430.75 348.32L430.74 348.34L430.73 348.37L430.73 348.39L430.72 348.42L430.71 348.44L430.7 348.47L430.69 348.49L430.68 348.52L430.67 348.54L430.66 348.56L430.65 348.59L430.64 348.61L430.64 348.64L430.63 348.66L430.62 348.69L430.61 348.71L430.6 348.73L430.59 348.76L430.58 348.78L430.57 348.81L430.56 348.83L430.55 348.85L430.54 348.88L430.53 348.9L430.52 348.92L430.51 348.95L430.5 348.97L430.49 348.99L430.47 349.02L430.46 349.04L430.45 349.06L430.44 349.09L430.43 349.11L430.42 349.13L430.41 349.16L430.4 349.18L430.39 349.2L430.35 349.31L430.32 349.42L430.28 349.52L430.24 349.63L430.2 349.74L430.17 349.85L430.13 349.96L430.09 350.07L430.05 350.18L430.01 350.29L429.97 350.4L429.93 350.51L429.89 350.62L429.85 350.74L429.81 350.85L429.76 350.96L429.72 351.08L429.68 351.19L429.63 351.31L429.59 351.42L429.54 351.54L429.5 351.66L429.45 351.77L429.41 351.89L429.36 352.01L429.31 352.13L429.26 352.25L429.22 352.37L429.17 352.49L429.12 352.61L429.07 352.73L429.02 352.85L428.97 352.97L428.92 353.1L428.86 353.22L428.81 353.35L428.76 353.47L428.71 353.6L428.65 353.72L428.6 353.85L428.22 354.74L427.85 355.64L427.49 356.56L427.13 357.49L426.78 358.42L426.43 359.37L426.09 360.33L425.76 361.3L425.43 362.28L425.11 363.27L424.8 364.26L424.49 365.27L424.19 366.28L423.9 367.3L423.62 368.33L423.34 369.37L423.07 370.41L422.8 371.46L422.55 372.51L422.3 373.57L422.05 374.64L421.82 375.71L421.59 376.78L421.37 377.86L421.16 378.95L420.96 380.04L420.76 381.13L420.57 382.22L420.39 383.32L420.22 384.42L420.05 385.52L419.9 386.62L419.75 387.73L419.61 388.83L419.48 389.94L419.35 391.04L419.24 392.15L419.13 393.26L419.03 394.36L418.95 395.46L480.92 395.46L482.33 391.57L483.67 387.73L484.95 383.93L486.16 380.16L487.31 376.44L488.39 372.77L489.41 369.13L490.37 365.53L491.25 361.98L492.08 358.46L492.84 354.99L493.53 351.56L494.16 348.16L494.72 344.81L495.22 341.5L495.65 338.22L496.02 334.99L496.33 331.79L496.56 328.63L496.74 325.52L496.85 322.44L496.89 319.39L496.87 316.39L496.79 313.43L496.64 310.5L496.42 307.61L496.14 304.75L495.8 301.94L495.39 299.16L494.91 296.41L494.37 293.71L493.77 291.04L493.1 288.4L492.37 285.8L491.57 283.24L490.71 280.71L489.78 278.22L488.79 275.76L487.73 273.34L486.61 270.95L485.68 269.06L484.76 267.23L483.85 265.45L482.95 263.72L482.06 262.05L481.17 260.43L480.3 258.86L479.43 257.35L478.58 255.88L477.74 254.46L476.91 253.09L476.08 251.77L475.27 250.5L474.47 249.27L473.69 248.09L472.91 246.96L472.15 245.87L471.39 244.82L470.65 243.81L469.93 242.85L469.21 241.93L468.51 241.04L467.83 240.2L467.15 239.4L466.5 238.64L465.85 237.91L465.22 237.22L464.6 236.56L464 235.94L463.42 235.36L462.85 234.81L462.29 234.29L461.75 233.8L461.23 233.35L460.72 232.92L460.23 232.53L459.76 232.17L459.3 231.83L458.86 231.52L458.44 231.24L458.44 285.58L458.44 285.6ZM243.79 371.22L268.21 371.22L268.21 358.63L243.79 358.74L243.79 371.22ZM151.83 344.35L148.55 344.45L145.27 344.59L141.98 344.79L138.68 345.03L135.38 345.32L132.07 345.65L128.76 346.03L125.45 346.46L122.13 346.94L118.8 347.46L115.47 348.04L112.14 348.65L108.8 349.32L105.46 350.03L102.11 350.79L98.76 351.6L98.94 352.05L99.11 352.51L99.28 352.97L99.45 353.43L99.62 353.89L99.79 354.36L99.95 354.83L100.12 355.3L100.28 355.77L100.44 356.24L100.6 356.72L100.76 357.2L100.92 357.68L101.08 358.16L101.23 358.64L101.39 359.13L101.54 359.61L101.69 360.1L101.84 360.59L101.99 361.08L102.13 361.58L102.28 362.07L102.42 362.57L102.56 363.07L102.7 363.57L102.84 364.07L102.98 364.57L103.12 365.07L103.25 365.58L103.38 366.09L103.52 366.59L103.65 367.1L103.77 367.62L103.9 368.13L104.03 368.64L104.15 369.15L104.27 369.67L104.39 370.19L104.51 370.71L104.63 371.22L228.68 371.22L228.68 356.11L225.55 355.08L222.42 354.09L219.29 353.16L216.14 352.26L212.99 351.42L209.83 350.62L206.66 349.88L203.49 349.17L200.31 348.52L197.12 347.91L193.93 347.35L190.73 346.84L187.52 346.37L184.31 345.95L181.09 345.58L177.86 345.25L174.63 344.97L171.39 344.74L168.14 344.56L164.89 344.42L161.63 344.33L158.37 344.29L155.1 344.3L151.83 344.35ZM346.81 343.1L343.58 343.26L340.35 343.47L337.13 343.73L333.91 344.04L330.71 344.41L327.51 344.83L324.31 345.3L321.13 345.82L317.95 346.4L314.77 347.03L311.6 347.71L308.44 348.44L305.28 349.23L302.13 350.07L298.99 350.96L295.85 351.9L292.71 352.9L289.58 353.95L286.45 355.05L283.33 356.2L283.33 371.22L407.35 371.22L407.47 370.69L407.6 370.15L407.72 369.62L407.85 369.08L407.97 368.55L408.1 368.02L408.24 367.49L408.37 366.96L408.5 366.43L408.64 365.91L408.78 365.38L408.92 364.86L409.06 364.34L409.2 363.82L409.34 363.3L409.49 362.78L409.64 362.27L409.78 361.75L409.94 361.24L410.09 360.73L410.24 360.22L410.4 359.72L410.55 359.21L410.71 358.71L410.87 358.21L411.03 357.71L411.19 357.21L411.36 356.72L411.53 356.23L411.69 355.74L411.86 355.25L412.03 354.76L412.2 354.28L412.38 353.8L412.55 353.32L412.73 352.84L412.91 352.37L413.09 351.89L413.27 351.42L413.45 350.96L410.02 350.07L406.6 349.23L403.19 348.44L399.8 347.71L396.41 347.03L393.04 346.4L389.67 345.83L386.32 345.3L382.98 344.83L379.64 344.41L376.32 344.04L373 343.73L369.7 343.47L366.4 343.26L363.12 343.1L359.84 343L356.57 342.94L353.31 342.94L350.06 342.99L346.81 343.1ZM152.02 68.21L148.19 68.34L144.33 68.52L140.46 68.75L136.57 69.04L132.66 69.38L128.73 69.77L124.77 70.22L120.8 70.72L116.81 71.28L112.8 71.89L108.76 72.56L104.71 73.28L100.63 74.05L96.53 74.88L92.41 75.76L88.27 76.7L84.1 77.69L79.91 78.73L75.7 79.83L75.66 79.84L75.62 79.85L75.58 79.86L75.53 79.87L75.49 79.88L75.45 79.89L75.41 79.9L75.36 79.91L75.32 79.92L75.28 79.93L75.23 79.94L75.19 79.95L75.15 79.96L75.11 79.96L75.06 79.97L75.02 79.98L74.98 79.99L74.93 79.99L74.89 80L74.85 80.01L74.8 80.01L74.76 80.02L74.72 80.02L74.67 80.03L74.63 80.03L74.59 80.04L74.54 80.04L74.5 80.05L74.45 80.05L74.41 80.06L74.37 80.06L74.32 80.06L74.28 80.07L74.24 80.07L74.19 80.07L74.15 80.07L74.1 80.08L74.06 80.08L74.02 80.08L73.97 80.08L73.74 80.09L73.51 80.11L73.29 80.13L73.07 80.16L72.85 80.19L72.64 80.23L72.43 80.27L72.22 80.32L72.02 80.38L71.83 80.44L71.64 80.5L71.45 80.57L71.27 80.64L71.1 80.71L70.92 80.79L70.76 80.88L70.6 80.97L70.44 81.06L70.3 81.15L70.15 81.25L70.02 81.34L69.88 81.45L69.76 81.55L69.64 81.66L69.53 81.76L69.42 81.87L69.32 81.99L69.23 82.1L69.14 82.21L69.06 82.33L68.99 82.44L68.93 82.56L68.87 82.68L68.82 82.8L68.77 82.91L68.74 83.03L68.71 83.15L68.69 83.27L68.68 83.39L68.68 83.5L68.68 224.1L68.68 224.11L68.67 224.14L68.67 224.15L68.67 224.18L68.67 224.2L68.67 224.22L68.67 224.23L68.67 224.25L68.67 224.28L68.67 224.3L68.67 224.33L68.67 224.35L68.66 224.38L68.66 224.4L68.66 224.44L68.66 224.47L68.65 224.53L68.65 224.57L68.65 224.61L68.65 224.66L68.66 224.77L68.66 224.81L68.66 224.84L68.66 224.87L68.67 224.9L68.67 224.92L68.67 224.95L68.67 224.98L68.67 225.01L68.67 225.04L68.67 225.07L68.67 225.08L68.67 225.11L68.67 225.13L68.67 225.14L68.67 225.17L68.68 225.19L68.68 225.2L68.67 281.63L68.67 285.84L68.67 286.06L68.67 286.17L68.67 286.4L68.67 286.51L68.67 286.62L68.67 286.74L68.67 286.85L68.67 286.97L68.67 287.08L68.67 287.2L68.67 287.31L68.67 287.43L68.67 287.54L68.67 287.66L68.67 287.78L68.67 287.89L68.67 288.01L68.67 288.13L68.67 288.24L68.67 288.36L68.67 288.47L68.68 288.59L68.68 288.71L68.68 288.82L68.68 288.94L68.68 289.05L68.68 289.17L68.68 289.28L68.68 289.4L68.68 289.51L68.68 289.63L68.69 289.74L68.69 289.85L68.69 289.97L68.69 290.08L68.69 290.19L68.69 290.3L68.72 290.29L68.77 290.26L68.81 290.23L68.87 290.19L68.91 290.16L68.95 290.14L69 290.11L69.02 290.09L69.06 290.06L69.11 290.03L69.13 290.02L82.6 281.12L83.16 280.76L83.71 280.42L84.27 280.09L84.83 279.77L85.39 279.47L85.95 279.18L86.51 278.91L87.07 278.65L87.63 278.41L88.2 278.18L88.76 277.96L89.32 277.76L89.89 277.58L90.45 277.41L91.01 277.25L91.57 277.11L92.14 276.98L92.7 276.87L93.26 276.77L93.82 276.68L94.38 276.61L94.93 276.56L95.49 276.52L96.05 276.49L96.6 276.48L97.15 276.49L97.7 276.51L98.25 276.54L98.79 276.59L99.33 276.65L99.88 276.73L100.41 276.83L100.95 276.93L101.48 277.06L102.01 277.2L102.54 277.35L103.06 277.52L103.58 277.7L104.1 277.9L104.61 278.11L105.15 278.36L105.69 278.62L106.22 278.89L106.74 279.18L107.25 279.49L107.75 279.81L108.25 280.15L108.73 280.5L109.21 280.87L109.68 281.25L110.14 281.64L110.59 282.05L111.03 282.48L111.46 282.91L111.89 283.36L112.3 283.82L112.7 284.3L113.1 284.78L113.48 285.28L113.85 285.79L114.21 286.32L114.56 286.85L114.9 287.4L115.23 287.95L115.55 288.52L115.85 289.1L116.15 289.69L116.43 290.29L116.7 290.9L116.96 291.52L117.21 292.15L117.44 292.78L117.66 293.43L117.87 294.09L118.07 294.75L118.25 295.42L118.42 296.1L118.58 296.79L118.72 297.49L118.85 298.19L119.05 299.45L119.2 300.68L119.32 301.9L119.39 303.1L119.43 304.28L119.43 305.45L119.39 306.59L119.32 307.72L119.21 308.83L119.07 309.93L118.9 311L118.7 312.06L118.47 313.1L118.21 314.12L117.93 315.12L117.62 316.11L117.28 317.08L116.92 318.03L116.54 318.96L116.14 319.88L115.72 320.78L115.28 321.66L114.82 322.52L114.35 323.37L113.86 324.2L113.36 325.01L112.84 325.8L112.32 326.58L111.78 327.34L111.24 328.08L110.68 328.8L110.12 329.51L109.56 330.2L108.99 330.87L108.42 331.53L107.84 332.16L107.27 332.79L106.69 333.39L106.12 333.98L105.55 334.55L108.71 333.91L111.87 333.31L115.03 332.76L118.18 332.24L121.33 331.77L124.48 331.33L127.62 330.93L130.75 330.58L133.89 330.26L137.02 329.98L140.14 329.74L143.26 329.55L146.38 329.39L149.49 329.27L152.6 329.19L155.7 329.16L158.8 329.16L161.9 329.2L164.99 329.28L168.07 329.4L171.15 329.57L174.23 329.77L177.3 330.01L180.36 330.29L183.43 330.61L186.48 330.97L189.53 331.37L192.58 331.81L195.61 332.29L198.65 332.81L201.68 333.37L204.7 333.97L207.72 334.61L210.73 335.29L213.73 336.01L216.73 336.77L219.73 337.57L222.72 338.41L225.7 339.29L228.67 340.2L228.67 229.12L228.68 228.81L228.7 228.51L228.73 228.2L228.77 227.9L228.83 227.6L228.89 227.31L228.97 227.02L229.06 226.74L229.16 226.46L229.27 226.18L229.39 225.92L229.52 225.65L229.66 225.4L229.81 225.14L229.96 224.9L230.13 224.66L230.31 224.43L230.49 224.21L230.69 223.99L230.89 223.78L231.1 223.58L231.31 223.39L231.54 223.2L231.77 223.03L232.01 222.86L232.25 222.7L232.5 222.55L232.76 222.41L233.02 222.28L233.29 222.16L233.57 222.05L233.85 221.95L234.13 221.86L234.42 221.79L234.71 221.72L235.01 221.67L235.31 221.62L235.62 221.59L235.92 221.57L236.24 221.57L236.55 221.57L236.86 221.59L237.16 221.62L237.46 221.67L237.76 221.72L238.05 221.79L238.34 221.86L238.62 221.95L238.9 222.05L239.18 222.16L239.45 222.28L239.71 222.41L239.97 222.55L240.22 222.7L240.46 222.86L240.7 223.02L240.93 223.2L241.15 223.39L241.37 223.58L241.58 223.78L241.78 223.99L241.97 224.21L242.16 224.43L242.34 224.66L242.5 224.9L242.66 225.14L242.81 225.39L242.95 225.65L243.08 225.91L243.2 226.18L243.31 226.46L243.41 226.74L243.5 227.02L243.57 227.31L243.64 227.6L243.7 227.9L243.74 228.2L243.77 228.5L243.79 228.81L243.79 229.12L243.79 343.62L268.21 343.52L268.21 80.08L243.79 80.08L243.79 194.67L243.78 194.98L243.77 195.29L243.73 195.59L243.69 195.89L243.64 196.19L243.57 196.48L243.49 196.77L243.41 197.05L243.31 197.33L243.2 197.61L243.08 197.88L242.95 198.14L242.81 198.4L242.66 198.65L242.5 198.89L242.33 199.13L242.16 199.36L241.97 199.58L241.78 199.8L241.58 200.01L241.37 200.21L241.15 200.41L240.93 200.59L240.7 200.77L240.46 200.93L240.21 201.09L239.96 201.24L239.71 201.38L239.44 201.51L239.17 201.63L238.9 201.74L238.62 201.84L238.34 201.93L238.05 202.01L237.76 202.07L237.46 202.13L237.16 202.17L236.85 202.2L236.54 202.22L236.23 202.23L235.92 202.22L235.61 202.2L235.31 202.17L235.01 202.13L234.71 202.07L234.42 202.01L234.13 201.93L233.84 201.84L233.56 201.74L233.29 201.63L233.02 201.51L232.76 201.38L232.5 201.24L232.25 201.09L232.01 200.93L231.77 200.77L231.54 200.59L231.31 200.41L231.1 200.21L230.89 200.01L230.69 199.8L230.49 199.59L230.31 199.36L230.13 199.13L229.96 198.89L229.81 198.65L229.66 198.4L229.52 198.14L229.39 197.88L229.27 197.61L229.16 197.34L229.06 197.06L228.97 196.77L228.89 196.48L228.83 196.19L228.77 195.89L228.73 195.59L228.7 195.29L228.68 194.98L228.67 194.67L228.67 78.1L225.17 77.09L221.66 76.13L218.14 75.23L214.6 74.38L211.04 73.58L207.47 72.84L203.89 72.16L200.29 71.52L196.68 70.94L193.05 70.42L189.4 69.95L185.74 69.53L182.06 69.17L178.37 68.86L174.66 68.6L170.93 68.4L167.18 68.26L163.42 68.16L159.64 68.13L155.84 68.14L152.02 68.21Z" id="bge0RiEkA"></path><linearGradient id="gradientb4ytw3Ihmt" gradientUnits="userSpaceOnUse" x1="256" y1="52.99" x2="256" y2="459.01"><stop style="stop-color: #7f09b6;stop-opacity: 1" offset="0%"></stop><stop style="stop-color: #c53e76;stop-opacity: 1" offset="40.05972039631418%"></stop><stop style="stop-color: #ffa701;stop-opacity: 1" offset="100%"></stop></linearGradient><path d="M408.56 227.44L408.86 227.47L409.16 227.51L409.46 227.56L409.75 227.63L410.04 227.71L410.33 227.8L410.61 227.89L410.88 228L411.15 228.12L411.41 228.25L411.67 228.39L411.92 228.54L412.16 228.7L412.4 228.87L412.63 229.04L412.86 229.23L413.07 229.42L413.28 229.62L413.48 229.83L413.68 230.05L413.86 230.27L414.04 230.5L414.21 230.74L414.36 230.99L414.51 231.24L414.65 231.49L414.78 231.76L414.9 232.02L415.01 232.3L415.11 232.58L415.2 232.86L415.28 233.15L415.34 233.44L415.4 233.74L415.44 234.04L415.47 234.35L415.49 234.65L415.5 234.97L415.49 235.28L415.47 235.59L415.44 235.89L415.4 236.19L415.34 236.49L415.28 236.78L415.2 237.07L415.11 237.35L415.01 237.63L414.9 237.91L414.78 238.18L414.65 238.44L414.51 238.7L414.36 238.95L414.21 239.19L414.04 239.43L413.86 239.66L413.68 239.88L413.48 240.1L413.28 240.31L413.07 240.51L412.86 240.7L412.63 240.89L412.4 241.07L412.16 241.23L411.92 241.39L411.67 241.54L411.41 241.68L411.15 241.81L410.88 241.93L410.61 242.04L410.33 242.14L410.04 242.23L409.75 242.3L409.46 242.37L409.16 242.43L408.86 242.47L408.56 242.5L408.25 242.52L407.94 242.52L323.62 242.52L323.31 242.52L323 242.5L322.7 242.47L322.4 242.43L322.1 242.37L321.81 242.3L321.52 242.23L321.23 242.14L320.95 242.04L320.68 241.93L320.41 241.81L320.15 241.68L319.89 241.54L319.64 241.39L319.4 241.23L319.16 241.07L318.93 240.89L318.7 240.7L318.49 240.51L318.28 240.31L318.08 240.1L317.88 239.88L317.7 239.66L317.52 239.43L317.35 239.19L317.2 238.95L317.05 238.7L316.91 238.44L316.78 238.18L316.66 237.91L316.55 237.63L316.45 237.35L316.36 237.07L316.28 236.78L316.22 236.49L316.16 236.19L316.12 235.89L316.09 235.59L316.07 235.28L316.06 234.97L316.07 234.65L316.09 234.35L316.12 234.04L316.16 233.74L316.22 233.44L316.28 233.15L316.36 232.86L316.45 232.58L316.55 232.3L316.66 232.02L316.78 231.76L316.91 231.49L317.05 231.24L317.2 230.99L317.35 230.74L317.52 230.5L317.7 230.27L317.88 230.05L318.08 229.83L318.28 229.62L318.49 229.42L318.7 229.23L318.93 229.04L319.16 228.87L319.4 228.7L319.64 228.54L319.89 228.39L320.15 228.25L320.41 228.12L320.68 228L320.95 227.89L321.23 227.8L321.52 227.71L321.81 227.63L322.1 227.56L322.4 227.51L322.7 227.47L323 227.44L323.31 227.42L323.62 227.41L407.94 227.41L408.25 227.42L408.56 227.44Z" id="b2a2nmuAB7"></path><linearGradient id="gradientak943FGOG" gradientUnits="userSpaceOnUse" x1="365.78" y1="227.41" x2="365.78" y2="242.52"><stop style="stop-color: #7f09b6;stop-opacity: 1" offset="0%"></stop><stop style="stop-color: #c53e76;stop-opacity: 1" offset="40.05972039631418%"></stop><stop style="stop-color: #ffa701;stop-opacity: 1" offset="100%"></stop></linearGradient><path d="M403.31 109.11L404.09 109.19L404.86 109.3L405.62 109.44L406.37 109.61L407.11 109.81L407.83 110.04L408.55 110.29L409.25 110.57L409.93 110.88L410.6 111.21L411.26 111.57L411.9 111.95L412.53 112.35L413.14 112.78L413.73 113.23L414.3 113.71L414.85 114.2L415.39 114.72L415.9 115.25L416.4 115.81L416.87 116.38L417.32 116.97L417.75 117.58L418.16 118.2L418.54 118.84L418.9 119.5L419.23 120.17L419.53 120.86L419.81 121.56L420.07 122.27L420.29 123L420.49 123.74L420.66 124.49L420.8 125.24L420.91 126.01L420.99 126.79L421.04 127.58L421.06 128.38L421.06 149.03L421.04 149.83L420.99 150.61L420.91 151.39L420.8 152.16L420.66 152.92L420.49 153.67L420.29 154.41L420.07 155.13L419.81 155.85L419.53 156.55L419.23 157.23L418.9 157.91L418.54 158.56L418.16 159.21L417.75 159.83L417.32 160.44L416.87 161.03L416.4 161.6L415.9 162.16L415.39 162.69L414.85 163.21L414.3 163.7L413.73 164.18L413.14 164.63L412.53 165.06L411.9 165.46L411.26 165.84L410.6 166.2L409.93 166.53L409.25 166.84L408.55 167.12L407.83 167.37L407.11 167.6L406.37 167.8L405.62 167.97L404.86 168.11L404.09 168.22L403.31 168.3L402.53 168.34L401.73 168.36L330.68 168.36L329.88 168.34L329.09 168.3L328.31 168.22L327.54 168.11L326.78 167.97L326.03 167.8L325.29 167.6L324.57 167.37L323.85 167.12L323.15 166.84L322.46 166.53L321.79 166.2L321.13 165.84L320.49 165.46L319.86 165.06L319.25 164.63L318.66 164.18L318.09 163.7L317.53 163.21L317 162.69L316.48 162.16L315.99 161.6L315.51 161.03L315.06 160.44L314.63 159.83L314.23 159.21L313.85 158.56L313.49 157.91L313.15 157.23L312.85 156.55L312.57 155.85L312.31 155.13L312.09 154.41L311.89 153.67L311.72 152.92L311.58 152.16L311.47 151.39L311.39 150.61L311.34 149.83L311.32 149.03L311.32 128.38L311.34 127.58L311.39 126.79L311.47 126.01L311.58 125.25L311.72 124.49L311.89 123.74L312.09 123L312.31 122.27L312.57 121.56L312.85 120.86L313.15 120.18L313.49 119.5L313.85 118.85L314.23 118.2L314.63 117.58L315.06 116.97L315.51 116.38L315.99 115.81L316.48 115.25L317 114.72L317.53 114.2L318.09 113.71L318.66 113.24L319.25 112.78L319.86 112.36L320.49 111.95L321.13 111.57L321.79 111.21L322.46 110.88L323.15 110.57L323.85 110.29L324.57 110.04L325.29 109.81L326.03 109.61L326.78 109.44L327.54 109.3L328.31 109.19L329.09 109.11L329.88 109.07L330.68 109.05L401.73 109.05L402.53 109.07L403.31 109.11ZM330.51 124.17L330.34 124.18L330.17 124.2L330 124.22L329.84 124.25L329.67 124.29L329.51 124.33L329.36 124.38L329.2 124.44L329.05 124.5L328.9 124.57L328.75 124.64L328.61 124.72L328.47 124.81L328.33 124.89L328.2 124.99L328.07 125.09L327.94 125.19L327.82 125.3L327.7 125.41L327.59 125.53L327.48 125.65L327.37 125.78L327.27 125.91L327.18 126.04L327.09 126.18L327 126.32L326.92 126.46L326.85 126.61L326.78 126.75L326.72 126.91L326.66 127.06L326.61 127.22L326.57 127.38L326.53 127.54L326.5 127.7L326.47 127.87L326.46 128.04L326.45 128.2L326.44 128.38L326.44 149.03L326.45 149.2L326.46 149.37L326.47 149.54L326.5 149.71L326.53 149.87L326.57 150.03L326.61 150.19L326.66 150.35L326.72 150.5L326.78 150.65L326.85 150.8L326.92 150.95L327 151.09L327.09 151.23L327.18 151.37L327.27 151.5L327.37 151.63L327.48 151.76L327.59 151.88L327.7 151.99L327.82 152.11L327.94 152.22L328.07 152.32L328.2 152.42L328.33 152.51L328.47 152.6L328.61 152.69L328.75 152.77L328.9 152.84L329.05 152.91L329.2 152.97L329.36 153.02L329.51 153.07L329.67 153.12L329.84 153.16L330 153.19L330.17 153.21L330.34 153.23L330.51 153.24L330.68 153.24L401.73 153.24L401.9 153.24L402.07 153.23L402.24 153.21L402.4 153.19L402.57 153.16L402.73 153.12L402.89 153.07L403.04 153.02L403.2 152.97L403.35 152.91L403.5 152.84L403.65 152.76L403.79 152.69L403.93 152.6L404.06 152.51L404.2 152.42L404.33 152.32L404.45 152.21L404.57 152.11L404.69 151.99L404.8 151.88L404.91 151.75L405.01 151.63L405.11 151.5L405.21 151.37L405.3 151.23L405.38 151.09L405.46 150.95L405.53 150.8L405.6 150.65L405.66 150.5L405.72 150.35L405.77 150.19L405.81 150.03L405.85 149.87L405.88 149.7L405.91 149.54L405.92 149.37L405.93 149.2L405.94 149.03L405.94 128.38L405.93 128.2L405.92 128.04L405.91 127.87L405.88 127.7L405.85 127.54L405.81 127.38L405.77 127.22L405.72 127.06L405.66 126.91L405.6 126.75L405.53 126.6L405.46 126.46L405.38 126.31L405.3 126.17L405.21 126.04L405.11 125.91L405.01 125.78L404.91 125.65L404.8 125.53L404.69 125.41L404.57 125.3L404.45 125.19L404.33 125.09L404.2 124.99L404.06 124.89L403.93 124.8L403.79 124.72L403.65 124.64L403.5 124.57L403.35 124.5L403.2 124.44L403.04 124.38L402.89 124.33L402.73 124.29L402.57 124.25L402.4 124.22L402.24 124.2L402.07 124.18L401.9 124.17L401.73 124.16L330.68 124.16L330.51 124.17Z" id="c3ls7qysdn"></path><linearGradient id="gradientd1u0y6gPiF" gradientUnits="userSpaceOnUse" x1="366.19" y1="109.05" x2="366.19" y2="168.36"><stop style="stop-color: #7f09b6;stop-opacity: 1" offset="0%"></stop><stop style="stop-color: #c53e76;stop-opacity: 1" offset="40.05972039631418%"></stop><stop style="stop-color: #ffa701;stop-opacity: 1" offset="100%"></stop></linearGradient><path d="M190.53 260.38L190.92 260.43L191.3 260.5L191.68 260.59L192.05 260.7L192.41 260.83L192.76 260.97L193.11 261.13L193.44 261.31L193.76 261.5L194.08 261.71L194.38 261.94L194.67 262.17L194.94 262.43L195.21 262.69L195.46 262.97L195.7 263.26L195.92 263.56L196.13 263.87L196.32 264.19L196.5 264.53L196.66 264.87L196.8 265.22L196.93 265.58L197.04 265.95L197.13 266.33L197.2 266.71L197.25 267.1L197.28 267.5L197.29 267.9L197.28 268.3L197.25 268.7L197.2 269.09L197.13 269.47L197.04 269.85L196.93 270.22L196.8 270.58L196.66 270.93L196.5 271.27L196.32 271.6L196.13 271.93L195.92 272.24L195.7 272.54L195.46 272.83L195.21 273.11L194.94 273.37L194.67 273.63L194.38 273.86L194.08 274.09L193.76 274.3L193.44 274.49L193.11 274.67L192.76 274.83L192.41 274.97L192.05 275.1L191.68 275.21L191.3 275.3L190.92 275.37L190.53 275.42L190.14 275.45L189.73 275.46L135.13 275.46L134.73 275.45L134.33 275.42L133.94 275.37L133.56 275.3L133.18 275.21L132.81 275.1L132.45 274.97L132.1 274.83L131.76 274.67L131.42 274.49L131.1 274.3L130.79 274.09L130.49 273.86L130.2 273.63L129.92 273.38L129.65 273.11L129.4 272.83L129.17 272.54L128.94 272.24L128.73 271.93L128.54 271.61L128.36 271.27L128.2 270.93L128.06 270.58L127.93 270.22L127.82 269.85L127.74 269.47L127.66 269.09L127.61 268.7L127.58 268.3L127.57 267.9L127.58 267.5L127.61 267.1L127.66 266.71L127.74 266.33L127.82 265.95L127.93 265.58L128.06 265.22L128.2 264.87L128.36 264.53L128.54 264.19L128.73 263.87L128.94 263.56L129.17 263.26L129.4 262.97L129.65 262.69L129.92 262.43L130.2 262.17L130.49 261.94L130.79 261.71L131.1 261.5L131.42 261.31L131.76 261.13L132.1 260.97L132.45 260.83L132.81 260.7L133.18 260.59L133.56 260.5L133.94 260.43L134.33 260.38L134.73 260.35L135.13 260.34L189.73 260.34L190.14 260.35L190.53 260.38Z" id="h3GJXRDXe1"></path><linearGradient id="gradientb6G8FOJ5I1" gradientUnits="userSpaceOnUse" x1="162.43" y1="260.34" x2="162.43" y2="275.46"><stop style="stop-color: #7f09b6;stop-opacity: 1" offset="0%"></stop><stop style="stop-color: #c53e76;stop-opacity: 1" offset="40.05972039631418%"></stop><stop style="stop-color: #ffa701;stop-opacity: 1" offset="100%"></stop></linearGradient><path d="M184.29 109.11L185.07 109.19L185.84 109.3L186.6 109.44L187.35 109.61L188.09 109.81L188.82 110.04L189.53 110.29L190.23 110.57L190.92 110.88L191.59 111.21L192.25 111.57L192.89 111.95L193.52 112.35L194.13 112.78L194.72 113.23L195.29 113.71L195.85 114.2L196.38 114.72L196.9 115.25L197.4 115.81L197.87 116.38L198.32 116.97L198.75 117.58L199.16 118.2L199.54 118.84L199.9 119.5L200.23 120.17L200.54 120.86L200.82 121.56L201.07 122.27L201.3 123L201.5 123.74L201.67 124.49L201.81 125.24L201.92 126.01L201.99 126.79L202.04 127.58L202.06 128.38L202.06 149.03L202.04 149.83L201.99 150.61L201.92 151.39L201.81 152.16L201.67 152.92L201.5 153.67L201.3 154.41L201.07 155.13L200.82 155.85L200.54 156.55L200.23 157.23L199.9 157.91L199.54 158.56L199.16 159.2L198.75 159.83L198.32 160.44L197.87 161.03L197.4 161.6L196.9 162.16L196.38 162.69L195.85 163.21L195.29 163.7L194.72 164.17L194.13 164.62L193.52 165.05L192.89 165.46L192.25 165.84L191.59 166.2L190.92 166.53L190.23 166.84L189.53 167.12L188.82 167.37L188.09 167.6L187.35 167.79L186.6 167.96L185.84 168.1L185.07 168.21L184.29 168.29L183.5 168.34L182.71 168.36L111.65 168.36L110.86 168.34L110.07 168.29L109.29 168.21L108.52 168.1L107.76 167.96L107.01 167.79L106.28 167.6L105.55 167.37L104.84 167.12L104.14 166.84L103.45 166.53L102.78 166.2L102.12 165.84L101.48 165.46L100.86 165.05L100.25 164.62L99.66 164.17L99.08 163.7L98.53 163.21L97.99 162.69L97.48 162.16L96.99 161.6L96.51 161.03L96.06 160.44L95.63 159.83L95.23 159.2L94.85 158.56L94.49 157.91L94.16 157.23L93.85 156.55L93.57 155.85L93.32 155.13L93.09 154.41L92.89 153.67L92.72 152.92L92.58 152.16L92.47 151.39L92.39 150.61L92.34 149.83L92.33 149.03L92.33 128.38L92.34 127.58L92.39 126.79L92.47 126.01L92.58 125.24L92.72 124.49L92.89 123.74L93.09 123L93.32 122.27L93.57 121.56L93.85 120.86L94.16 120.17L94.49 119.5L94.85 118.84L95.23 118.2L95.63 117.58L96.06 116.97L96.51 116.38L96.99 115.81L97.48 115.25L98 114.72L98.53 114.2L99.08 113.71L99.66 113.23L100.25 112.78L100.86 112.35L101.48 111.95L102.12 111.57L102.78 111.21L103.45 110.88L104.14 110.57L104.84 110.29L105.55 110.04L106.28 109.81L107.02 109.61L107.76 109.44L108.52 109.3L109.29 109.19L110.07 109.11L110.86 109.07L111.65 109.05L182.71 109.05L183.5 109.07L184.29 109.11ZM111.49 124.17L111.32 124.18L111.15 124.2L110.98 124.22L110.82 124.25L110.66 124.29L110.5 124.33L110.34 124.38L110.19 124.44L110.04 124.5L109.89 124.57L109.74 124.64L109.6 124.72L109.46 124.81L109.32 124.89L109.19 124.99L109.06 125.09L108.94 125.19L108.82 125.3L108.7 125.41L108.59 125.53L108.48 125.65L108.37 125.78L108.27 125.91L108.18 126.04L108.09 126.18L108.01 126.32L107.93 126.46L107.85 126.61L107.79 126.75L107.72 126.91L107.67 127.06L107.62 127.22L107.57 127.38L107.54 127.54L107.51 127.7L107.48 127.87L107.46 128.04L107.45 128.2L107.45 128.38L107.45 149.03L107.45 149.2L107.46 149.37L107.48 149.54L107.51 149.71L107.54 149.87L107.57 150.03L107.62 150.19L107.67 150.35L107.72 150.5L107.79 150.65L107.85 150.8L107.93 150.95L108.01 151.09L108.09 151.23L108.18 151.37L108.27 151.5L108.37 151.63L108.48 151.76L108.59 151.88L108.7 151.99L108.82 152.11L108.94 152.22L109.06 152.32L109.19 152.42L109.32 152.51L109.46 152.6L109.6 152.69L109.74 152.77L109.89 152.84L110.04 152.91L110.19 152.97L110.34 153.02L110.5 153.07L110.66 153.12L110.82 153.16L110.98 153.19L111.15 153.21L111.32 153.23L111.49 153.24L111.66 153.24L182.71 153.24L182.88 153.24L183.05 153.23L183.22 153.21L183.38 153.19L183.55 153.16L183.71 153.12L183.87 153.07L184.03 153.02L184.18 152.97L184.34 152.91L184.49 152.84L184.63 152.76L184.78 152.69L184.92 152.6L185.06 152.51L185.19 152.42L185.32 152.32L185.45 152.21L185.57 152.11L185.69 151.99L185.8 151.88L185.91 151.75L186.01 151.63L186.11 151.5L186.21 151.37L186.3 151.23L186.38 151.09L186.46 150.95L186.53 150.8L186.6 150.65L186.66 150.5L186.72 150.35L186.77 150.19L186.82 150.03L186.85 149.87L186.88 149.7L186.91 149.54L186.93 149.37L186.94 149.2L186.94 149.03L186.94 128.38L186.94 128.2L186.93 128.04L186.91 127.87L186.88 127.7L186.85 127.54L186.82 127.38L186.77 127.22L186.72 127.06L186.66 126.91L186.6 126.75L186.53 126.6L186.46 126.46L186.38 126.31L186.3 126.17L186.21 126.04L186.11 125.91L186.01 125.78L185.91 125.65L185.8 125.53L185.69 125.41L185.57 125.3L185.45 125.19L185.32 125.09L185.19 124.99L185.06 124.89L184.92 124.8L184.78 124.72L184.63 124.64L184.49 124.57L184.34 124.5L184.18 124.44L184.03 124.38L183.87 124.33L183.71 124.29L183.55 124.25L183.38 124.22L183.22 124.2L183.05 124.18L182.88 124.17L182.71 124.16L111.66 124.16L111.49 124.17Z" id="aMFLuQa5T"></path><linearGradient id="gradientaxX2njZTY" gradientUnits="userSpaceOnUse" x1="147.19" y1="109.05" x2="147.19" y2="168.36"><stop style="stop-color: #7f09b6;stop-opacity: 1" offset="0%"></stop><stop style="stop-color: #c53e76;stop-opacity: 1" offset="40.05972039631418%"></stop><stop style="stop-color: #ffa701;stop-opacity: 1" offset="100%"></stop></linearGradient><path d="M379.05 260.38L379.44 260.43L379.82 260.5L380.2 260.59L380.57 260.7L380.93 260.83L381.28 260.97L381.63 261.13L381.96 261.31L382.28 261.5L382.6 261.71L382.9 261.94L383.19 262.17L383.46 262.43L383.73 262.69L383.98 262.97L384.22 263.26L384.44 263.56L384.65 263.87L384.84 264.19L385.02 264.53L385.18 264.87L385.32 265.22L385.45 265.58L385.56 265.95L385.65 266.33L385.72 266.71L385.77 267.1L385.8 267.5L385.81 267.9L385.8 268.3L385.77 268.7L385.72 269.09L385.65 269.47L385.56 269.85L385.45 270.22L385.32 270.58L385.18 270.93L385.02 271.27L384.84 271.6L384.65 271.93L384.44 272.24L384.22 272.54L383.98 272.83L383.73 273.11L383.46 273.37L383.19 273.63L382.9 273.86L382.6 274.09L382.28 274.3L381.96 274.49L381.63 274.67L381.28 274.83L380.93 274.97L380.57 275.1L380.2 275.21L379.82 275.3L379.44 275.37L379.05 275.42L378.65 275.45L378.25 275.46L323.62 275.46L323.22 275.45L322.82 275.42L322.44 275.37L322.05 275.3L321.68 275.21L321.31 275.1L320.95 274.97L320.59 274.83L320.25 274.67L319.92 274.49L319.59 274.3L319.28 274.09L318.98 273.86L318.69 273.63L318.41 273.38L318.15 273.11L317.9 272.83L317.66 272.54L317.43 272.24L317.23 271.93L317.03 271.61L316.86 271.27L316.7 270.93L316.55 270.58L316.42 270.22L316.32 269.85L316.23 269.47L316.16 269.09L316.1 268.7L316.07 268.3L316.06 267.9L316.07 267.5L316.1 267.1L316.16 266.71L316.23 266.33L316.32 265.95L316.42 265.58L316.55 265.22L316.7 264.87L316.86 264.53L317.03 264.19L317.23 263.87L317.43 263.56L317.66 263.26L317.9 262.97L318.15 262.69L318.41 262.43L318.69 262.17L318.98 261.94L319.28 261.71L319.59 261.5L319.92 261.31L320.25 261.13L320.59 260.97L320.95 260.83L321.31 260.7L321.68 260.59L322.05 260.5L322.44 260.43L322.82 260.38L323.22 260.35L323.62 260.34L378.25 260.34L378.65 260.35L379.05 260.38Z" id="a334YbLaZ"></path><linearGradient id="gradientebC1DYcKT" gradientUnits="userSpaceOnUse" x1="350.94" y1="260.34" x2="350.94" y2="275.46"><stop style="stop-color: #7f09b6;stop-opacity: 1" offset="0%"></stop><stop style="stop-color: #c53e76;stop-opacity: 1" offset="40.05972039631418%"></stop><stop style="stop-color: #ffa701;stop-opacity: 1" offset="100%"></stop></linearGradient><path d="M190.38 227.44L190.69 227.47L190.99 227.51L191.29 227.56L191.58 227.63L191.87 227.71L192.15 227.8L192.43 227.89L192.7 228L192.97 228.12L193.24 228.25L193.49 228.39L193.74 228.54L193.99 228.7L194.23 228.87L194.46 229.04L194.68 229.23L194.9 229.42L195.11 229.62L195.31 229.83L195.5 230.05L195.69 230.27L195.86 230.5L196.03 230.74L196.19 230.99L196.34 231.24L196.48 231.49L196.61 231.76L196.73 232.02L196.84 232.3L196.94 232.58L197.02 232.86L197.1 233.15L197.17 233.44L197.22 233.74L197.26 234.04L197.3 234.35L197.31 234.65L197.32 234.97L197.31 235.28L197.3 235.59L197.26 235.89L197.22 236.19L197.17 236.49L197.1 236.78L197.02 237.07L196.94 237.35L196.84 237.63L196.73 237.91L196.61 238.18L196.48 238.44L196.34 238.7L196.19 238.95L196.03 239.19L195.86 239.43L195.69 239.66L195.5 239.88L195.31 240.1L195.11 240.31L194.9 240.51L194.68 240.7L194.46 240.89L194.23 241.07L193.99 241.23L193.74 241.39L193.49 241.54L193.24 241.68L192.97 241.81L192.7 241.93L192.43 242.04L192.15 242.14L191.87 242.23L191.58 242.3L191.29 242.37L190.99 242.43L190.69 242.47L190.38 242.5L190.07 242.52L189.76 242.52L105.45 242.52L105.13 242.52L104.83 242.5L104.52 242.47L104.22 242.43L103.92 242.37L103.63 242.3L103.34 242.23L103.06 242.14L102.78 242.04L102.5 241.93L102.24 241.81L101.97 241.68L101.72 241.54L101.47 241.39L101.22 241.23L100.98 241.07L100.75 240.89L100.53 240.7L100.31 240.51L100.1 240.31L99.9 240.1L99.71 239.88L99.52 239.66L99.35 239.43L99.18 239.19L99.02 238.95L98.87 238.7L98.73 238.44L98.6 238.18L98.48 237.91L98.37 237.63L98.27 237.35L98.18 237.07L98.11 236.78L98.04 236.49L97.99 236.19L97.94 235.89L97.91 235.59L97.89 235.28L97.89 234.97L97.89 234.65L97.91 234.35L97.94 234.04L97.99 233.74L98.04 233.44L98.11 233.15L98.18 232.86L98.27 232.58L98.37 232.3L98.48 232.02L98.6 231.76L98.73 231.49L98.87 231.24L99.02 230.99L99.18 230.74L99.35 230.5L99.52 230.27L99.71 230.05L99.9 229.83L100.1 229.62L100.31 229.42L100.53 229.23L100.75 229.04L100.98 228.87L101.22 228.7L101.47 228.54L101.72 228.39L101.97 228.25L102.24 228.12L102.5 228L102.78 227.89L103.06 227.8L103.34 227.71L103.63 227.63L103.92 227.56L104.22 227.51L104.52 227.47L104.83 227.44L105.13 227.42L105.45 227.41L189.76 227.41L190.07 227.42L190.38 227.44Z" id="a1rkJb6ka"></path><linearGradient id="gradiente41h9XZgJa" gradientUnits="userSpaceOnUse" x1="147.6" y1="227.41" x2="147.6" y2="242.52"><stop style="stop-color: #7f09b6;stop-opacity: 1" offset="0%"></stop><stop style="stop-color: #c53e76;stop-opacity: 1" offset="40.05972039631418%"></stop><stop style="stop-color: #ffa701;stop-opacity: 1" offset="100%"></stop></linearGradient><path d="M408.56 194.53L408.86 194.56L409.16 194.6L409.46 194.66L409.75 194.72L410.04 194.8L410.33 194.89L410.61 194.99L410.88 195.1L411.15 195.22L411.41 195.35L411.67 195.49L411.92 195.63L412.16 195.79L412.4 195.96L412.63 196.14L412.86 196.32L413.07 196.51L413.28 196.72L413.48 196.93L413.68 197.14L413.86 197.37L414.04 197.6L414.21 197.83L414.36 198.08L414.51 198.33L414.65 198.59L414.78 198.85L414.9 199.12L415.01 199.39L415.11 199.67L415.2 199.96L415.28 200.24L415.34 200.54L415.4 200.84L415.44 201.14L415.47 201.44L415.49 201.75L415.5 202.06L415.49 202.37L415.47 202.68L415.44 202.99L415.4 203.29L415.34 203.58L415.28 203.88L415.2 204.17L415.11 204.45L415.01 204.73L414.9 205L414.78 205.27L414.65 205.53L414.51 205.79L414.36 206.04L414.21 206.29L414.04 206.52L413.86 206.75L413.68 206.98L413.48 207.19L413.28 207.4L413.07 207.6L412.86 207.8L412.63 207.98L412.4 208.16L412.16 208.33L411.92 208.48L411.67 208.63L411.41 208.77L411.15 208.9L410.88 209.02L410.61 209.13L410.33 209.23L410.04 209.32L409.75 209.4L409.46 209.46L409.16 209.52L408.86 209.56L408.56 209.59L408.25 209.61L407.94 209.62L323.63 209.62L323.31 209.61L323.01 209.59L322.7 209.56L322.4 209.52L322.1 209.46L321.81 209.4L321.52 209.32L321.24 209.23L320.96 209.13L320.68 209.02L320.41 208.9L320.15 208.77L319.89 208.63L319.64 208.48L319.4 208.33L319.16 208.16L318.93 207.98L318.71 207.8L318.49 207.6L318.28 207.4L318.08 207.19L317.89 206.98L317.7 206.75L317.53 206.52L317.36 206.29L317.2 206.04L317.05 205.79L316.91 205.53L316.78 205.27L316.66 205L316.55 204.73L316.45 204.45L316.36 204.17L316.29 203.88L316.22 203.58L316.17 203.29L316.12 202.99L316.09 202.68L316.07 202.37L316.07 202.06L316.07 201.75L316.09 201.44L316.12 201.14L316.17 200.84L316.22 200.54L316.29 200.24L316.36 199.96L316.45 199.67L316.55 199.39L316.66 199.12L316.78 198.85L316.91 198.59L317.05 198.33L317.2 198.08L317.36 197.83L317.53 197.6L317.7 197.37L317.89 197.14L318.08 196.93L318.28 196.72L318.49 196.51L318.71 196.32L318.93 196.14L319.16 195.96L319.4 195.79L319.64 195.63L319.89 195.49L320.15 195.35L320.41 195.22L320.68 195.1L320.96 194.99L321.24 194.89L321.52 194.8L321.81 194.72L322.1 194.66L322.4 194.6L322.7 194.56L323.01 194.53L323.31 194.51L323.63 194.5L407.94 194.5L408.25 194.51L408.56 194.53Z" id="clNFyblP3"></path><linearGradient id="gradientb5YYM2vZww" gradientUnits="userSpaceOnUse" x1="365.78" y1="194.5" x2="365.78" y2="209.62"><stop style="stop-color: #7f09b6;stop-opacity: 1" offset="0%"></stop><stop style="stop-color: #c53e76;stop-opacity: 1" offset="40.05972039631418%"></stop><stop style="stop-color: #ffa701;stop-opacity: 1" offset="100%"></stop></linearGradient></defs><g><g><g><use xlink:href="#b1xtGbe0kz" opacity="1" fill="url(#gradientcH3MKEh17)"></use><g><use xlink:href="#b1xtGbe0kz" opacity="1" fill-opacity="0" stroke="#000000" stroke-width="1" stroke-opacity="0"></use></g></g><g><use xlink:href="#bge0RiEkA" opacity="1" fill="url(#gradientb4ytw3Ihmt)"></use><g><use xlink:href="#bge0RiEkA" opacity="1" fill-opacity="0" stroke="#000000" stroke-width="1" stroke-opacity="0"></use></g></g><g><use xlink:href="#b2a2nmuAB7" opacity="1" fill="url(#gradientak943FGOG)"></use><g><use xlink:href="#b2a2nmuAB7" opacity="1" fill-opacity="0" stroke="#000000" stroke-width="1" stroke-opacity="0"></use></g></g><g><use xlink:href="#c3ls7qysdn" opacity="1" fill="url(#gradientd1u0y6gPiF)"></use><g><use xlink:href="#c3ls7qysdn" opacity="1" fill-opacity="0" stroke="#000000" stroke-width="1" stroke-opacity="0"></use></g></g><g><use xlink:href="#h3GJXRDXe1" opacity="1" fill="url(#gradientb6G8FOJ5I1)"></use><g><use xlink:href="#h3GJXRDXe1" opacity="1" fill-opacity="0" stroke="#000000" stroke-width="1" stroke-opacity="0"></use></g></g><g><use xlink:href="#aMFLuQa5T" opacity="1" fill="url(#gradientaxX2njZTY)"></use><g><use xlink:href="#aMFLuQa5T" opacity="1" fill-opacity="0" stroke="#000000" stroke-width="1" stroke-opacity="0"></use></g></g><g><use xlink:href="#a334YbLaZ" opacity="1" fill="url(#gradientebC1DYcKT)"></use><g><use xlink:href="#a334YbLaZ" opacity="1" fill-opacity="0" stroke="#000000" stroke-width="1" stroke-opacity="0"></use></g></g><g><use xlink:href="#a1rkJb6ka" opacity="1" fill="url(#gradiente41h9XZgJa)"></use><g><use xlink:href="#a1rkJb6ka" opacity="1" fill-opacity="0" stroke="#000000" stroke-width="1" stroke-opacity="0"></use></g></g><g><use xlink:href="#clNFyblP3" opacity="1" fill="url(#gradientb5YYM2vZww)"></use><g><use xlink:href="#clNFyblP3" opacity="1" fill-opacity="0" stroke="#000000" stroke-width="1" stroke-opacity="0"></use></g></g></g></g></svg>