<?xml version="1.0" encoding="UTF-8" standalone="no"?>
<!DOCTYPE svg PUBLIC "-//W3C//DTD SVG 1.1//EN" "http://www.w3.org/Graphics/SVG/1.1/DTD/svg11.dtd">
<svg version="1.1" xmlns="http://www.w3.org/2000/svg" xmlns:xlink="http://www.w3.org/1999/xlink" preserveAspectRatio="xMidYMid meet" viewBox="0 0 512 512" width="512" height="512"><defs><path d="M286.31 28.6L286.83 28.65L287.34 28.73L287.84 28.82L288.34 28.93L288.83 29.06L289.31 29.21L289.78 29.38L290.25 29.57L290.7 29.77L291.15 29.99L291.59 30.23L292.01 30.48L292.43 30.75L292.83 31.04L293.22 31.34L293.6 31.65L293.97 31.98L294.33 32.32L294.67 32.68L295 33.04L295.31 33.42L295.61 33.82L295.9 34.22L296.16 34.64L296.42 35.06L296.66 35.5L296.88 35.94L297.08 36.4L297.27 36.86L297.43 37.34L297.58 37.82L297.72 38.31L297.83 38.81L297.92 39.31L297.99 39.82L298.05 40.34L298.08 40.86L298.09 41.39L298.09 151.31L298.86 150.89L299.63 150.48L300.41 150.08L301.19 149.69L301.98 149.31L302.78 148.94L303.58 148.57L304.39 148.22L305.2 147.88L306.01 147.54L306.83 147.22L307.66 146.91L308.49 146.6L309.32 146.31L310.16 146.03L311.01 145.76L311.86 145.49L312.71 145.24L313.57 145L314.43 144.77L315.29 144.55L316.17 144.34L317.04 144.14L317.92 143.95L318.8 143.77L319.69 143.61L320.58 143.45L321.47 143.31L322.37 143.17L323.27 143.05L324.17 142.94L325.08 142.84L325.99 142.75L326.91 142.67L327.83 142.61L328.75 142.56L329.67 142.51L330.6 142.48L331.53 142.47L332.46 142.46L335.4 142.52L338.31 142.7L341.18 142.99L344.02 143.4L346.83 143.91L349.59 144.54L352.32 145.27L355 146.11L357.63 147.04L360.22 148.08L362.75 149.21L365.23 150.44L367.66 151.76L370.03 153.17L372.34 154.67L374.59 156.25L376.77 157.91L378.88 159.66L380.93 161.49L382.91 163.39L384.81 165.36L386.63 167.41L388.38 169.52L390.04 171.71L391.63 173.95L393.13 176.26L394.53 178.63L395.85 181.06L397.08 183.54L398.22 186.07L399.25 188.66L400.19 191.29L401.02 193.97L401.75 196.7L402.38 199.46L402.9 202.26L403.3 205.11L403.6 207.98L403.77 210.89L403.83 213.82L403.72 217.86L403.4 221.83L402.87 225.7L402.14 229.49L401.22 233.2L400.11 236.8L398.82 240.31L397.36 243.71L395.73 247.01L393.93 250.2L391.99 253.28L389.89 256.24L387.66 259.08L385.29 261.8L382.79 264.38L380.18 266.84L377.44 269.15L374.6 271.33L371.66 273.37L368.63 275.26L365.5 277L362.29 278.58L359.01 280L355.66 281.27L352.25 282.36L348.78 283.29L345.26 284.04L341.7 284.62L338.11 285.02L334.48 285.23L330.84 285.25L327.18 285.08L323.5 284.71L319.83 284.15L316.16 283.38L312.5 282.4L308.85 281.22L305.23 279.81L301.64 278.19L298.09 276.35L298.09 278.07L298.08 278.59L298.05 279.12L297.99 279.63L297.92 280.14L297.83 280.65L297.72 281.14L297.58 281.63L297.43 282.11L297.27 282.59L297.08 283.05L296.88 283.51L296.66 283.95L296.42 284.39L296.16 284.81L295.9 285.23L295.61 285.63L295.31 286.03L295 286.41L294.67 286.77L294.33 287.13L293.97 287.47L293.6 287.8L293.22 288.11L292.83 288.41L292.43 288.7L292.01 288.97L291.59 289.22L291.15 289.46L290.7 289.68L290.25 289.88L289.78 290.07L289.31 290.24L288.83 290.39L288.34 290.52L287.84 290.63L287.34 290.72L286.83 290.8L286.31 290.85L285.79 290.88L285.26 290.89L120.99 290.89L120.46 290.88L119.94 290.85L119.43 290.8L118.92 290.72L118.41 290.63L117.91 290.52L117.43 290.39L116.94 290.24L116.47 290.07L116.01 289.88L115.55 289.68L115.1 289.46L114.67 289.22L114.24 288.97L113.83 288.7L113.42 288.41L113.03 288.11L112.65 287.8L112.28 287.47L111.93 287.13L111.59 286.77L111.26 286.41L110.95 286.03L110.65 285.63L110.36 285.23L110.09 284.81L109.84 284.39L109.6 283.95L109.38 283.51L109.18 283.05L108.99 282.59L108.82 282.11L108.67 281.63L108.54 281.14L108.43 280.65L108.34 280.14L108.26 279.63L108.21 279.12L108.18 278.59L108.17 278.07L108.17 41.39L108.18 40.86L108.21 40.34L108.26 39.82L108.34 39.31L108.43 38.81L108.54 38.31L108.67 37.82L108.82 37.34L108.99 36.86L109.18 36.4L109.38 35.94L109.6 35.5L109.84 35.06L110.09 34.64L110.36 34.22L110.65 33.82L110.95 33.42L111.26 33.04L111.59 32.68L111.93 32.32L112.28 31.98L112.65 31.65L113.03 31.34L113.42 31.04L113.83 30.75L114.24 30.48L114.67 30.23L115.1 29.99L115.55 29.77L116.01 29.57L116.47 29.38L116.94 29.21L117.43 29.06L117.91 28.93L118.41 28.82L118.92 28.73L119.43 28.65L119.94 28.6L120.46 28.57L120.99 28.56L285.26 28.56L285.79 28.57L286.31 28.6ZM123.56 275.5L282.7 275.5L282.7 264.92L281.71 263.94L280.74 262.94L279.79 261.92L278.86 260.88L277.95 259.83L277.06 258.75L276.19 257.66L275.34 256.55L274.51 255.43L273.7 254.29L272.92 253.13L272.16 251.95L271.42 250.76L270.7 249.56L270.01 248.34L269.34 247.1L268.7 245.85L268.07 244.59L267.48 243.31L266.9 242.02L266.36 240.72L265.83 239.4L265.34 238.07L264.87 236.73L264.42 235.37L264 234.01L263.61 232.63L263.25 231.24L262.91 229.84L262.6 228.43L262.32 227.01L262.07 225.58L261.84 224.14L261.65 222.69L261.48 221.24L261.34 219.77L261.24 218.3L261.16 216.81L261.11 215.32L261.1 213.82L261.11 212.33L261.16 210.84L261.24 209.35L261.34 207.88L261.48 206.41L261.65 204.95L261.84 203.51L262.07 202.07L262.32 200.64L262.6 199.22L262.91 197.81L263.25 196.41L263.61 195.02L264 193.64L264.42 192.28L264.87 190.92L265.34 189.58L265.83 188.25L266.36 186.93L266.9 185.63L267.48 184.34L268.07 183.06L268.7 181.8L269.34 180.55L270.01 179.31L270.7 178.09L271.42 176.89L272.16 175.7L272.92 174.52L273.7 173.36L274.51 172.22L275.34 171.1L276.19 169.99L277.06 168.9L277.95 167.82L278.86 166.77L279.79 165.73L280.74 164.71L281.71 163.71L282.7 162.73L282.7 43.95L123.56 43.95L123.56 275.5ZM324.8 158.34L321.13 158.94L317.58 159.76L314.16 160.8L310.86 162.04L307.68 163.48L304.64 165.1L301.74 166.89L298.97 168.86L296.34 170.98L293.86 173.24L291.53 175.65L289.35 178.18L287.33 180.83L285.47 183.59L283.77 186.46L282.24 189.41L280.89 192.44L279.7 195.54L278.69 198.71L277.87 201.93L277.23 205.19L276.77 208.48L276.51 211.8L276.45 215.13L276.58 218.47L276.92 221.8L277.47 225.12L278.22 228.42L279.19 231.68L280.37 234.9L281.78 238.06L283.41 241.17L285.26 244.2L287.35 247.16L289.68 250.02L292.24 252.78L295.04 255.44L298.09 257.98L300.86 260.01L303.68 261.84L306.56 263.48L309.48 264.92L312.44 266.16L315.43 267.22L318.45 268.1L321.49 268.79L324.54 269.3L327.59 269.64L330.64 269.81L333.69 269.81L336.71 269.64L339.72 269.3L342.7 268.81L345.64 268.16L348.55 267.36L351.4 266.41L354.2 265.31L356.94 264.06L359.61 262.68L362.2 261.15L364.71 259.5L367.14 257.71L369.47 255.79L371.69 253.75L373.81 251.59L375.82 249.31L377.7 246.91L379.45 244.4L381.07 241.78L382.55 239.06L383.87 236.23L385.04 233.3L386.05 230.28L386.9 227.16L387.56 223.95L388.05 220.66L388.34 217.28L388.44 213.82L388.39 211.52L388.26 209.24L388.03 206.99L387.71 204.76L387.3 202.56L386.81 200.39L386.24 198.25L385.58 196.15L384.85 194.09L384.03 192.06L383.15 190.07L382.18 188.12L381.15 186.22L380.04 184.36L378.87 182.55L377.62 180.79L376.32 179.08L374.95 177.42L373.52 175.81L372.02 174.26L370.48 172.77L368.87 171.34L367.21 169.97L365.5 168.67L363.74 167.42L361.93 166.25L360.07 165.14L358.16 164.11L356.22 163.15L354.23 162.26L352.2 161.44L350.13 160.71L348.03 160.05L345.9 159.48L343.73 158.99L341.53 158.59L339.3 158.27L337.04 158.04L334.76 157.9L332.46 157.85L328.57 157.98L324.8 158.34Z" id="a12mSzcaJ9"></path><linearGradient id="gradienta2ae0zHSDu" gradientUnits="userSpaceOnUse" x1="256" y1="28.56" x2="256" y2="290.89"><stop style="stop-color: #850db0;stop-opacity: 1" offset="0%"></stop><stop style="stop-color: #c63e70;stop-opacity: 1" offset="61.47239594626532%"></stop><stop style="stop-color: #fea602;stop-opacity: 1" offset="100%"></stop></linearGradient><path d="M270.05 54.67L270.65 54.8L271.23 54.97L271.79 55.18L272.33 55.43L272.85 55.73L273.34 56.06L273.8 56.43L274.24 56.83L274.64 57.26L275.01 57.72L275.34 58.22L275.63 58.73L275.89 59.27L276.1 59.84L276.27 60.42L276.39 61.02L276.47 61.64L276.49 62.27L276.47 62.9L276.39 63.52L276.27 64.12L276.1 64.7L275.89 65.26L275.63 65.81L275.34 66.32L275.01 66.81L274.64 67.28L274.24 67.71L273.8 68.11L273.34 68.48L272.85 68.81L272.33 69.11L271.79 69.36L271.23 69.57L270.65 69.74L270.05 69.86L269.43 69.94L268.8 69.96L241.8 69.96L241.17 69.94L240.55 69.86L239.95 69.74L239.37 69.57L238.81 69.36L238.26 69.11L237.75 68.81L237.26 68.48L236.79 68.11L236.36 67.71L235.96 67.28L235.59 66.81L235.26 66.32L234.96 65.81L234.71 65.26L234.5 64.7L234.33 64.12L234.21 63.52L234.13 62.9L234.11 62.27L234.13 61.64L234.21 61.02L234.33 60.42L234.5 59.84L234.71 59.27L234.96 58.73L235.26 58.22L235.59 57.72L235.96 57.26L236.36 56.83L236.79 56.43L237.26 56.06L237.75 55.73L238.26 55.43L238.81 55.18L239.37 54.97L239.95 54.8L240.55 54.67L241.17 54.6L241.8 54.57L268.8 54.57L269.43 54.6L270.05 54.67Z" id="axtl05H5p"></path><linearGradient id="gradientd60tWzh08Q" gradientUnits="userSpaceOnUse" x1="255.3" y1="54.57" x2="255.3" y2="69.96"><stop style="stop-color: #850db0;stop-opacity: 1" offset="0%"></stop><stop style="stop-color: #c63e70;stop-opacity: 1" offset="61.47239594626532%"></stop><stop style="stop-color: #fea602;stop-opacity: 1" offset="100%"></stop></linearGradient><path d="M270.05 86.99L270.65 87.11L271.23 87.28L271.79 87.5L272.33 87.75L272.85 88.04L273.34 88.38L273.8 88.74L274.24 89.14L274.64 89.58L275.01 90.04L275.34 90.53L275.63 91.05L275.89 91.59L276.1 92.15L276.27 92.74L276.39 93.34L276.47 93.95L276.49 94.59L276.47 95.22L276.39 95.83L276.27 96.44L276.1 97.02L275.89 97.58L275.63 98.12L275.34 98.64L275.01 99.13L274.64 99.59L274.24 100.03L273.8 100.43L273.34 100.8L272.85 101.13L272.33 101.42L271.79 101.68L271.23 101.89L270.65 102.06L270.05 102.18L269.43 102.26L268.8 102.28L241.8 102.28L241.17 102.26L240.55 102.18L239.95 102.06L239.37 101.89L238.81 101.68L238.26 101.42L237.75 101.13L237.26 100.8L236.79 100.43L236.36 100.03L235.96 99.59L235.59 99.13L235.26 98.64L234.96 98.12L234.71 97.58L234.5 97.02L234.33 96.44L234.21 95.83L234.13 95.22L234.11 94.59L234.13 93.95L234.21 93.34L234.33 92.74L234.5 92.15L234.71 91.59L234.96 91.05L235.26 90.53L235.59 90.04L235.96 89.58L236.36 89.14L236.79 88.74L237.26 88.38L237.75 88.04L238.26 87.75L238.81 87.5L239.37 87.28L239.95 87.11L240.55 86.99L241.17 86.92L241.8 86.89L268.8 86.89L269.43 86.92L270.05 86.99Z" id="b1Iw6WajpE"></path><linearGradient id="gradientaCVIpxi62" gradientUnits="userSpaceOnUse" x1="255.3" y1="86.89" x2="255.3" y2="102.28"><stop style="stop-color: #850db0;stop-opacity: 1" offset="0%"></stop><stop style="stop-color: #c63e70;stop-opacity: 1" offset="61.47239594626532%"></stop><stop style="stop-color: #fea602;stop-opacity: 1" offset="100%"></stop></linearGradient><path d="M270.05 119.31L270.65 119.43L271.23 119.6L271.79 119.81L272.33 120.07L272.85 120.36L273.34 120.69L273.8 121.06L274.24 121.46L274.64 121.89L275.01 122.36L275.34 122.85L275.63 123.37L275.89 123.91L276.1 124.47L276.27 125.05L276.39 125.65L276.47 126.27L276.49 126.9L276.47 127.53L276.39 128.15L276.27 128.75L276.1 129.33L275.89 129.9L275.63 130.44L275.34 130.96L275.01 131.45L274.64 131.91L274.24 132.34L273.8 132.75L273.34 133.11L272.85 133.44L272.33 133.74L271.79 133.99L271.23 134.21L270.65 134.37L270.05 134.5L269.43 134.57L268.8 134.6L241.8 134.6L241.17 134.57L240.55 134.5L239.95 134.37L239.37 134.21L238.81 133.99L238.26 133.74L237.75 133.44L237.26 133.11L236.79 132.75L236.36 132.34L235.96 131.91L235.59 131.45L235.26 130.96L234.96 130.44L234.71 129.9L234.5 129.33L234.33 128.75L234.21 128.15L234.13 127.53L234.11 126.9L234.13 126.27L234.21 125.65L234.33 125.05L234.5 124.47L234.71 123.91L234.96 123.37L235.26 122.85L235.59 122.36L235.96 121.89L236.36 121.46L236.79 121.06L237.26 120.69L237.75 120.36L238.26 120.07L238.81 119.81L239.37 119.6L239.95 119.43L240.55 119.31L241.17 119.23L241.8 119.21L268.8 119.21L269.43 119.23L270.05 119.31Z" id="e3iiKr1Nrn"></path><linearGradient id="gradientg232wr58xY" gradientUnits="userSpaceOnUse" x1="255.3" y1="119.21" x2="255.3" y2="134.6"><stop style="stop-color: #850db0;stop-opacity: 1" offset="0%"></stop><stop style="stop-color: #c63e70;stop-opacity: 1" offset="61.47239594626532%"></stop><stop style="stop-color: #fea602;stop-opacity: 1" offset="100%"></stop></linearGradient><path d="M214.56 52.25L215.17 52.31L215.77 52.4L216.36 52.51L216.94 52.64L217.52 52.79L218.08 52.97L218.64 53.17L219.18 53.38L219.72 53.62L220.24 53.88L220.75 54.16L221.25 54.46L221.74 54.77L222.21 55.11L222.67 55.46L223.12 55.83L223.55 56.21L223.97 56.61L224.37 57.03L224.75 57.46L225.12 57.91L225.47 58.37L225.81 58.84L226.12 59.33L226.42 59.83L226.7 60.34L226.96 60.87L227.19 61.4L227.41 61.95L227.61 62.5L227.79 63.07L227.94 63.65L228.07 64.23L228.18 64.82L228.27 65.42L228.33 66.03L228.37 66.64L228.38 67.26L228.38 121.91L228.37 122.53L228.33 123.14L228.27 123.75L228.18 124.35L228.07 124.94L227.94 125.53L227.79 126.1L227.61 126.67L227.41 127.22L227.19 127.77L226.96 128.31L226.7 128.83L226.42 129.34L226.12 129.84L225.81 130.33L225.47 130.8L225.12 131.26L224.75 131.71L224.37 132.14L223.97 132.56L223.55 132.96L223.12 133.34L222.67 133.71L222.21 134.06L221.74 134.4L221.25 134.71L220.75 135.01L220.24 135.29L219.72 135.55L219.18 135.79L218.64 136.01L218.08 136.2L217.52 136.38L216.94 136.53L216.36 136.67L215.77 136.78L215.17 136.86L214.56 136.92L213.95 136.96L213.33 136.97L146.79 136.97L146.17 136.96L145.55 136.92L144.95 136.86L144.35 136.78L143.75 136.67L143.17 136.53L142.6 136.38L142.03 136.2L141.48 136.01L140.93 135.79L140.39 135.55L139.87 135.29L139.36 135.01L138.86 134.71L138.37 134.4L137.9 134.06L137.44 133.71L136.99 133.34L136.56 132.96L136.14 132.56L135.74 132.14L135.35 131.71L134.99 131.26L134.63 130.8L134.3 130.33L133.98 129.84L133.69 129.34L133.41 128.83L133.15 128.31L132.91 127.77L132.69 127.22L132.49 126.67L132.32 126.1L132.16 125.53L132.03 124.94L131.92 124.35L131.83 123.75L131.77 123.14L131.74 122.53L131.72 121.91L131.72 67.26L131.74 66.64L131.77 66.03L131.83 65.42L131.92 64.82L132.03 64.23L132.16 63.65L132.32 63.07L132.49 62.5L132.69 61.95L132.91 61.4L133.15 60.87L133.41 60.34L133.69 59.83L133.98 59.33L134.3 58.84L134.63 58.37L134.99 57.91L135.35 57.46L135.74 57.03L136.14 56.61L136.56 56.21L136.99 55.83L137.44 55.46L137.9 55.11L138.37 54.77L138.86 54.46L139.36 54.16L139.87 53.88L140.39 53.62L140.93 53.38L141.48 53.17L142.03 52.97L142.6 52.79L143.17 52.64L143.75 52.51L144.35 52.4L144.95 52.31L145.55 52.25L146.17 52.21L146.79 52.2L213.33 52.2L213.95 52.21L214.56 52.25ZM181.92 110.9L181.37 110.94L180.82 110.97L180.27 110.98L179.73 110.98L179.19 110.96L178.66 110.94L178.12 110.9L177.59 110.84L177.07 110.78L176.5 111.25L175.85 111.82L175.13 112.49L174.35 113.26L173.5 114.13L172.6 115.1L171.67 116.18L170.69 117.37L169.69 118.66L168.67 120.06L167.64 121.58L192.46 121.58L191.43 120.07L190.41 118.66L189.41 117.37L188.44 116.18L187.51 115.1L186.61 114.13L185.77 113.26L184.98 112.49L184.26 111.82L183.61 111.25L183.04 110.78L182.48 110.85L181.92 110.9ZM189.24 67.95L190.07 68.34L190.89 68.77L191.68 69.23L192.45 69.71L193.2 70.23L193.93 70.78L194.63 71.36L195.31 71.96L195.97 72.59L196.59 73.24L197.2 73.92L197.77 74.63L198.32 75.36L198.84 76.11L199.33 76.88L199.78 77.67L200.21 78.48L200.6 79.31L200.96 80.16L201.29 81.03L201.58 81.91L201.83 82.81L202.05 83.72L202.23 84.65L202.37 85.59L202.47 86.54L202.53 87.51L202.55 88.48L202.55 89.05L202.53 89.61L202.49 90.18L202.44 90.73L202.38 91.29L202.3 91.84L202.22 92.38L202.11 92.92L202 93.46L201.87 93.99L201.73 94.52L201.58 95.04L201.42 95.56L201.24 96.07L201.05 96.57L200.85 97.07L200.64 97.56L200.42 98.05L200.18 98.53L199.94 99.01L199.68 99.47L199.41 99.94L199.14 100.39L198.85 100.84L198.55 101.28L198.24 101.71L197.93 102.13L197.6 102.55L197.26 102.96L197.67 103.38L198.08 103.81L198.49 104.26L198.92 104.72L199.34 105.2L199.77 105.7L200.21 106.21L200.65 106.73L201.09 107.28L201.54 107.83L201.99 108.41L202.44 109L202.89 109.6L203.35 110.22L203.81 110.86L204.27 111.52L204.72 112.19L205.18 112.88L205.64 113.58L206.1 114.3L206.56 115.04L207.01 115.8L207.47 116.57L207.92 117.36L208.37 118.17L208.81 119L209.26 119.84L209.7 120.7L210.13 121.58L212.99 121.58L212.99 67.59L188.39 67.59L189.24 67.95ZM147.12 121.58L149.98 121.58L150.41 120.7L150.85 119.84L151.29 119L151.74 118.17L152.19 117.36L152.64 116.57L153.1 115.8L153.55 115.05L154.01 114.31L154.46 113.59L154.92 112.88L155.38 112.19L155.84 111.52L156.3 110.87L156.75 110.23L157.21 109.61L157.66 109L158.11 108.41L158.56 107.84L159.01 107.28L159.45 106.74L159.89 106.22L160.33 105.71L160.76 105.21L161.19 104.73L161.61 104.27L162.02 103.82L162.44 103.38L162.84 102.96L162.5 102.56L162.18 102.14L161.86 101.72L161.55 101.28L161.25 100.84L160.97 100.4L160.69 99.94L160.42 99.48L160.17 99.01L159.92 98.54L159.69 98.06L159.46 97.57L159.25 97.07L159.05 96.57L158.86 96.07L158.69 95.56L158.52 95.04L158.37 94.52L158.23 93.99L158.11 93.46L157.99 92.92L157.89 92.38L157.8 91.84L157.72 91.29L157.66 90.73L157.61 90.17L157.58 89.61L157.56 89.05L157.55 88.48L157.57 87.51L157.63 86.54L157.74 85.59L157.88 84.65L158.06 83.72L158.27 82.81L158.53 81.91L158.82 81.03L159.14 80.16L159.5 79.31L159.9 78.48L160.32 77.67L160.78 76.88L161.27 76.11L161.78 75.36L162.33 74.63L162.91 73.92L163.51 73.24L164.14 72.59L164.79 71.96L165.47 71.36L166.18 70.78L166.91 70.23L167.66 69.71L168.43 69.23L169.22 68.77L170.03 68.34L170.86 67.95L171.71 67.59L147.12 67.59L147.12 121.58ZM177.29 81.93L176.08 82.58L175.03 83.45L174.16 84.5L173.5 85.71L173.09 87.05L172.94 88.48L173.09 89.91L173.5 91.25L174.16 92.45L175.03 93.51L176.08 94.38L177.29 95.03L178.62 95.45L180.05 95.59L181.48 95.45L182.82 95.03L184.02 94.38L185.08 93.51L185.95 92.45L186.6 91.25L187.02 89.91L187.16 88.48L187.02 87.05L186.6 85.71L185.95 84.5L185.08 83.45L184.02 82.58L182.82 81.93L181.48 81.52L180.05 81.37L178.62 81.52L177.29 81.93Z" id="c3vK0WKuy"></path><linearGradient id="gradientbmRDD6Qxa" gradientUnits="userSpaceOnUse" x1="180.05" y1="52.2" x2="180.05" y2="136.97"><stop style="stop-color: #850db0;stop-opacity: 1" offset="0%"></stop><stop style="stop-color: #c63e70;stop-opacity: 1" offset="61.47239594626532%"></stop><stop style="stop-color: #fea602;stop-opacity: 1" offset="100%"></stop></linearGradient><path d="M269.43 147.72L269.74 147.75L270.05 147.8L270.35 147.85L270.65 147.92L270.94 148L271.23 148.09L271.51 148.19L271.79 148.3L272.07 148.42L272.33 148.55L272.59 148.7L272.85 148.85L273.1 149.01L273.34 149.18L273.58 149.36L273.8 149.55L274.03 149.74L274.24 149.95L274.44 150.16L274.64 150.38L274.83 150.61L275.01 150.84L275.18 151.09L275.34 151.34L275.49 151.59L275.63 151.85L275.77 152.12L275.89 152.39L276 152.67L276.1 152.96L276.19 153.25L276.27 153.54L276.34 153.84L276.39 154.14L276.44 154.45L276.47 154.76L276.49 155.07L276.49 155.39L276.49 155.71L276.47 156.02L276.44 156.33L276.39 156.64L276.34 156.94L276.27 157.24L276.19 157.53L276.1 157.82L276 158.11L275.89 158.39L275.77 158.66L275.63 158.93L275.49 159.19L275.34 159.44L275.18 159.69L275.01 159.94L274.83 160.17L274.64 160.4L274.44 160.62L274.24 160.83L274.03 161.04L273.8 161.23L273.58 161.42L273.34 161.6L273.1 161.77L272.85 161.93L272.59 162.08L272.33 162.23L272.07 162.36L271.79 162.48L271.51 162.59L271.23 162.69L270.94 162.78L270.65 162.86L270.35 162.93L270.05 162.99L269.74 163.03L269.43 163.06L269.11 163.08L268.8 163.09L139.43 163.09L139.11 163.08L138.79 163.06L138.48 163.03L138.18 162.99L137.87 162.93L137.58 162.86L137.28 162.78L136.99 162.69L136.71 162.59L136.43 162.48L136.16 162.36L135.89 162.23L135.63 162.08L135.37 161.93L135.12 161.77L134.88 161.6L134.64 161.42L134.42 161.23L134.2 161.04L133.98 160.83L133.78 160.62L133.58 160.4L133.39 160.17L133.21 159.94L133.04 159.69L132.88 159.44L132.73 159.19L132.59 158.93L132.46 158.66L132.33 158.39L132.22 158.11L132.12 157.82L132.03 157.53L131.95 157.24L131.89 156.94L131.83 156.64L131.79 156.33L131.76 156.02L131.74 155.71L131.73 155.39L131.74 155.07L131.76 154.76L131.79 154.45L131.83 154.14L131.89 153.84L131.95 153.54L132.03 153.25L132.12 152.96L132.22 152.67L132.33 152.39L132.46 152.12L132.59 151.85L132.73 151.59L132.88 151.34L133.04 151.09L133.21 150.84L133.39 150.61L133.58 150.38L133.78 150.16L133.98 149.95L134.2 149.74L134.42 149.55L134.64 149.36L134.88 149.18L135.12 149.01L135.37 148.85L135.63 148.7L135.89 148.55L136.16 148.42L136.43 148.3L136.71 148.19L136.99 148.09L137.28 148L137.58 147.92L137.87 147.85L138.18 147.8L138.48 147.75L138.79 147.72L139.11 147.7L139.43 147.7L268.8 147.7L269.11 147.7L269.43 147.72Z" id="c7L8SyHlX"></path><linearGradient id="gradientbmlIAvSVD" gradientUnits="userSpaceOnUse" x1="204.11" y1="147.7" x2="204.11" y2="163.09"><stop style="stop-color: #850db0;stop-opacity: 1" offset="0%"></stop><stop style="stop-color: #c63e70;stop-opacity: 1" offset="61.47239594626532%"></stop><stop style="stop-color: #fea602;stop-opacity: 1" offset="100%"></stop></linearGradient><path d="M252.07 176.21L252.38 176.24L252.69 176.28L252.99 176.34L253.29 176.4L253.58 176.48L253.87 176.57L254.16 176.67L254.44 176.78L254.71 176.91L254.98 177.04L255.24 177.18L255.49 177.33L255.74 177.49L255.99 177.66L256.22 177.84L256.45 178.03L256.67 178.23L256.88 178.43L257.09 178.65L257.28 178.87L257.47 179.09L257.65 179.33L257.82 179.57L257.98 179.82L258.14 180.08L258.28 180.34L258.41 180.61L258.53 180.88L258.64 181.16L258.74 181.44L258.83 181.73L258.91 182.03L258.98 182.32L259.04 182.63L259.08 182.93L259.11 183.24L259.13 183.56L259.14 183.88L259.13 184.19L259.11 184.51L259.08 184.82L259.04 185.12L258.98 185.43L258.91 185.73L258.83 186.02L258.74 186.31L258.64 186.59L258.53 186.87L258.41 187.15L258.28 187.41L258.14 187.67L257.98 187.93L257.82 188.18L257.65 188.42L257.47 188.66L257.28 188.88L257.09 189.11L256.88 189.32L256.67 189.52L256.45 189.72L256.22 189.91L255.99 190.09L255.74 190.26L255.49 190.42L255.24 190.57L254.98 190.71L254.71 190.84L254.44 190.97L254.16 191.08L253.87 191.18L253.58 191.27L253.29 191.35L252.99 191.41L252.69 191.47L252.38 191.51L252.07 191.54L251.76 191.56L251.44 191.57L139.43 191.57L139.11 191.56L138.79 191.54L138.48 191.51L138.18 191.47L137.87 191.41L137.58 191.35L137.28 191.27L136.99 191.18L136.71 191.08L136.43 190.97L136.16 190.84L135.89 190.71L135.63 190.57L135.37 190.42L135.12 190.26L134.88 190.09L134.64 189.91L134.42 189.72L134.2 189.52L133.98 189.32L133.78 189.11L133.58 188.88L133.39 188.66L133.21 188.42L133.04 188.18L132.88 187.93L132.73 187.67L132.59 187.41L132.46 187.15L132.33 186.87L132.22 186.59L132.12 186.31L132.03 186.02L131.95 185.73L131.89 185.43L131.83 185.12L131.79 184.82L131.76 184.51L131.74 184.19L131.73 183.88L131.74 183.56L131.76 183.24L131.79 182.93L131.83 182.63L131.89 182.32L131.95 182.03L132.03 181.73L132.12 181.44L132.22 181.16L132.33 180.88L132.46 180.61L132.59 180.34L132.73 180.08L132.88 179.82L133.04 179.57L133.21 179.33L133.39 179.09L133.58 178.87L133.78 178.65L133.98 178.43L134.2 178.23L134.42 178.03L134.64 177.84L134.88 177.66L135.12 177.49L135.37 177.33L135.63 177.18L135.89 177.04L136.16 176.91L136.43 176.78L136.71 176.67L136.99 176.57L137.28 176.48L137.58 176.4L137.87 176.34L138.18 176.28L138.48 176.24L138.79 176.21L139.11 176.19L139.43 176.18L251.44 176.18L251.76 176.19L252.07 176.21Z" id="a12qo0Yf12"></path><linearGradient id="gradientatJlxaJw" gradientUnits="userSpaceOnUse" x1="195.43" y1="176.18" x2="195.43" y2="191.57"><stop style="stop-color: #850db0;stop-opacity: 1" offset="0%"></stop><stop style="stop-color: #c63e70;stop-opacity: 1" offset="61.47239594626532%"></stop><stop style="stop-color: #fea602;stop-opacity: 1" offset="100%"></stop></linearGradient><path d="M210.35 233.18L210.68 233.22L211.01 233.27L211.34 233.33L211.66 233.41L211.97 233.5L212.28 233.61L212.58 233.73L212.88 233.86L213.17 234L213.46 234.15L213.73 234.31L214 234.49L214.26 234.68L214.51 234.87L214.76 235.08L214.99 235.29L215.22 235.52L215.43 235.76L215.64 236L215.84 236.25L216.02 236.51L216.2 236.78L216.36 237.06L216.52 237.34L216.66 237.63L216.79 237.93L216.9 238.23L217.01 238.54L217.1 238.85L217.18 239.18L217.24 239.5L217.29 239.83L217.33 240.17L217.35 240.5L217.36 240.85L217.35 241.19L217.33 241.53L217.29 241.86L217.24 242.2L217.18 242.52L217.1 242.84L217.01 243.16L216.9 243.47L216.79 243.77L216.66 244.07L216.52 244.36L216.36 244.64L216.2 244.92L216.02 245.19L215.84 245.45L215.64 245.7L215.43 245.94L215.22 246.18L214.99 246.4L214.76 246.62L214.51 246.82L214.26 247.02L214 247.21L213.73 247.38L213.46 247.55L213.17 247.7L212.88 247.84L212.59 247.97L212.28 248.09L211.97 248.19L211.66 248.28L211.34 248.36L211.01 248.43L210.68 248.48L210.35 248.51L210.01 248.54L209.66 248.54L139.43 248.54L139.08 248.54L138.74 248.51L138.41 248.48L138.08 248.43L137.75 248.36L137.43 248.28L137.12 248.19L136.81 248.09L136.5 247.97L136.21 247.84L135.92 247.7L135.63 247.55L135.36 247.38L135.09 247.21L134.83 247.02L134.58 246.82L134.33 246.62L134.1 246.4L133.87 246.18L133.65 245.94L133.45 245.7L133.25 245.45L133.07 245.19L132.89 244.92L132.73 244.64L132.57 244.36L132.43 244.07L132.3 243.77L132.19 243.47L132.08 243.16L131.99 242.84L131.91 242.52L131.85 242.2L131.8 241.86L131.76 241.53L131.74 241.19L131.73 240.85L131.74 240.5L131.76 240.17L131.8 239.83L131.85 239.5L131.91 239.18L131.99 238.85L132.08 238.54L132.19 238.23L132.3 237.93L132.43 237.63L132.57 237.34L132.73 237.06L132.89 236.78L133.07 236.51L133.25 236.25L133.45 236L133.65 235.76L133.87 235.52L134.1 235.29L134.33 235.08L134.58 234.87L134.83 234.68L135.09 234.49L135.36 234.31L135.63 234.15L135.92 234L136.21 233.86L136.5 233.73L136.81 233.61L137.12 233.5L137.43 233.41L137.75 233.33L138.08 233.27L138.41 233.22L138.74 233.18L139.08 233.16L139.43 233.15L209.66 233.15L210.01 233.16L210.35 233.18Z" id="c10rqi0cJZ"></path><linearGradient id="gradientbEzl7AgL3" gradientUnits="userSpaceOnUse" x1="174.54" y1="233.15" x2="174.54" y2="248.54"><stop style="stop-color: #850db0;stop-opacity: 1" offset="0%"></stop><stop style="stop-color: #c63e70;stop-opacity: 1" offset="61.47239594626532%"></stop><stop style="stop-color: #fea602;stop-opacity: 1" offset="100%"></stop></linearGradient><path d="M347.39 182.97L347.69 183L347.98 183.04L348.27 183.09L348.56 183.16L348.85 183.23L349.13 183.32L349.41 183.41L349.69 183.52L349.96 183.64L350.23 183.77L350.49 183.91L350.75 184.06L351 184.22L351.25 184.39L351.49 184.57L351.73 184.76L351.96 184.96L352.18 185.18L352.4 185.4L352.61 185.63L352.8 185.88L353 186.13L354.76 188.55L356.44 190.81L358.02 192.92L359.52 194.89L360.93 196.72L362.24 198.42L363.47 200L364.61 201.48L365.65 202.85L366.61 204.14L367.47 205.33L368.25 206.45L368.93 207.51L369.53 208.5L370.03 209.45L370.45 210.35L370.77 211.22L371 212.06L371.14 212.89L371.19 213.71L371.15 214.53L371.02 215.36L370.79 216.21L370.48 217.08L370.07 217.99L369.58 218.94L368.99 219.94L368.31 221L367.54 222.14L366.67 223.34L365.72 224.64L364.67 226.02L363.53 227.51L362.31 229.11L360.98 230.83L359.57 232.68L358.06 234.67L356.47 236.8L354.78 239.08L353 241.52L352.81 241.78L352.61 242.02L352.4 242.25L352.18 242.48L351.96 242.69L351.73 242.89L351.5 243.08L351.25 243.27L351.01 243.44L350.75 243.6L350.49 243.75L350.23 243.89L349.96 244.02L349.69 244.13L349.41 244.24L349.13 244.34L348.85 244.42L348.56 244.5L348.27 244.56L347.98 244.61L347.69 244.66L347.4 244.69L347.1 244.7L346.81 244.71L346.51 244.71L346.21 244.69L345.92 244.67L345.62 244.63L345.33 244.58L345.04 244.52L344.74 244.44L344.46 244.36L344.17 244.26L343.88 244.16L343.6 244.04L343.32 243.9L343.05 243.76L342.78 243.6L342.51 243.43L342.25 243.25L342 243.06L341.76 242.86L341.52 242.66L341.3 242.44L341.09 242.22L340.88 241.99L340.69 241.75L340.51 241.51L340.34 241.26L340.18 241.01L340.03 240.75L339.89 240.48L339.76 240.22L339.64 239.94L339.53 239.67L339.44 239.39L339.35 239.1L339.28 238.82L339.21 238.53L339.16 238.24L339.12 237.94L339.09 237.65L339.07 237.36L339.06 237.06L339.07 236.76L339.08 236.47L339.11 236.17L339.15 235.88L339.2 235.58L339.26 235.29L339.33 235L339.42 234.71L339.51 234.42L339.62 234.14L339.74 233.86L339.87 233.58L340.02 233.3L340.17 233.03L340.34 232.77L340.52 232.51L348.46 221.52L301.41 221.52L301.09 221.52L300.78 221.5L300.46 221.47L300.16 221.42L299.86 221.37L299.56 221.3L299.26 221.22L298.97 221.13L298.69 221.03L298.41 220.92L298.14 220.8L297.87 220.66L297.61 220.52L297.35 220.37L297.1 220.21L296.86 220.04L296.63 219.86L296.4 219.67L296.18 219.47L295.96 219.27L295.76 219.06L295.56 218.84L295.38 218.61L295.2 218.37L295.03 218.13L294.86 217.88L294.71 217.63L294.57 217.36L294.44 217.1L294.32 216.82L294.2 216.54L294.1 216.26L294.01 215.97L293.93 215.68L293.87 215.38L293.81 215.08L293.77 214.77L293.74 214.46L293.72 214.15L293.71 213.83L293.72 213.51L293.74 213.2L293.77 212.89L293.81 212.58L293.87 212.28L293.93 211.98L294.01 211.68L294.1 211.4L294.2 211.11L294.32 210.83L294.44 210.56L294.57 210.29L294.71 210.03L294.86 209.77L295.03 209.53L295.2 209.28L295.38 209.05L295.56 208.82L295.76 208.6L295.96 208.39L296.18 208.18L296.4 207.99L296.63 207.8L296.86 207.62L297.1 207.45L297.35 207.29L297.61 207.13L297.87 206.99L298.14 206.86L298.41 206.74L298.69 206.63L298.97 206.53L299.26 206.44L299.56 206.36L299.86 206.29L300.16 206.23L300.46 206.19L300.78 206.16L301.09 206.14L301.41 206.13L348.46 206.13L340.52 195.14L340.34 194.88L340.17 194.62L340.02 194.35L339.87 194.07L339.74 193.8L339.62 193.52L339.51 193.23L339.42 192.94L339.33 192.66L339.26 192.36L339.2 192.07L339.15 191.78L339.11 191.48L339.08 191.19L339.07 190.89L339.07 190.59L339.07 190.3L339.09 190L339.12 189.71L339.16 189.42L339.22 189.13L339.28 188.84L339.35 188.55L339.44 188.27L339.54 187.99L339.64 187.71L339.76 187.44L339.89 187.17L340.03 186.91L340.18 186.65L340.34 186.39L340.51 186.14L340.69 185.9L340.89 185.67L341.09 185.44L341.3 185.21L341.52 185L341.76 184.79L342 184.59L342.25 184.4L342.51 184.22L342.78 184.05L343.05 183.9L343.32 183.75L343.6 183.62L343.88 183.5L344.17 183.39L344.45 183.29L344.74 183.21L345.03 183.14L345.33 183.07L345.62 183.03L345.92 182.99L346.21 182.96L346.51 182.95L346.8 182.94L347.1 182.95L347.39 182.97Z" id="a1SUfp66L"></path><linearGradient id="gradientdueibp2qI" gradientUnits="userSpaceOnUse" x1="332.45" y1="182.94" x2="332.45" y2="244.71"><stop style="stop-color: #850db0;stop-opacity: 1" offset="0%"></stop><stop style="stop-color: #c63e70;stop-opacity: 1" offset="61.47239594626532%"></stop><stop style="stop-color: #fea602;stop-opacity: 1" offset="100%"></stop></linearGradient><path d="M286.31 5.84L286.62 5.87L286.93 5.91L287.23 5.97L287.53 6.04L287.83 6.12L288.11 6.21L288.4 6.31L288.68 6.42L288.95 6.54L289.22 6.67L289.48 6.81L289.74 6.97L289.98 7.13L290.23 7.3L290.46 7.48L290.69 7.67L290.91 7.86L291.12 8.07L291.33 8.28L291.53 8.5L291.71 8.73L291.89 8.96L292.06 9.21L292.23 9.46L292.38 9.71L292.52 9.97L292.65 10.24L292.77 10.51L292.89 10.79L292.99 11.08L293.08 11.37L293.16 11.66L293.22 11.96L293.28 12.26L293.32 12.57L293.35 12.88L293.37 13.19L293.38 13.51L293.37 13.82L293.35 14.14L293.32 14.45L293.28 14.76L293.22 15.06L293.16 15.36L293.08 15.65L292.99 15.94L292.89 16.22L292.77 16.5L292.65 16.77L292.52 17.04L292.38 17.3L292.23 17.56L292.06 17.81L291.89 18.05L291.71 18.29L291.53 18.51L291.33 18.73L291.12 18.95L290.91 19.15L290.69 19.35L290.46 19.54L290.23 19.72L289.98 19.89L289.74 20.05L289.48 20.2L289.22 20.34L288.95 20.48L288.68 20.6L288.4 20.71L288.11 20.81L287.83 20.9L287.53 20.98L287.23 21.05L286.93 21.1L286.62 21.15L286.31 21.18L286 21.2L285.68 21.2L26.2 21.2L25.75 21.21L25.31 21.24L24.87 21.28L24.44 21.34L24.02 21.42L23.6 21.52L23.19 21.63L22.78 21.75L22.38 21.9L21.99 22.05L21.61 22.22L21.23 22.41L20.87 22.61L20.51 22.82L20.16 23.05L19.82 23.29L19.49 23.54L19.17 23.81L18.86 24.08L18.56 24.37L18.27 24.67L17.99 24.98L17.73 25.3L17.48 25.63L17.24 25.97L17.01 26.32L16.8 26.68L16.6 27.05L16.41 27.42L16.24 27.8L16.08 28.2L15.94 28.6L15.82 29L15.71 29.41L15.61 29.83L15.53 30.26L15.47 30.69L15.43 31.12L15.4 31.56L15.39 32.01L15.39 205.18L15.38 205.49L15.37 205.81L15.33 206.12L15.29 206.42L15.23 206.73L15.17 207.02L15.09 207.32L15 207.61L14.9 207.89L14.79 208.17L14.66 208.44L14.53 208.71L14.39 208.97L14.24 209.23L14.08 209.48L13.9 209.72L13.73 209.95L13.54 210.18L13.34 210.4L13.14 210.62L12.92 210.82L12.7 211.02L12.47 211.21L12.24 211.39L12 211.56L11.75 211.72L11.49 211.87L11.23 212.01L10.96 212.14L10.69 212.27L10.41 212.38L10.13 212.48L9.84 212.57L9.54 212.65L9.25 212.71L8.94 212.77L8.64 212.81L8.33 212.85L8.01 212.86L7.7 212.87L7.38 212.86L7.06 212.85L6.75 212.81L6.45 212.77L6.15 212.71L5.85 212.65L5.55 212.57L5.26 212.48L4.98 212.38L4.7 212.27L4.43 212.14L4.16 212.01L3.9 211.87L3.64 211.72L3.39 211.56L3.15 211.39L2.92 211.21L2.69 211.02L2.47 210.82L2.26 210.62L2.05 210.4L1.85 210.18L1.67 209.95L1.49 209.72L1.32 209.48L1.15 209.23L1 208.97L0.86 208.71L0.73 208.44L0.61 208.17L0.49 207.89L0.39 207.61L0.3 207.32L0.22 207.02L0.16 206.73L0.1 206.42L0.06 206.12L0.03 205.81L0.01 205.49L0 205.18L0 32.01L0.02 30.93L0.09 29.86L0.19 28.81L0.34 27.76L0.53 26.73L0.76 25.72L1.03 24.72L1.34 23.74L1.68 22.77L2.06 21.82L2.48 20.89L2.93 19.98L3.41 19.09L3.93 18.22L4.48 17.37L5.06 16.55L5.67 15.75L6.31 14.97L6.98 14.22L7.68 13.49L8.41 12.8L9.16 12.13L9.93 11.48L10.73 10.87L11.56 10.29L12.41 9.74L13.28 9.22L14.17 8.74L15.08 8.29L16.01 7.87L16.96 7.49L17.92 7.15L18.91 6.84L19.91 6.58L20.92 6.35L21.95 6.16L22.99 6.01L24.05 5.9L25.12 5.83L26.2 5.81L285.68 5.81L286 5.82L286.31 5.84Z" id="a2YMr7vkBm"></path><linearGradient id="gradientc424MpKTrJ" gradientUnits="userSpaceOnUse" x1="146.69" y1="5.81" x2="146.69" y2="212.87"><stop style="stop-color: #850db0;stop-opacity: 1" offset="0%"></stop><stop style="stop-color: #c63e70;stop-opacity: 1" offset="61.47239594626532%"></stop><stop style="stop-color: #fea602;stop-opacity: 1" offset="100%"></stop></linearGradient><path d="M487.95 5.9L489.01 6.01L490.05 6.16L491.08 6.35L492.09 6.58L493.09 6.84L494.08 7.15L495.04 7.49L495.99 7.87L496.92 8.29L497.83 8.74L498.72 9.22L499.59 9.74L500.44 10.29L501.27 10.87L502.07 11.48L502.84 12.13L503.59 12.8L504.32 13.49L505.02 14.22L505.69 14.97L506.33 15.75L506.94 16.55L507.52 17.37L508.07 18.22L508.59 19.09L509.07 19.98L509.52 20.89L509.94 21.82L510.32 22.77L510.66 23.74L510.97 24.72L511.24 25.72L511.47 26.73L511.66 27.76L511.81 28.81L511.91 29.86L511.98 30.93L512 32.01L512 352.22L511.98 353.3L511.91 354.36L511.81 355.42L511.66 356.46L511.47 357.49L511.24 358.51L510.97 359.51L510.66 360.49L510.32 361.46L509.94 362.41L509.52 363.34L509.07 364.25L508.59 365.14L508.07 366.01L507.52 366.86L506.94 367.68L506.33 368.48L505.69 369.26L505.02 370.01L504.32 370.73L503.59 371.43L502.84 372.1L502.07 372.74L501.27 373.35L500.44 373.93L499.59 374.48L498.72 375L497.83 375.49L496.92 375.94L495.99 376.35L495.04 376.73L494.08 377.08L493.09 377.38L492.09 377.65L491.08 377.88L490.05 378.07L489.01 378.22L487.95 378.33L486.88 378.39L485.8 378.41L301.95 378.41L316.59 451.29L346.55 451.29L347.36 451.31L348.17 451.36L348.96 451.44L349.75 451.55L350.52 451.7L351.29 451.87L352.04 452.07L352.78 452.3L353.51 452.56L354.23 452.85L354.93 453.16L355.62 453.5L356.29 453.87L356.94 454.26L357.58 454.67L358.2 455.11L358.81 455.57L359.39 456.06L359.96 456.56L360.51 457.09L361.03 457.63L361.54 458.2L362.02 458.79L362.48 459.39L362.92 460.01L363.34 460.65L363.73 461.31L364.09 461.98L364.43 462.67L364.75 463.37L365.03 464.08L365.29 464.81L365.52 465.55L365.73 466.31L365.9 467.07L366.04 467.85L366.15 468.63L366.24 469.43L366.28 470.23L366.3 471.05L366.3 486.44L366.28 487.25L366.24 488.05L366.15 488.85L366.04 489.64L365.9 490.41L365.73 491.18L365.52 491.93L365.29 492.67L365.03 493.4L364.75 494.11L364.43 494.82L364.09 495.5L363.73 496.17L363.34 496.83L362.92 497.47L362.48 498.09L362.02 498.69L361.54 499.28L361.03 499.85L360.51 500.39L359.96 500.92L359.39 501.43L358.81 501.91L358.2 502.37L357.58 502.81L356.94 503.22L356.29 503.61L355.62 503.98L354.93 504.32L354.23 504.63L353.51 504.92L352.78 505.18L352.04 505.41L351.29 505.61L350.52 505.79L349.75 505.93L348.96 506.04L348.17 506.12L347.36 506.17L346.55 506.19L165.45 506.19L164.64 506.17L163.83 506.12L163.04 506.04L162.25 505.93L161.48 505.79L160.71 505.61L159.96 505.41L159.22 505.18L158.49 504.92L157.77 504.63L157.07 504.32L156.38 503.98L155.71 503.61L155.06 503.22L154.42 502.81L153.8 502.37L153.19 501.91L152.61 501.43L152.04 500.92L151.49 500.39L150.97 499.85L150.46 499.28L149.98 498.69L149.52 498.09L149.08 497.47L148.66 496.83L148.27 496.17L147.91 495.5L147.57 494.82L147.25 494.11L146.97 493.4L146.71 492.67L146.48 491.93L146.27 491.18L146.1 490.41L145.96 489.64L145.85 488.85L145.76 488.05L145.72 487.25L145.7 486.44L145.7 471.05L145.72 470.23L145.76 469.43L145.85 468.63L145.96 467.85L146.1 467.07L146.27 466.31L146.48 465.55L146.71 464.81L146.97 464.08L147.25 463.37L147.57 462.67L147.91 461.98L148.27 461.31L148.66 460.65L149.08 460.01L149.52 459.39L149.98 458.79L150.46 458.2L150.97 457.63L151.49 457.09L152.04 456.56L152.61 456.06L153.19 455.57L153.8 455.11L154.42 454.67L155.06 454.26L155.71 453.87L156.38 453.5L157.07 453.16L157.77 452.85L158.49 452.56L159.22 452.3L159.96 452.07L160.71 451.87L161.48 451.7L162.25 451.55L163.04 451.44L163.83 451.36L164.64 451.31L165.45 451.29L195.41 451.29L210.05 378.41L26.2 378.41L25.12 378.39L24.05 378.33L22.99 378.22L21.95 378.07L20.92 377.88L19.91 377.65L18.91 377.38L17.92 377.08L16.96 376.73L16.01 376.35L15.08 375.94L14.17 375.49L13.28 375L12.41 374.48L11.56 373.93L10.73 373.35L9.93 372.74L9.16 372.1L8.41 371.43L7.68 370.73L6.98 370.01L6.31 369.26L5.67 368.48L5.06 367.68L4.48 366.86L3.93 366.01L3.41 365.14L2.93 364.25L2.48 363.34L2.06 362.41L1.68 361.46L1.34 360.49L1.03 359.51L0.76 358.51L0.53 357.49L0.34 356.46L0.19 355.42L0.09 354.36L0.02 353.3L0 352.22L0 235.96L0.01 235.64L0.03 235.33L0.06 235.02L0.1 234.71L0.16 234.41L0.22 234.11L0.3 233.81L0.39 233.52L0.49 233.24L0.61 232.96L0.73 232.69L0.86 232.42L1 232.16L1.15 231.9L1.32 231.65L1.49 231.41L1.67 231.18L1.85 230.95L2.05 230.73L2.26 230.52L2.47 230.31L2.69 230.11L2.92 229.93L3.15 229.75L3.39 229.58L3.64 229.41L3.9 229.26L4.16 229.12L4.43 228.99L4.7 228.87L4.98 228.75L5.26 228.65L5.55 228.56L5.85 228.49L6.15 228.42L6.45 228.36L6.75 228.32L7.06 228.29L7.38 228.27L7.7 228.26L8.01 228.27L8.33 228.29L8.64 228.32L8.94 228.36L9.25 228.42L9.54 228.49L9.84 228.56L10.13 228.65L10.41 228.75L10.69 228.87L10.96 228.99L11.23 229.12L11.49 229.26L11.75 229.41L12 229.58L12.24 229.75L12.47 229.93L12.7 230.11L12.92 230.31L13.14 230.52L13.34 230.73L13.54 230.95L13.73 231.18L13.9 231.41L14.08 231.65L14.24 231.9L14.39 232.16L14.53 232.42L14.66 232.69L14.79 232.96L14.9 233.24L15 233.52L15.09 233.81L15.17 234.11L15.23 234.41L15.29 234.71L15.33 235.02L15.37 235.33L15.38 235.64L15.39 235.96L15.39 298.85L496.61 298.85L496.61 32.01L496.6 31.56L496.57 31.12L496.53 30.69L496.47 30.26L496.39 29.83L496.29 29.41L496.18 29L496.06 28.6L495.92 28.2L495.76 27.8L495.59 27.42L495.4 27.05L495.2 26.68L494.99 26.32L494.76 25.97L494.52 25.63L494.27 25.3L494.01 24.98L493.73 24.67L493.44 24.37L493.14 24.08L492.83 23.81L492.51 23.54L492.18 23.29L491.84 23.05L491.49 22.82L491.13 22.61L490.77 22.41L490.39 22.22L490.01 22.05L489.62 21.9L489.22 21.75L488.81 21.63L488.4 21.52L487.98 21.42L487.56 21.34L487.13 21.28L486.69 21.24L486.25 21.21L485.8 21.2L316.46 21.2L316.15 21.2L315.83 21.18L315.52 21.15L315.22 21.1L314.92 21.05L314.62 20.98L314.32 20.9L314.03 20.81L313.75 20.71L313.47 20.6L313.2 20.48L312.93 20.34L312.67 20.2L312.41 20.05L312.16 19.89L311.92 19.72L311.69 19.54L311.46 19.35L311.24 19.15L311.02 18.95L310.82 18.73L310.62 18.51L310.43 18.29L310.26 18.05L310.08 17.81L309.92 17.56L309.77 17.3L309.63 17.04L309.5 16.77L309.37 16.5L309.26 16.22L309.16 15.94L309.07 15.65L308.99 15.36L308.93 15.06L308.87 14.76L308.83 14.45L308.8 14.14L308.78 13.82L308.77 13.51L308.78 13.19L308.8 12.88L308.83 12.57L308.87 12.26L308.93 11.96L308.99 11.66L309.07 11.37L309.16 11.08L309.26 10.79L309.37 10.51L309.5 10.24L309.63 9.97L309.77 9.71L309.92 9.46L310.08 9.21L310.26 8.96L310.43 8.73L310.62 8.5L310.82 8.28L311.02 8.07L311.24 7.86L311.46 7.67L311.69 7.48L311.92 7.3L312.16 7.13L312.41 6.97L312.67 6.81L312.93 6.67L313.2 6.54L313.47 6.42L313.75 6.31L314.03 6.21L314.32 6.12L314.62 6.04L314.92 5.97L315.22 5.91L315.52 5.87L315.83 5.84L316.15 5.82L316.46 5.81L485.8 5.81L486.88 5.83L487.95 5.9ZM165.27 466.69L165.09 466.7L164.92 466.72L164.74 466.74L164.57 466.77L164.4 466.81L164.24 466.86L164.07 466.91L163.91 466.96L163.76 467.03L163.6 467.1L163.45 467.17L163.3 467.25L163.16 467.34L163.02 467.43L162.88 467.53L162.75 467.63L162.62 467.74L162.49 467.85L162.37 467.96L162.25 468.09L162.14 468.21L162.04 468.34L161.93 468.47L161.84 468.61L161.75 468.75L161.66 468.9L161.58 469.04L161.5 469.2L161.43 469.35L161.37 469.51L161.31 469.67L161.26 469.83L161.22 470L161.18 470.17L161.15 470.34L161.12 470.51L161.1 470.69L161.09 470.87L161.09 471.05L161.09 486.44L161.09 486.62L161.1 486.79L161.12 486.97L161.15 487.14L161.18 487.31L161.22 487.48L161.26 487.65L161.31 487.81L161.37 487.97L161.43 488.13L161.5 488.29L161.58 488.44L161.66 488.59L161.75 488.73L161.84 488.87L161.93 489.01L162.04 489.14L162.14 489.27L162.25 489.4L162.37 489.52L162.49 489.63L162.62 489.74L162.75 489.85L162.88 489.95L163.02 490.05L163.16 490.14L163.3 490.23L163.45 490.31L163.6 490.38L163.76 490.45L163.91 490.52L164.07 490.57L164.24 490.62L164.4 490.67L164.57 490.71L164.74 490.74L164.92 490.76L165.09 490.78L165.27 490.79L165.45 490.8L346.55 490.8L346.73 490.79L346.91 490.78L347.08 490.76L347.26 490.74L347.43 490.71L347.6 490.67L347.76 490.62L347.93 490.57L348.09 490.52L348.24 490.45L348.4 490.38L348.55 490.31L348.7 490.23L348.84 490.14L348.98 490.05L349.12 489.95L349.25 489.85L349.38 489.74L349.51 489.63L349.63 489.52L349.75 489.4L349.86 489.27L349.96 489.14L350.07 489.01L350.16 488.87L350.25 488.73L350.34 488.59L350.42 488.44L350.5 488.29L350.57 488.13L350.63 487.97L350.69 487.81L350.74 487.65L350.78 487.48L350.82 487.31L350.85 487.14L350.88 486.97L350.9 486.79L350.91 486.62L350.91 486.44L350.91 471.05L350.91 470.87L350.9 470.69L350.88 470.51L350.85 470.34L350.82 470.17L350.78 470L350.74 469.83L350.69 469.67L350.63 469.51L350.57 469.35L350.5 469.2L350.42 469.04L350.34 468.9L350.25 468.75L350.16 468.61L350.07 468.47L349.96 468.34L349.86 468.21L349.75 468.09L349.63 467.96L349.51 467.85L349.38 467.74L349.25 467.63L349.12 467.53L348.98 467.43L348.84 467.34L348.7 467.25L348.55 467.17L348.4 467.1L348.24 467.03L348.09 466.96L347.93 466.91L347.76 466.86L347.6 466.81L347.43 466.77L347.26 466.74L347.08 466.72L346.91 466.7L346.73 466.69L346.55 466.68L165.45 466.68L165.27 466.69ZM211.11 451.29L300.89 451.29L286.25 378.41L225.75 378.41L211.11 451.29ZM15.39 352.22L15.4 352.66L15.43 353.1L15.47 353.54L15.53 353.97L15.61 354.39L15.71 354.81L15.82 355.23L15.94 355.63L16.08 356.03L16.24 356.42L16.41 356.81L16.6 357.18L16.8 357.55L17.01 357.91L17.24 358.26L17.48 358.6L17.73 358.93L17.99 359.25L18.27 359.56L18.56 359.86L18.86 360.14L19.17 360.42L19.49 360.68L19.82 360.94L20.16 361.18L20.51 361.4L20.87 361.62L21.23 361.82L21.61 362L21.99 362.17L22.38 362.33L22.78 362.47L23.19 362.6L23.6 362.71L24.02 362.8L24.44 362.88L24.87 362.94L25.31 362.99L25.75 363.01L26.2 363.02L485.8 363.02L486.25 363.01L486.69 362.99L487.13 362.94L487.56 362.88L487.98 362.8L488.4 362.71L488.81 362.6L489.22 362.47L489.62 362.33L490.01 362.17L490.39 362L490.77 361.82L491.13 361.62L491.49 361.4L491.84 361.18L492.18 360.94L492.51 360.68L492.83 360.42L493.14 360.14L493.44 359.86L493.73 359.56L494.01 359.25L494.27 358.93L494.52 358.6L494.76 358.26L494.99 357.91L495.2 357.55L495.4 357.18L495.59 356.81L495.76 356.42L495.92 356.03L496.06 355.63L496.18 355.23L496.29 354.81L496.39 354.39L496.47 353.97L496.53 353.54L496.57 353.1L496.6 352.66L496.61 352.22L496.61 314.24L15.39 314.24L15.39 352.22Z" id="b5vc39k1L"></path><linearGradient id="gradientb1wPcE2HWx" gradientUnits="userSpaceOnUse" x1="256" y1="5.81" x2="256" y2="506.19"><stop style="stop-color: #850db0;stop-opacity: 1" offset="0%"></stop><stop style="stop-color: #c63e70;stop-opacity: 1" offset="61.47239594626532%"></stop><stop style="stop-color: #fea602;stop-opacity: 1" offset="100%"></stop></linearGradient><path d="M461.52 318.67L462.8 318.87L464.04 319.16L465.26 319.52L466.44 319.96L467.59 320.47L468.7 321.04L469.76 321.68L470.79 322.39L471.76 323.15L472.69 323.97L473.56 324.84L474.39 325.77L475.15 326.75L475.85 327.77L476.49 328.84L477.07 329.94L477.57 331.09L478.01 332.27L478.37 333.49L478.66 334.74L478.87 336.01L479 337.31L479.04 338.63L479 339.95L478.87 341.25L478.66 342.53L478.37 343.77L478.01 344.99L477.57 346.17L477.07 347.32L476.49 348.43L475.85 349.49L475.15 350.52L474.39 351.49L473.56 352.42L472.69 353.29L471.76 354.11L470.79 354.88L469.76 355.58L468.7 356.22L467.59 356.79L466.44 357.3L465.26 357.74L464.04 358.1L462.8 358.39L461.52 358.6L460.22 358.72L458.9 358.77L457.58 358.72L456.28 358.6L455.01 358.39L453.76 358.1L452.55 357.74L451.36 357.3L450.22 356.79L449.11 356.22L448.04 355.58L447.02 354.88L446.04 354.11L445.12 353.29L444.24 352.42L443.42 351.49L442.66 350.52L441.95 349.49L441.31 348.43L440.74 347.32L440.23 346.17L439.79 344.99L439.43 343.77L439.14 342.53L438.94 341.25L438.81 339.95L438.77 338.63L438.81 337.31L438.94 336.01L439.14 334.74L439.43 333.49L439.79 332.27L440.23 331.09L440.74 329.94L441.31 328.84L441.95 327.77L442.66 326.75L443.42 325.77L444.24 324.84L445.12 323.97L446.04 323.15L447.02 322.39L448.04 321.68L449.11 321.04L450.22 320.47L451.36 319.96L452.55 319.52L453.76 319.16L455.01 318.87L456.28 318.67L457.58 318.54L458.9 318.5L460.22 318.54L461.52 318.67ZM456.1 334.8L455.07 335.83L454.4 337.13L454.16 338.63L454.4 340.13L455.07 341.43L456.1 342.46L457.4 343.13L458.9 343.38L460.4 343.13L461.7 342.46L462.73 341.43L463.41 340.13L463.65 338.63L463.41 337.13L462.73 335.83L461.7 334.8L460.4 334.13L458.9 333.89L457.4 334.13L456.1 334.8Z" id="bjGUpu8RX"></path><linearGradient id="gradienta1vS82BRLD" gradientUnits="userSpaceOnUse" x1="458.9" y1="318.5" x2="458.9" y2="358.77"><stop style="stop-color: #850db0;stop-opacity: 1" offset="0%"></stop><stop style="stop-color: #c63e70;stop-opacity: 1" offset="61.47239594626532%"></stop><stop style="stop-color: #fea602;stop-opacity: 1" offset="100%"></stop></linearGradient><path d="M408.68 318.66L409.95 318.87L411.2 319.16L412.42 319.52L413.6 319.96L414.75 320.47L415.85 321.04L416.92 321.68L417.95 322.38L418.92 323.15L419.85 323.97L420.73 324.84L421.55 325.77L422.31 326.75L423.01 327.77L423.65 328.84L424.23 329.95L424.74 331.09L425.17 332.28L425.54 333.49L425.82 334.74L426.03 336.01L426.16 337.31L426.2 338.63L426.16 339.95L426.03 341.25L425.82 342.53L425.54 343.77L425.17 344.99L424.74 346.17L424.23 347.32L423.65 348.43L423.01 349.49L422.31 350.52L421.55 351.49L420.73 352.42L419.85 353.29L418.92 354.11L417.95 354.88L416.92 355.58L415.85 356.22L414.75 356.79L413.6 357.3L412.42 357.74L411.2 358.1L409.95 358.39L408.68 358.6L407.38 358.72L406.06 358.77L404.74 358.72L403.44 358.6L402.16 358.39L400.92 358.1L399.7 357.74L398.52 357.3L397.37 356.79L396.26 356.22L395.2 355.58L394.17 354.88L393.2 354.11L392.27 353.29L391.39 352.42L390.57 351.49L389.81 350.52L389.11 349.49L388.47 348.43L387.89 347.32L387.38 346.17L386.95 344.99L386.58 343.77L386.3 342.53L386.09 341.25L385.96 339.95L385.92 338.63L385.96 337.31L386.09 336.01L386.3 334.74L386.58 333.49L386.95 332.28L387.38 331.09L387.89 329.95L388.47 328.84L389.11 327.77L389.81 326.75L390.57 325.77L391.39 324.84L392.27 323.97L393.2 323.15L394.17 322.38L395.2 321.68L396.26 321.04L397.37 320.47L398.52 319.96L399.7 319.52L400.92 319.16L402.16 318.87L403.44 318.66L404.74 318.54L406.06 318.49L407.38 318.54L408.68 318.66ZM403.26 334.8L402.23 335.83L401.55 337.13L401.31 338.63L401.55 340.13L402.23 341.43L403.26 342.46L404.56 343.13L406.06 343.38L407.56 343.13L408.86 342.46L409.89 341.43L410.57 340.13L410.81 338.63L410.57 337.13L409.89 335.83L408.86 334.8L407.56 334.13L406.06 333.88L404.56 334.13L403.26 334.8Z" id="i4wz5ygK8e"></path><linearGradient id="gradientg4KDSiUOz" gradientUnits="userSpaceOnUse" x1="406.06" y1="318.49" x2="406.06" y2="358.77"><stop style="stop-color: #850db0;stop-opacity: 1" offset="0%"></stop><stop style="stop-color: #c63e70;stop-opacity: 1" offset="61.47239594626532%"></stop><stop style="stop-color: #fea602;stop-opacity: 1" offset="100%"></stop></linearGradient></defs><g><g><g><use xlink:href="#a12mSzcaJ9" opacity="1" fill="url(#gradienta2ae0zHSDu)"></use><g><use xlink:href="#a12mSzcaJ9" opacity="1" fill-opacity="0" stroke="#000000" stroke-width="1" stroke-opacity="0"></use></g></g><g><use xlink:href="#axtl05H5p" opacity="1" fill="url(#gradientd60tWzh08Q)"></use><g><use xlink:href="#axtl05H5p" opacity="1" fill-opacity="0" stroke="#000000" stroke-width="1" stroke-opacity="0"></use></g></g><g><use xlink:href="#b1Iw6WajpE" opacity="1" fill="url(#gradientaCVIpxi62)"></use><g><use xlink:href="#b1Iw6WajpE" opacity="1" fill-opacity="0" stroke="#000000" stroke-width="1" stroke-opacity="0"></use></g></g><g><use xlink:href="#e3iiKr1Nrn" opacity="1" fill="url(#gradientg232wr58xY)"></use><g><use xlink:href="#e3iiKr1Nrn" opacity="1" fill-opacity="0" stroke="#000000" stroke-width="1" stroke-opacity="0"></use></g></g><g><use xlink:href="#c3vK0WKuy" opacity="1" fill="url(#gradientbmRDD6Qxa)"></use><g><use xlink:href="#c3vK0WKuy" opacity="1" fill-opacity="0" stroke="#000000" stroke-width="1" stroke-opacity="0"></use></g></g><g><use xlink:href="#c7L8SyHlX" opacity="1" fill="url(#gradientbmlIAvSVD)"></use><g><use xlink:href="#c7L8SyHlX" opacity="1" fill-opacity="0" stroke="#000000" stroke-width="1" stroke-opacity="0"></use></g></g><g><use xlink:href="#a12qo0Yf12" opacity="1" fill="url(#gradientatJlxaJw)"></use><g><use xlink:href="#a12qo0Yf12" opacity="1" fill-opacity="0" stroke="#000000" stroke-width="1" stroke-opacity="0"></use></g></g><g><use xlink:href="#c10rqi0cJZ" opacity="1" fill="url(#gradientbEzl7AgL3)"></use><g><use xlink:href="#c10rqi0cJZ" opacity="1" fill-opacity="0" stroke="#000000" stroke-width="1" stroke-opacity="0"></use></g></g><g><use xlink:href="#a1SUfp66L" opacity="1" fill="url(#gradientdueibp2qI)"></use><g><use xlink:href="#a1SUfp66L" opacity="1" fill-opacity="0" stroke="#000000" stroke-width="1" stroke-opacity="0"></use></g></g><g><use xlink:href="#a2YMr7vkBm" opacity="1" fill="url(#gradientc424MpKTrJ)"></use><g><use xlink:href="#a2YMr7vkBm" opacity="1" fill-opacity="0" stroke="#000000" stroke-width="1" stroke-opacity="0"></use></g></g><g><use xlink:href="#b5vc39k1L" opacity="1" fill="url(#gradientb1wPcE2HWx)"></use><g><use xlink:href="#b5vc39k1L" opacity="1" fill-opacity="0" stroke="#000000" stroke-width="1" stroke-opacity="0"></use></g></g><g><use xlink:href="#bjGUpu8RX" opacity="1" fill="url(#gradienta1vS82BRLD)"></use><g><use xlink:href="#bjGUpu8RX" opacity="1" fill-opacity="0" stroke="#000000" stroke-width="1" stroke-opacity="0"></use></g></g><g><use xlink:href="#i4wz5ygK8e" opacity="1" fill="url(#gradientg4KDSiUOz)"></use><g><use xlink:href="#i4wz5ygK8e" opacity="1" fill-opacity="0" stroke="#000000" stroke-width="1" stroke-opacity="0"></use></g></g></g></g></svg>