<?xml version="1.0" encoding="UTF-8" standalone="no"?>
<!DOCTYPE svg PUBLIC "-//W3C//DTD SVG 1.1//EN" "http://www.w3.org/Graphics/SVG/1.1/DTD/svg11.dtd">
<svg version="1.1" xmlns="http://www.w3.org/2000/svg" xmlns:xlink="http://www.w3.org/1999/xlink" preserveAspectRatio="xMidYMid meet" viewBox="0 0 512 512" width="512" height="512"><defs><path d="M199.24 41.54L202.25 41.68L205.26 41.89L208.25 42.15L211.23 42.48L214.2 42.85L217.15 43.29L220.09 43.78L223.01 44.33L225.92 44.94L228.81 45.6L231.69 46.32L234.55 47.1L237.38 47.93L240.2 48.81L243.01 49.75L245.79 50.74L248.54 51.79L251.28 52.9L254 54.05L256.69 55.26L259.36 56.52L262 57.84L264.62 59.21L267.22 60.63L269.79 62.1L272.33 63.63L274.84 65.2L277.33 66.83L279.78 68.51L282.21 70.24L284.61 72.02L286.97 73.85L289.31 75.73L291.61 77.66L293.88 79.64L296.11 81.67L298.32 83.74L300.48 85.87L302.61 88.04L304.69 90.24L306.71 92.47L308.69 94.74L310.62 97.05L312.5 99.38L314.33 101.75L316.11 104.14L317.84 106.57L319.52 109.03L321.15 111.51L322.72 114.03L324.25 116.57L325.72 119.13L327.14 121.73L328.51 124.35L329.83 126.99L331.09 129.66L332.3 132.35L333.46 135.07L334.56 137.81L335.61 140.57L336.6 143.35L337.54 146.15L338.43 148.97L339.26 151.81L340.03 154.66L340.75 157.54L341.41 160.43L342.02 163.34L342.57 166.26L343.06 169.2L343.5 172.16L343.88 175.12L344.2 178.1L344.46 181.1L344.67 184.1L344.81 187.12L344.9 190.14L344.93 193.18L344.9 196.21L344.81 199.24L344.67 202.25L344.46 205.26L344.2 208.25L343.88 211.23L343.5 214.2L343.06 217.15L342.57 220.09L342.02 223.01L341.41 225.92L340.75 228.81L340.03 231.69L339.26 234.55L338.43 237.39L337.54 240.21L336.6 243.01L335.61 245.79L334.56 248.55L333.46 251.28L332.3 254L331.09 256.69L329.83 259.36L328.51 262L327.14 264.62L325.72 267.22L324.25 269.79L322.72 272.33L321.15 274.84L319.52 277.33L317.84 279.78L316.11 282.21L314.33 284.61L312.5 286.97L310.62 289.31L308.69 291.61L306.71 293.88L304.69 296.12L302.61 298.32L300.48 300.48L298.32 302.61L296.11 304.69L293.88 306.72L291.61 308.69L289.31 310.62L286.97 312.5L284.61 314.33L282.21 316.11L279.78 317.84L277.32 319.52L274.84 321.15L272.33 322.73L269.79 324.25L267.22 325.72L264.62 327.14L262 328.51L259.36 329.83L256.69 331.09L254 332.3L251.28 333.46L248.54 334.56L245.79 335.61L243.01 336.6L240.2 337.54L237.38 338.43L234.55 339.26L231.69 340.03L228.81 340.75L225.92 341.41L223.01 342.02L220.09 342.57L217.15 343.06L214.2 343.5L211.23 343.88L208.25 344.2L205.26 344.46L202.25 344.67L199.24 344.82L196.21 344.9L193.18 344.93L190.14 344.9L187.11 344.82L184.1 344.67L181.1 344.46L178.1 344.2L175.12 343.88L172.16 343.5L169.2 343.06L166.26 342.57L163.34 342.02L160.43 341.41L157.54 340.75L154.66 340.03L151.81 339.26L148.97 338.43L146.15 337.54L143.35 336.6L140.57 335.61L137.81 334.56L135.07 333.46L132.35 332.3L129.66 331.09L126.99 329.83L124.35 328.51L121.73 327.14L119.13 325.72L116.57 324.25L114.03 322.73L111.51 321.15L109.03 319.52L106.57 317.84L104.14 316.11L101.75 314.33L99.38 312.5L97.05 310.62L94.74 308.69L92.47 306.72L90.24 304.69L88.04 302.61L85.87 300.48L83.74 298.32L81.67 296.12L79.64 293.88L77.66 291.61L75.73 289.31L73.85 286.97L72.02 284.61L70.24 282.21L68.51 279.78L66.83 277.33L65.2 274.84L63.63 272.33L62.1 269.79L60.63 267.22L59.21 264.62L57.84 262L56.52 259.36L55.26 256.69L54.05 254L52.9 251.28L51.79 248.55L50.74 245.79L49.75 243.01L48.81 240.21L47.93 237.39L47.1 234.55L46.32 231.69L45.6 228.81L44.94 225.92L44.33 223.01L43.78 220.09L43.29 217.15L42.85 214.2L42.48 211.23L42.15 208.25L41.89 205.26L41.68 202.25L41.54 199.24L41.45 196.21L41.42 193.18L41.45 190.14L41.54 187.12L41.68 184.1L41.89 181.1L42.15 178.1L42.48 175.12L42.85 172.16L43.29 169.2L43.78 166.26L44.33 163.34L44.94 160.43L45.6 157.54L46.32 154.66L47.1 151.81L47.93 148.97L48.81 146.15L49.75 143.35L50.74 140.57L51.79 137.81L52.9 135.07L54.05 132.35L55.26 129.66L56.52 126.99L57.84 124.35L59.21 121.73L60.63 119.13L62.1 116.57L63.63 114.03L65.2 111.51L66.83 109.03L68.51 106.57L70.24 104.14L72.02 101.75L73.85 99.38L75.73 97.05L77.66 94.74L79.64 92.47L81.67 90.24L83.74 88.04L85.87 85.87L88.04 83.74L90.24 81.67L92.47 79.64L94.74 77.66L97.05 75.73L99.38 73.85L101.75 72.02L104.14 70.24L106.57 68.51L109.03 66.83L111.51 65.2L114.03 63.63L116.57 62.1L119.13 60.63L121.73 59.21L124.35 57.84L126.99 56.52L129.66 55.26L132.35 54.05L135.07 52.9L137.81 51.79L140.57 50.74L143.35 49.75L146.15 48.81L148.97 47.93L151.81 47.1L154.66 46.32L157.54 45.6L160.43 44.94L163.34 44.33L166.26 43.78L169.2 43.29L172.15 42.85L175.12 42.48L178.1 42.15L181.09 41.89L184.1 41.68L187.11 41.54L190.14 41.45L193.18 41.42L196.21 41.45L199.24 41.54ZM187.92 61.72L185.31 61.85L182.7 62.03L180.11 62.26L177.53 62.54L174.95 62.87L172.39 63.24L169.85 63.67L167.31 64.15L164.79 64.67L162.28 65.25L159.79 65.87L157.31 66.54L154.85 67.26L152.41 68.03L149.98 68.84L147.57 69.7L145.18 70.61L142.8 71.57L140.45 72.57L138.12 73.62L135.8 74.71L133.51 75.86L131.24 77.04L128.99 78.27L126.76 79.55L124.56 80.87L122.38 82.24L120.23 83.65L118.1 85.1L115.99 86.6L113.92 88.15L111.87 89.73L109.84 91.36L107.85 93.04L105.88 94.75L103.94 96.51L102.03 98.31L100.15 100.15L96.4 104.06L92.84 108.08L89.48 112.21L86.3 116.44L83.32 120.77L80.53 125.19L77.94 129.69L75.53 134.27L73.32 138.93L71.3 143.65L69.47 148.43L67.84 153.26L66.4 158.15L65.14 163.07L64.09 168.04L63.22 173.03L62.55 178.04L62.07 183.08L61.78 188.12L61.68 193.18L61.78 198.23L62.07 203.27L62.55 208.31L63.22 213.32L64.09 218.32L65.14 223.28L66.4 228.2L67.84 233.09L69.47 237.92L71.3 242.7L73.32 247.42L75.53 252.08L77.94 256.66L80.53 261.16L83.32 265.58L86.3 269.91L89.48 274.14L92.84 278.27L96.4 282.29L100.15 286.2L102.03 288.04L103.94 289.84L105.88 291.6L107.85 293.32L109.84 294.99L111.87 296.62L113.92 298.21L115.99 299.75L118.1 301.25L120.23 302.7L122.38 304.11L124.56 305.48L126.76 306.8L128.99 308.08L131.24 309.31L133.51 310.5L135.8 311.64L138.12 312.73L140.45 313.78L142.8 314.78L145.18 315.74L147.57 316.65L149.98 317.51L152.41 318.32L154.85 319.09L157.31 319.81L159.79 320.48L162.28 321.1L164.79 321.68L167.31 322.21L169.85 322.68L172.39 323.11L174.95 323.49L177.53 323.82L180.11 324.09L182.7 324.32L185.31 324.5L187.92 324.63L190.54 324.71L193.18 324.73L195.81 324.71L198.43 324.63L201.04 324.5L203.65 324.32L206.24 324.09L208.83 323.82L211.4 323.49L213.96 323.11L216.51 322.68L219.04 322.2L221.56 321.68L224.07 321.1L226.56 320.48L229.04 319.81L231.5 319.09L233.94 318.32L236.37 317.51L238.78 316.65L241.17 315.74L243.55 314.78L245.9 313.78L248.24 312.73L250.55 311.64L252.84 310.5L255.11 309.31L257.36 308.08L259.59 306.8L261.79 305.48L263.97 304.11L266.12 302.7L268.25 301.25L270.36 299.75L272.43 298.21L274.49 296.62L276.51 294.99L278.51 293.32L280.47 291.6L282.41 289.84L284.32 288.04L286.2 286.2L289.95 282.29L293.51 278.27L296.87 274.14L300.05 269.91L303.03 265.58L305.82 261.16L308.42 256.66L310.82 252.08L313.03 247.42L315.05 242.7L316.88 237.92L318.51 233.09L319.96 228.2L321.21 223.28L322.26 218.32L323.13 213.32L323.8 208.31L324.28 203.27L324.57 198.23L324.67 193.18L324.57 188.12L324.28 183.08L323.8 178.04L323.13 173.03L322.26 168.04L321.21 163.07L319.96 158.15L318.51 153.26L316.88 148.43L315.05 143.65L313.03 138.93L310.82 134.27L308.42 129.69L305.82 125.19L303.03 120.77L300.05 116.44L296.87 112.21L293.51 108.08L289.95 104.06L286.2 100.15L284.32 98.31L282.41 96.51L280.47 94.75L278.51 93.04L276.51 91.36L274.49 89.73L272.43 88.15L270.36 86.6L268.25 85.1L266.12 83.65L263.97 82.24L261.79 80.87L259.59 79.55L257.36 78.27L255.11 77.04L252.84 75.86L250.55 74.71L248.24 73.62L245.9 72.57L243.55 71.57L241.17 70.61L238.78 69.7L236.37 68.84L233.94 68.03L231.5 67.26L229.04 66.54L226.56 65.87L224.07 65.25L221.56 64.67L219.04 64.15L216.51 63.67L213.96 63.24L211.4 62.87L208.83 62.54L206.24 62.26L203.65 62.03L201.04 61.85L198.43 61.72L195.81 61.65L193.18 61.62L190.54 61.65L187.92 61.72Z" id="c66EXARSOR"></path><linearGradient id="gradientc14Y5odvCc" gradientUnits="userSpaceOnUse" x1="193.18" y1="41.42" x2="193.18" y2="344.93"><stop style="stop-color: #7f09b6;stop-opacity: 1" offset="0%"></stop><stop style="stop-color: #cb4370;stop-opacity: 1" offset="63.65897125238795%"></stop><stop style="stop-color: #ffa800;stop-opacity: 1" offset="100%"></stop></linearGradient><path d="M240.72 95.38C237.83 100.14 239.34 106.36 244.11 109.26C250.78 113.31 256.99 118.2 262.57 123.78C264.54 125.75 267.13 126.74 269.71 126.74C272.3 126.74 274.88 125.75 276.86 123.78C280.8 119.83 280.8 113.44 276.86 109.49C270.14 102.78 262.65 96.89 254.6 91.99C249.84 89.1 243.62 90.61 240.72 95.38Z" id="anucRhBSN"></path><linearGradient id="gradientacc3Y0Sd" gradientUnits="userSpaceOnUse" x1="259.53" y1="90.52" x2="259.53" y2="126.74"><stop style="stop-color: #7f09b6;stop-opacity: 1" offset="0%"></stop><stop style="stop-color: #cb4370;stop-opacity: 1" offset="63.65897125238795%"></stop><stop style="stop-color: #ffa800;stop-opacity: 1" offset="100%"></stop></linearGradient><path d="M123.78 123.78C145.85 101.71 177.48 91.4 208.36 96.21C213.88 97.07 219.04 93.3 219.9 87.78C220.76 82.27 216.98 77.11 211.47 76.25C174.23 70.45 136.11 82.88 109.49 109.49C105.55 113.44 105.55 119.83 109.49 123.78C111.47 125.75 114.05 126.74 116.64 126.74C119.22 126.74 121.81 125.75 123.78 123.78Z" id="bEo9lm306"></path><linearGradient id="gradientj2ncQTZE8S" gradientUnits="userSpaceOnUse" x1="163.28" y1="74.85" x2="163.28" y2="126.74"><stop style="stop-color: #7f09b6;stop-opacity: 1" offset="0%"></stop><stop style="stop-color: #cb4370;stop-opacity: 1" offset="63.65897125238795%"></stop><stop style="stop-color: #ffa800;stop-opacity: 1" offset="100%"></stop></linearGradient><path d="M123.78 262.57C119.83 258.63 113.44 258.63 109.49 262.57C105.55 266.52 105.55 272.91 109.49 276.86C115.9 283.26 123.01 288.92 130.64 293.67C132.3 294.71 134.15 295.2 135.97 295.2C139.34 295.2 142.64 293.51 144.55 290.44C147.5 285.71 146.06 279.48 141.32 276.53C135 272.59 129.1 267.89 123.78 262.57Z" id="d1u9XToSLh"></path><linearGradient id="gradienta2HQrTZ4p0" gradientUnits="userSpaceOnUse" x1="126.31" y1="259.61" x2="126.31" y2="295.2"><stop style="stop-color: #7f09b6;stop-opacity: 1" offset="0%"></stop><stop style="stop-color: #cb4370;stop-opacity: 1" offset="63.65897125238795%"></stop><stop style="stop-color: #ffa800;stop-opacity: 1" offset="100%"></stop></linearGradient><path d="M181.54 290.63C176 289.97 170.98 293.93 170.32 299.47C169.66 305.01 173.62 310.03 179.16 310.69C183.92 311.25 188.65 311.53 193.36 311.53C224.6 311.53 254.43 299.28 276.86 276.86C280.8 272.91 280.8 266.51 276.86 262.57C272.91 258.63 266.52 258.63 262.57 262.57C241.17 283.97 211.64 294.2 181.54 290.63Z" id="d1DujSlT7S"></path><linearGradient id="gradientf8M4XLuJn" gradientUnits="userSpaceOnUse" x1="225.03" y1="259.61" x2="225.03" y2="311.53"><stop style="stop-color: #7f09b6;stop-opacity: 1" offset="0%"></stop><stop style="stop-color: #cb4370;stop-opacity: 1" offset="63.65897125238795%"></stop><stop style="stop-color: #ffa800;stop-opacity: 1" offset="100%"></stop></linearGradient><path d="M208.01 0.57L215.41 1.27L222.78 2.26L230.11 3.53L237.4 5.09L244.64 6.92L251.81 9.04L258.91 11.44L265.94 14.13L272.87 17.1L279.71 20.35L286.44 23.88L293.06 27.69L299.55 31.79L305.91 36.17L312.12 40.83L318.19 45.78L324.1 51.01L329.84 56.52L334.92 61.79L339.76 67.22L344.37 72.77L348.73 78.46L352.86 84.27L356.75 90.2L360.39 96.23L363.8 102.37L366.97 108.6L369.89 114.91L372.58 121.31L375.03 127.79L377.24 134.33L379.21 140.93L380.94 147.59L382.43 154.29L383.68 161.03L384.69 167.8L385.46 174.6L385.99 181.42L386.29 188.25L386.34 195.09L386.15 201.92L385.73 208.74L385.06 215.55L384.15 222.34L383.01 229.09L381.62 235.81L380 242.49L378.14 249.12L376.03 255.68L373.69 262.19L371.11 268.62L368.28 274.98L365.22 281.25L361.92 287.43L358.38 293.51L354.6 299.48L350.58 305.34L346.32 311.08L358.32 323.08L363.21 318.19L363.51 317.9L363.82 317.63L364.13 317.37L364.46 317.13L364.79 316.9L365.13 316.68L365.48 316.48L365.83 316.3L366.18 316.13L366.55 315.97L366.91 315.83L367.29 315.71L367.66 315.59L368.04 315.5L368.42 315.42L368.8 315.35L369.19 315.3L369.57 315.26L369.96 315.24L370.35 315.23L370.74 315.24L371.12 315.26L371.51 315.3L371.89 315.35L372.28 315.42L372.66 315.5L373.04 315.59L373.41 315.71L373.78 315.83L374.15 315.97L374.51 316.13L374.87 316.3L375.22 316.48L375.57 316.68L375.91 316.9L376.24 317.13L376.56 317.37L376.88 317.63L377.19 317.9L377.49 318.19L499.74 440.44L500.93 441.68L502.07 442.96L503.14 444.28L504.15 445.63L505.1 447.01L505.99 448.42L506.82 449.85L507.59 451.31L508.29 452.8L508.93 454.3L509.52 455.83L510.04 457.37L510.5 458.92L510.9 460.49L511.23 462.07L511.51 463.67L511.72 465.26L511.88 466.87L511.97 468.48L512 470.09L511.97 471.7L511.88 473.31L511.72 474.91L511.51 476.51L511.23 478.1L510.9 479.68L510.5 481.25L510.04 482.81L509.52 484.35L508.94 485.87L508.29 487.38L507.59 488.86L506.82 490.32L505.99 491.76L505.1 493.17L504.15 494.54L503.14 495.89L502.07 497.21L500.94 498.49L499.74 499.74L499.12 500.34L498.49 500.93L497.86 501.51L497.21 502.07L496.56 502.61L495.9 503.14L495.23 503.65L494.55 504.15L493.86 504.63L493.17 505.1L492.47 505.55L491.76 505.99L491.04 506.41L490.32 506.82L489.6 507.21L488.86 507.58L488.12 507.94L487.38 508.29L486.63 508.62L485.87 508.93L485.12 509.23L484.35 509.51L483.58 509.78L482.81 510.04L482.03 510.27L481.25 510.5L480.47 510.7L479.68 510.89L478.89 511.07L478.1 511.23L477.31 511.38L476.51 511.51L475.71 511.62L474.91 511.72L474.11 511.81L473.31 511.88L472.5 511.93L471.7 511.97L470.89 511.99L470.09 512L469.28 511.99L468.48 511.97L467.67 511.93L466.87 511.88L466.07 511.81L465.26 511.72L464.46 511.62L463.67 511.51L462.87 511.38L462.07 511.23L461.28 511.07L460.49 510.89L459.71 510.7L458.92 510.5L458.14 510.27L457.37 510.04L456.59 509.78L455.83 509.52L455.06 509.23L454.3 508.93L453.55 508.62L452.8 508.29L452.05 507.94L451.31 507.58L450.58 507.21L449.85 506.82L449.13 506.41L448.42 505.99L447.71 505.55L447.01 505.1L446.32 504.63L445.63 504.15L444.95 503.65L444.28 503.14L443.62 502.61L442.96 502.07L442.32 501.51L441.68 500.93L441.06 500.34L440.44 499.74L318.19 377.49L318.05 377.35L317.91 377.2L317.78 377.05L317.65 376.9L317.52 376.75L317.4 376.59L317.27 376.44L317.16 376.28L317.04 376.12L316.93 375.95L316.82 375.79L316.72 375.62L316.61 375.45L316.52 375.28L316.42 375.1L316.33 374.93L316.24 374.75L316.16 374.57L316.08 374.39L316 374.21L315.93 374.03L315.86 373.85L315.79 373.66L315.73 373.47L315.67 373.29L315.61 373.1L315.56 372.91L315.51 372.71L315.47 372.52L315.43 372.33L315.39 372.13L315.36 371.94L315.33 371.74L315.3 371.54L315.28 371.35L315.26 371.15L315.25 370.95L315.24 370.75L315.23 370.55L315.23 370.35L315.23 370.15L315.24 369.95L315.25 369.75L315.26 369.55L315.28 369.35L315.3 369.15L315.33 368.95L315.36 368.76L315.39 368.56L315.43 368.37L315.47 368.17L315.51 367.98L315.56 367.79L315.61 367.6L315.67 367.41L315.73 367.22L315.79 367.03L315.86 366.85L315.93 366.67L316 366.48L316.08 366.3L316.16 366.12L316.24 365.94L316.33 365.77L316.42 365.59L316.52 365.42L316.61 365.25L316.72 365.08L316.82 364.91L316.93 364.74L317.04 364.58L317.16 364.42L317.27 364.26L317.4 364.1L317.52 363.95L317.65 363.79L317.78 363.64L317.91 363.49L318.05 363.35L318.19 363.21L323.08 358.32L311.09 346.32L308.48 348.3L305.84 350.22L303.18 352.1L300.5 353.92L297.79 355.7L295.06 357.43L292.31 359.1L289.53 360.73L286.74 362.31L283.92 363.83L281.08 365.31L278.23 366.73L275.35 368.11L272.46 369.44L269.55 370.71L266.63 371.94L263.68 373.11L260.73 374.24L257.76 375.32L254.77 376.34L251.77 377.32L248.76 378.24L245.74 379.12L242.71 379.95L239.66 380.72L236.61 381.45L233.54 382.12L230.47 382.75L227.39 383.32L224.3 383.85L221.21 384.32L218.11 384.75L215.01 385.12L211.9 385.45L208.78 385.72L205.66 385.95L202.55 386.13L199.42 386.25L196.3 386.33L193.18 386.35L189.47 386.32L185.75 386.21L182.05 386.03L178.34 385.79L174.64 385.47L170.95 385.08L167.26 384.62L163.58 384.09L159.9 383.49L156.24 382.82L152.59 382.08L148.95 381.26L145.33 380.38L141.72 379.43L138.12 378.4L134.54 377.31L130.98 376.14L127.44 374.91L123.92 373.6L120.42 372.22L116.94 370.77L113.48 369.25L110.05 367.66L106.64 366L103.26 364.27L99.91 362.47L96.59 360.6L93.3 358.66L90.04 356.64L86.81 354.56L83.61 352.41L80.45 350.18L77.32 347.88L74.23 345.52L71.18 343.08L68.16 340.57L65.19 337.99L62.26 335.34L59.36 332.63L56.52 329.83L51.01 324.1L45.78 318.19L40.83 312.12L36.17 305.91L31.79 299.55L27.69 293.05L23.88 286.44L20.35 279.71L17.1 272.87L14.13 265.94L11.45 258.91L9.04 251.81L6.92 244.63L5.09 237.4L3.53 230.11L2.26 222.78L1.27 215.41L0.57 208.01L0.14 200.6L0 193.18L0.14 185.75L0.57 178.34L1.27 170.94L2.26 163.58L3.53 156.24L5.09 148.95L6.92 141.72L9.04 134.54L11.45 127.44L14.13 120.42L17.1 113.48L20.35 106.64L23.88 99.91L27.69 93.3L31.79 86.8L36.17 80.45L40.83 74.23L45.78 68.16L51.01 62.25L56.52 56.52L62.26 51.01L68.16 45.78L74.23 40.83L80.45 36.17L86.81 31.79L93.3 27.69L99.91 23.88L106.64 20.35L113.48 17.1L120.42 14.13L127.44 11.44L134.54 9.04L141.72 6.92L148.95 5.09L156.24 3.53L163.58 2.26L170.94 1.27L178.34 0.57L185.75 0.14L193.18 0L200.6 0.14L208.01 0.57ZM454.72 485.45L455.37 486.07L456.03 486.66L456.71 487.22L457.41 487.74L458.13 488.23L458.86 488.69L459.6 489.12L460.36 489.52L461.13 489.89L461.91 490.22L462.7 490.52L463.49 490.79L464.3 491.03L465.11 491.24L465.93 491.41L466.76 491.55L467.59 491.66L468.42 491.74L469.25 491.79L470.09 491.81L470.92 491.79L471.75 491.74L472.59 491.66L473.41 491.55L474.24 491.41L475.06 491.24L475.87 491.03L476.68 490.79L477.48 490.52L478.27 490.22L479.05 489.89L479.82 489.52L480.57 489.12L481.32 488.69L482.05 488.23L482.76 487.74L483.46 487.22L484.14 486.66L484.81 486.07L485.45 485.45L486.07 484.81L486.66 484.14L487.22 483.46L487.74 482.76L488.23 482.05L488.69 481.32L489.12 480.57L489.52 479.82L489.89 479.05L490.22 478.27L490.52 477.48L490.79 476.68L491.03 475.87L491.24 475.06L491.41 474.24L491.55 473.42L491.66 472.59L491.74 471.76L491.79 470.92L491.81 470.09L491.79 469.25L491.74 468.42L491.66 467.59L491.55 466.76L491.41 465.94L491.24 465.12L491.03 464.3L490.79 463.5L490.52 462.7L490.22 461.91L489.89 461.13L489.52 460.36L489.12 459.6L488.69 458.86L488.23 458.13L487.74 457.41L487.22 456.71L486.66 456.03L486.07 455.37L485.45 454.72L370.35 339.62L339.62 370.35L454.72 485.45ZM186.26 20.25L182.82 20.41L179.4 20.65L175.98 20.95L172.59 21.32L169.2 21.75L165.83 22.25L162.48 22.81L159.15 23.44L155.83 24.13L152.53 24.88L149.25 25.7L146 26.59L142.76 27.53L139.54 28.54L136.35 29.61L133.18 30.75L130.03 31.94L126.91 33.2L123.81 34.52L120.74 35.9L117.7 37.34L114.68 38.84L111.7 40.4L108.74 42.02L105.81 43.7L102.91 45.44L100.04 47.24L97.21 49.09L94.41 51.01L91.64 52.98L88.91 55.01L86.21 57.09L83.55 59.24L80.92 61.44L78.33 63.7L75.78 66.01L73.27 68.38L70.8 70.8L68.38 73.27L66.01 75.78L63.69 78.33L61.44 80.92L59.24 83.55L57.09 86.21L55.01 88.91L52.98 91.64L51 94.41L49.09 97.21L47.23 100.05L45.44 102.91L43.7 105.81L42.02 108.74L40.4 111.7L38.84 114.69L37.34 117.7L35.9 120.74L34.52 123.82L33.2 126.91L31.94 130.03L30.74 133.18L29.61 136.35L28.54 139.54L27.53 142.76L26.58 146L25.7 149.26L24.88 152.54L24.13 155.83L23.43 159.15L22.81 162.48L22.24 165.84L21.75 169.2L21.31 172.59L20.95 175.99L20.65 179.4L20.41 182.83L20.24 186.26L20.14 189.71L20.11 193.18L20.14 196.64L20.24 200.09L20.41 203.53L20.65 206.95L20.95 210.37L21.31 213.76L21.75 217.15L22.24 220.52L22.81 223.87L23.43 227.2L24.13 230.52L24.88 233.82L25.7 237.1L26.58 240.35L27.53 243.59L28.54 246.81L29.61 250L30.74 253.17L31.94 256.32L33.2 259.44L34.52 262.54L35.89 265.61L37.34 268.65L38.84 271.67L40.4 274.65L42.02 277.61L43.7 280.54L45.44 283.44L47.23 286.31L49.09 289.14L51 291.94L52.98 294.71L55.01 297.44L57.09 300.14L59.24 302.8L61.44 305.43L63.69 308.02L66.01 310.57L68.38 313.08L70.8 315.55L73.27 317.97L75.78 320.34L78.33 322.66L80.92 324.91L83.55 327.11L86.21 329.26L88.91 331.34L91.64 333.37L94.41 335.35L97.21 337.26L100.05 339.12L102.91 340.91L105.81 342.65L108.74 344.33L111.7 345.95L114.68 347.51L117.7 349.02L120.74 350.46L123.81 351.83L126.91 353.15L130.03 354.41L133.18 355.61L136.35 356.74L139.54 357.81L142.76 358.82L146 359.77L149.26 360.65L152.53 361.47L155.83 362.22L159.15 362.92L162.48 363.54L165.84 364.11L169.2 364.6L172.59 365.04L175.99 365.4L179.4 365.7L182.82 365.94L186.26 366.11L189.71 366.21L193.18 366.24L196.64 366.21L200.09 366.11L203.53 365.94L206.95 365.7L210.36 365.4L213.76 365.04L217.15 364.6L220.52 364.11L223.87 363.54L227.2 362.92L230.52 362.22L233.82 361.47L237.09 360.65L240.35 359.77L243.59 358.82L246.81 357.81L250 356.74L253.17 355.61L256.32 354.41L259.44 353.15L262.54 351.83L265.61 350.45L268.65 349.01L271.67 347.51L274.65 345.95L277.61 344.33L280.54 342.65L283.44 340.91L286.3 339.12L289.14 337.26L291.94 335.35L294.71 333.37L297.44 331.34L300.14 329.26L302.8 327.11L305.43 324.91L308.02 322.66L310.57 320.34L313.08 317.97L315.55 315.55L317.97 313.08L320.34 310.57L322.66 308.02L324.91 305.43L327.11 302.8L329.26 300.14L331.34 297.44L333.37 294.71L335.35 291.94L337.26 289.14L339.12 286.31L340.91 283.44L342.65 280.54L344.33 277.61L345.95 274.65L347.51 271.67L349.01 268.65L350.45 265.61L351.83 262.54L353.15 259.44L354.41 256.32L355.61 253.17L356.74 250L357.81 246.81L358.82 243.59L359.77 240.35L360.65 237.1L361.47 233.82L362.22 230.52L362.92 227.2L363.54 223.87L364.11 220.52L364.6 217.15L365.04 213.76L365.4 210.37L365.7 206.95L365.94 203.53L366.1 200.09L366.21 196.64L366.24 193.18L366.21 189.71L366.1 186.26L365.94 182.83L365.7 179.4L365.4 175.99L365.04 172.59L364.6 169.2L364.11 165.84L363.54 162.48L362.92 159.15L362.22 155.83L361.47 152.54L360.65 149.26L359.77 146L358.82 142.76L357.81 139.54L356.74 136.35L355.61 133.18L354.41 130.03L353.15 126.91L351.83 123.82L350.45 120.75L349.01 117.7L347.51 114.69L345.95 111.7L344.33 108.74L342.65 105.81L340.91 102.91L339.12 100.05L337.26 97.21L335.35 94.41L333.37 91.64L331.34 88.91L329.26 86.21L327.11 83.55L324.91 80.92L322.66 78.33L320.34 75.78L317.97 73.27L315.55 70.8L313.08 68.38L310.57 66.01L308.02 63.7L305.43 61.44L302.8 59.24L300.14 57.09L297.44 55.01L294.71 52.98L291.94 51.01L289.14 49.09L286.31 47.24L283.44 45.44L280.54 43.7L277.61 42.02L274.65 40.4L271.67 38.84L268.65 37.34L265.61 35.9L262.54 34.52L259.44 33.2L256.32 31.94L253.17 30.75L250 29.61L246.81 28.54L243.59 27.53L240.35 26.59L237.09 25.7L233.82 24.88L230.52 24.13L227.2 23.44L223.87 22.81L220.51 22.25L217.15 21.75L213.76 21.32L210.36 20.95L206.95 20.65L203.52 20.41L200.09 20.25L196.64 20.15L193.17 20.11L189.71 20.15L186.26 20.25ZM332.4 327.21L332.04 327.59L331.67 327.97L331.31 328.34L330.94 328.72L330.57 329.09L330.2 329.46L329.83 329.83L329.57 330.1L329.28 330.38L328.96 330.7L328.62 331.04L328.24 331.4L327.84 331.79L327.41 332.21L326.95 332.66L326.46 333.13L337.36 344.03L344.03 337.36L333.13 326.46L332.76 326.84L332.4 327.21Z" id="d2tNQG5xht"></path><linearGradient id="gradientc1dTty1mDJ" gradientUnits="userSpaceOnUse" x1="256" y1="0" x2="256" y2="512"><stop style="stop-color: #7f09b6;stop-opacity: 1" offset="0%"></stop><stop style="stop-color: #cb4370;stop-opacity: 1" offset="63.65897125238795%"></stop><stop style="stop-color: #ffa800;stop-opacity: 1" offset="100%"></stop></linearGradient></defs><g><g><g><use xlink:href="#c66EXARSOR" opacity="1" fill="url(#gradientc14Y5odvCc)"></use><g><use xlink:href="#c66EXARSOR" opacity="1" fill-opacity="0" stroke="#000000" stroke-width="1" stroke-opacity="0"></use></g></g><g><use xlink:href="#anucRhBSN" opacity="1" fill="url(#gradientacc3Y0Sd)"></use><g><use xlink:href="#anucRhBSN" opacity="1" fill-opacity="0" stroke="#000000" stroke-width="1" stroke-opacity="0"></use></g></g><g><use xlink:href="#bEo9lm306" opacity="1" fill="url(#gradientj2ncQTZE8S)"></use><g><use xlink:href="#bEo9lm306" opacity="1" fill-opacity="0" stroke="#000000" stroke-width="1" stroke-opacity="0"></use></g></g><g><use xlink:href="#d1u9XToSLh" opacity="1" fill="url(#gradienta2HQrTZ4p0)"></use><g><use xlink:href="#d1u9XToSLh" opacity="1" fill-opacity="0" stroke="#000000" stroke-width="1" stroke-opacity="0"></use></g></g><g><use xlink:href="#d1DujSlT7S" opacity="1" fill="url(#gradientf8M4XLuJn)"></use><g><use xlink:href="#d1DujSlT7S" opacity="1" fill-opacity="0" stroke="#000000" stroke-width="1" stroke-opacity="0"></use></g></g><g><use xlink:href="#d2tNQG5xht" opacity="1" fill="url(#gradientc1dTty1mDJ)"></use><g><use xlink:href="#d2tNQG5xht" opacity="1" fill-opacity="0" stroke="#000000" stroke-width="1" stroke-opacity="0"></use></g></g></g></g></svg>