<?xml version="1.0" encoding="UTF-8" standalone="no"?>
<!DOCTYPE svg PUBLIC "-//W3C//DTD SVG 1.1//EN" "http://www.w3.org/Graphics/SVG/1.1/DTD/svg11.dtd">
<svg version="1.1" xmlns="http://www.w3.org/2000/svg" xmlns:xlink="http://www.w3.org/1999/xlink" preserveAspectRatio="xMidYMid meet" viewBox="0 0 335 261.5" width="335" height="261.5"><defs><path d="M328.64 34.72L328.9 35.06L329.13 35.4L329.32 35.74L329.48 36.07L329.61 36.39L329.71 36.71L329.77 37.03L329.81 37.34L329.81 37.65L329.79 37.96L329.74 38.26L329.66 38.55L329.55 38.84L329.41 39.13L329.26 39.41L329.07 39.69L328.86 39.97L328.63 40.24L328.37 40.5L328.1 40.77L327.8 41.02L327.48 41.28L327.13 41.53L326.77 41.77L326.39 42.01L326 42.25L325.58 42.49L325.15 42.72L324.7 42.94L324.23 43.16L323.75 43.38L323.26 43.6L322.75 43.81L322.23 44.01L321.7 44.22L321.15 44.41L320.6 44.61L320.03 44.8L319.46 44.99L319.45 45L319.43 45.01L319.42 45.02L319.41 45.03L319.4 45.04L319.39 45.05L319.38 45.06L319.36 45.08L319.34 45.1L319.32 45.12L319.29 45.15L319.27 45.16L319.26 45.18L319.25 45.19L319.24 45.2L319.23 45.21L319.22 45.22L319.21 45.23L319.2 45.24L319.19 45.25L319.18 45.26L319.17 45.27L319.16 45.28L319.14 45.29L319.13 45.3L319.12 45.31L319.11 45.32L319.1 45.32L319.09 45.33L319.07 45.34L319.06 45.35L319.05 45.36L319.04 45.37L319.03 45.38L319.01 45.39L318.32 45.85L317.67 46.35L317.04 46.9L316.46 47.48L315.9 48.1L315.38 48.76L314.89 49.45L314.43 50.16L314 50.91L313.6 51.69L313.22 52.49L312.88 53.32L312.56 54.17L312.26 55.04L312 55.92L311.75 56.83L311.53 57.75L311.33 58.68L311.16 59.63L311 60.58L310.87 61.54L310.75 62.51L310.66 63.49L310.58 64.46L310.51 65.44L310.47 66.42L310.44 67.39L310.42 68.36L310.42 69.32L310.44 70.28L310.46 71.22L310.5 72.16L310.54 73.08L310.6 73.98L310.66 74.87L310.74 75.74L310.82 76.59L310.91 77.42L311 78.22L311.1 79L313.56 79.71L315.86 80.4L317.99 81.06L319.96 81.7L321.79 82.32L323.47 82.91L325 83.48L326.41 84.03L327.68 84.56L328.83 85.07L329.86 85.55L330.78 86.01L331.59 86.46L332.3 86.88L332.91 87.28L333.43 87.67L333.87 88.03L334.23 88.38L334.51 88.7L334.72 89.01L334.87 89.3L334.96 89.57L335 89.83L334.99 90.06L334.94 90.28L334.85 90.49L334.73 90.67L334.59 90.85L334.42 91L334.24 91.14L334.06 91.27L333.87 91.38L333.68 91.48L333.49 91.56L333.33 91.63L333.18 91.69L333.05 91.73L332.95 91.76L332.89 91.78L332.87 91.78L317.19 95.58L317.53 95.97L317.86 96.37L318.19 96.79L318.52 97.23L318.84 97.67L319.16 98.14L319.48 98.62L319.79 99.11L320.09 99.62L320.39 100.14L320.68 100.68L320.96 101.24L321.24 101.81L321.51 102.4L321.78 103L322.03 103.63L322.28 104.27L322.52 104.92L322.75 105.6L322.96 106.29L323.17 107L323.37 107.73L323.56 108.48L323.74 109.25L323.9 110.04L324.05 110.85L324.19 111.67L324.32 112.52L324.44 113.39L324.54 114.27L324.62 115.18L324.7 116.11L324.75 117.06L324.8 118.03L324.82 119.02L324.84 120.04L324.83 121.08L324.81 122.14L324.77 123.22L324.72 124.33L324.61 125.92L324.48 127.47L324.33 128.98L324.15 130.43L323.95 131.84L323.74 133.2L323.5 134.51L323.24 135.78L322.97 137.01L322.67 138.19L322.36 139.34L322.04 140.44L321.7 141.5L321.35 142.52L320.98 143.5L320.61 144.44L320.22 145.34L319.82 146.21L319.41 147.04L318.99 147.84L318.57 148.6L318.14 149.32L317.7 150.02L317.26 150.68L316.82 151.31L316.37 151.91L315.92 152.48L315.46 153.02L315.01 153.53L314.56 154.02L314.11 154.47L313.66 154.9L313.21 155.31L312.77 155.69L312.33 156.05L311.9 156.38L311.47 156.69L311.05 156.98L310.64 157.25L310.24 157.5L318.17 159.89L318.47 160.24L318.73 160.59L318.96 160.93L319.15 161.26L319.31 161.59L319.44 161.92L319.54 162.24L319.6 162.55L319.64 162.87L319.64 163.18L319.62 163.48L319.57 163.78L319.49 164.07L319.38 164.37L319.25 164.65L319.09 164.94L318.9 165.21L318.69 165.49L318.46 165.76L318.21 166.03L317.93 166.29L317.63 166.54L317.31 166.8L316.97 167.05L316.61 167.29L316.23 167.54L315.83 167.77L315.41 168.01L314.98 168.24L314.53 168.46L314.07 168.68L313.59 168.9L313.09 169.12L312.59 169.33L312.07 169.53L311.53 169.74L310.99 169.93L310.43 170.13L309.87 170.32L309.29 170.51L309.28 170.52L309.27 170.53L309.26 170.54L309.25 170.55L309.24 170.56L309.22 170.58L309.21 170.59L309.19 170.61L309.15 170.65L309.13 170.66L309.12 170.67L309.1 170.69L309.09 170.7L309.08 170.72L309.07 170.73L309.06 170.74L309.05 170.75L309.04 170.76L309.03 170.77L309.02 170.78L309.01 170.79L308.99 170.8L308.98 170.81L308.97 170.82L308.96 170.83L308.95 170.83L308.94 170.84L308.92 170.85L308.91 170.86L308.9 170.87L308.89 170.88L308.87 170.89L308.86 170.9L308.85 170.9L308.16 171.37L307.5 171.87L306.88 172.42L306.29 173.01L305.73 173.63L305.21 174.28L304.72 174.97L304.26 175.69L303.82 176.44L303.42 177.22L303.05 178.02L302.7 178.85L302.38 179.7L302.09 180.57L301.82 181.45L301.57 182.36L301.35 183.28L301.16 184.21L300.98 185.16L300.82 186.11L300.69 187.08L300.57 188.04L300.48 189.02L300.4 189.99L300.34 190.97L300.29 191.95L300.26 192.92L300.25 193.89L300.25 194.85L300.26 195.81L300.28 196.75L300.32 197.68L300.37 198.6L300.42 199.51L300.49 200.4L300.56 201.27L300.65 202.11L300.73 202.94L300.83 203.74L300.93 204.52L303.39 205.23L305.69 205.92L307.82 206.58L309.79 207.22L311.62 207.84L313.3 208.43L314.83 209L316.24 209.55L317.51 210.08L318.66 210.59L319.69 211.07L320.61 211.53L321.42 211.98L322.13 212.4L322.75 212.8L323.27 213.19L323.7 213.55L324.06 213.9L324.34 214.22L324.55 214.53L324.7 214.82L324.79 215.09L324.83 215.35L324.82 215.58L324.77 215.8L324.68 216.01L324.56 216.2L324.42 216.37L324.26 216.53L324.08 216.67L323.89 216.79L323.7 216.9L323.51 217L323.33 217.09L323.16 217.16L323.01 217.21L322.88 217.25L322.79 217.29L322.73 217.3L322.7 217.31L140.26 261.5L19.38 222.21L19.35 222.21L19.26 222.19L19.1 222.16L18.89 222.12L18.63 222.05L18.32 221.96L17.96 221.85L17.56 221.71L17.12 221.54L16.64 221.34L16.12 221.11L15.58 220.84L15 220.52L14.41 220.16L13.79 219.76L13.15 219.31L12.49 218.81L11.82 218.25L11.14 217.64L10.46 216.97L9.77 216.24L9.08 215.44L8.4 214.58L7.72 213.65L7.04 212.64L6.38 211.56L5.74 210.4L5.11 209.16L4.51 207.84L3.93 206.44L3.37 204.94L2.85 203.36L2.36 201.68L1.9 199.9L1.49 198.03L1.12 196.06L0.79 193.98L0.51 191.79L0.29 189.5L0.12 187.09L0.06 185.83L0.02 184.59L0 183.39L0 182.22L0.03 181.07L0.08 179.96L0.14 178.87L0.23 177.81L0.33 176.77L0.45 175.77L0.59 174.79L0.74 173.83L0.91 172.91L1.1 172L1.3 171.13L1.52 170.27L1.75 169.45L2 168.64L2.25 167.86L2.52 167.11L2.8 166.37L3.09 165.66L3.4 164.97L3.71 164.31L4.03 163.66L4.36 163.04L4.7 162.44L5.05 161.86L5.4 161.29L5.76 160.75L6.12 160.23L6.5 159.73L6.87 159.24L7.25 158.78L7.64 158.33L8.02 157.9L8.41 157.48L8.8 157.09L9.19 156.71L9.59 156.35L2.14 154.54L2.12 154.54L2.05 154.52L1.96 154.49L1.83 154.45L1.68 154.39L1.51 154.32L1.33 154.24L1.14 154.14L0.95 154.03L0.76 153.9L0.58 153.76L0.42 153.6L0.28 153.43L0.16 153.24L0.07 153.04L0.02 152.82L0.01 152.58L0.05 152.33L0.14 152.06L0.29 151.77L0.5 151.46L0.78 151.13L1.14 150.79L1.57 150.42L2.09 150.04L2.71 149.64L3.42 149.22L4.23 148.77L5.15 148.31L6.18 147.82L7.33 147.32L8.6 146.79L10 146.24L11.54 145.67L13.22 145.08L15.04 144.46L17.02 143.82L19.15 143.16L21.44 142.47L23.91 141.76L24.01 140.98L24.1 140.18L24.19 139.35L24.27 138.5L24.34 137.63L24.41 136.74L24.47 135.84L24.51 134.92L24.55 133.98L24.57 133.04L24.58 132.08L24.58 131.12L24.57 130.15L24.54 129.18L24.49 128.2L24.43 127.22L24.35 126.25L24.26 125.27L24.14 124.3L24.01 123.34L23.85 122.39L23.67 121.44L23.48 120.51L23.25 119.59L23.01 118.68L22.74 117.79L22.45 116.92L22.13 116.08L21.78 115.25L21.41 114.45L21.01 113.67L20.58 112.92L20.12 112.2L19.63 111.51L19.1 110.86L18.55 110.24L17.96 109.65L17.34 109.11L16.69 108.6L15.99 108.14L15.98 108.13L15.97 108.12L15.96 108.12L15.94 108.11L15.93 108.1L15.92 108.09L15.91 108.08L15.9 108.07L15.89 108.06L15.87 108.05L15.86 108.04L15.85 108.03L15.84 108.02L15.83 108.01L15.82 108L15.81 107.99L15.8 107.98L15.79 107.97L15.77 107.96L15.76 107.95L15.75 107.94L15.74 107.93L15.73 107.92L15.72 107.91L15.71 107.9L15.69 107.88L15.66 107.84L15.64 107.82L15.62 107.8L15.61 107.79L15.6 107.78L15.58 107.77L15.57 107.76L15.56 107.75L15.55 107.74L14.98 107.55L14.41 107.36L13.86 107.17L13.31 106.97L12.78 106.77L12.26 106.56L11.75 106.35L11.25 106.14L10.78 105.92L10.31 105.7L9.86 105.47L9.43 105.24L9.01 105.01L8.61 104.77L8.23 104.53L7.87 104.28L7.53 104.03L7.21 103.78L6.91 103.52L6.64 103.26L6.38 102.99L6.15 102.72L5.94 102.45L5.75 102.17L5.6 101.89L5.46 101.6L5.35 101.31L5.27 101.01L5.22 100.71L5.2 100.41L5.2 100.1L5.24 99.79L5.31 99.47L5.4 99.15L5.53 98.82L5.69 98.49L5.89 98.16L6.11 97.82L6.38 97.47L6.67 97.13L21.83 92.56L21.46 92.23L21.09 91.88L20.72 91.51L20.34 91.12L19.97 90.72L19.59 90.3L19.22 89.85L18.85 89.39L18.47 88.91L18.1 88.41L17.73 87.88L17.37 87.34L17.01 86.77L16.65 86.18L16.29 85.57L15.95 84.93L15.6 84.27L15.26 83.59L14.93 82.88L14.61 82.15L14.29 81.39L13.98 80.61L13.68 79.79L13.38 78.96L13.1 78.09L12.83 77.2L12.56 76.28L12.31 75.33L12.07 74.35L11.84 73.35L11.62 72.31L11.41 71.24L11.22 70.14L11.04 69.02L10.88 67.86L10.73 66.66L10.6 65.44L10.48 64.18L10.38 62.89L10.29 61.57L10.19 59.16L10.17 56.86L10.24 54.66L10.37 52.58L10.58 50.59L10.85 48.7L11.18 46.91L11.57 45.22L12.01 43.61L12.5 42.1L13.04 40.67L13.62 39.32L14.23 38.06L14.88 36.88L15.55 35.77L16.25 34.74L16.97 33.78L17.71 32.89L18.46 32.06L19.21 31.3L19.97 30.6L20.73 29.96L21.48 29.38L22.23 28.85L22.96 28.37L23.67 27.94L24.37 27.56L25.03 27.22L25.67 26.92L26.28 26.67L26.84 26.45L27.37 26.26L27.85 26.1L28.27 25.98L28.65 25.87L28.96 25.8L29.21 25.74L29.4 25.71L29.51 25.69L29.55 25.68L214.27 0L328.34 34.37L328.64 34.72ZM202.07 193.06L184.58 198.74L179.91 197.61L148.32 204.11L147.03 244.11L294.8 207.34L294.79 207.25L294.77 207.15L294.76 207.06L294.74 206.96L294.73 206.86L294.71 206.76L294.7 206.65L294.68 206.55L294.67 206.44L294.65 206.34L294.64 206.23L294.62 206.12L294.61 206.01L294.59 205.9L294.58 205.79L294.56 205.67L294.55 205.56L294.53 205.44L294.52 205.32L294.5 205.21L294.49 205.09L294.47 204.97L294.46 204.85L294.44 204.72L294.43 204.6L294.41 204.48L294.4 204.35L294.38 204.23L294.37 204.1L294.36 203.97L294.34 203.84L294.33 203.71L294.31 203.58L294.3 203.45L294.28 203.32L294.27 203.19L294.26 203.06L294.24 202.92L294.23 202.79L294.21 202.65L294.15 202.05L294.1 201.43L294.04 200.79L293.99 200.15L293.94 199.48L293.9 198.81L293.86 198.12L293.83 197.42L293.81 196.71L293.79 195.99L293.77 195.26L293.77 194.52L293.77 193.77L293.77 193.02L293.79 192.26L293.82 191.5L293.85 190.73L293.89 189.95L293.95 189.17L294.01 188.39L294.09 187.61L294.17 186.82L294.27 186.04L294.38 185.26L294.5 184.47L294.64 183.69L294.79 182.91L294.95 182.13L295.13 181.36L295.32 180.59L295.53 179.83L295.75 179.07L295.99 178.32L296.24 177.58L296.51 176.84L296.8 176.11L297.1 175.4L297.43 174.69L297.77 174L298.13 173.31L282.68 176.49L202.07 193.06ZM20.79 164.76L20.66 164.76L20.53 164.77L20.39 164.78L20.26 164.79L20.12 164.8L19.98 164.82L19.84 164.83L19.7 164.85L19.55 164.88L19.41 164.9L19.26 164.93L19.11 164.96L18.96 165L18.8 165.04L18.65 165.08L18.5 165.12L18.34 165.17L18.18 165.23L18.03 165.28L17.87 165.34L17.71 165.41L17.55 165.48L17.39 165.55L17.23 165.63L17.07 165.71L16.92 165.79L16.76 165.89L16.6 165.98L16.44 166.08L16.28 166.19L16.12 166.3L15.97 166.42L15.81 166.54L15.65 166.67L15.5 166.8L15.34 166.94L15.19 167.08L15.04 167.23L14.81 167.48L14.58 167.74L14.36 168.01L14.15 168.29L13.94 168.58L13.73 168.89L13.54 169.2L13.35 169.53L13.16 169.87L12.98 170.22L12.81 170.58L12.64 170.95L12.48 171.33L12.33 171.72L12.18 172.12L12.04 172.54L11.9 172.96L11.77 173.4L11.65 173.84L11.53 174.3L11.42 174.77L11.32 175.24L11.22 175.73L11.13 176.23L11.04 176.73L10.96 177.25L10.89 177.78L10.82 178.32L10.76 178.86L10.71 179.42L10.66 179.99L10.62 180.56L10.58 181.15L10.56 181.75L10.53 182.35L10.52 182.97L10.51 183.59L10.51 184.22L10.51 184.87L10.52 185.52L10.58 187.31L10.68 189.02L10.81 190.64L10.98 192.18L11.17 193.65L11.4 195.03L11.65 196.34L11.93 197.58L12.24 198.74L12.56 199.84L12.9 200.87L13.27 201.83L13.64 202.73L14.03 203.57L14.44 204.35L14.85 205.08L15.27 205.75L15.7 206.37L16.13 206.94L16.56 207.46L16.99 207.94L17.42 208.37L17.84 208.76L18.26 209.11L18.67 209.42L19.08 209.7L19.46 209.94L19.84 210.16L20.2 210.34L20.54 210.5L20.86 210.63L21.16 210.74L21.44 210.83L21.69 210.9L21.91 210.95L22.11 210.99L22.27 211.02L22.39 211.04L22.49 211.05L22.54 211.06L22.56 211.06L22.58 211.06L22.59 211.06L22.61 211.06L22.63 211.06L22.65 211.06L22.67 211.06L22.68 211.07L22.7 211.07L22.72 211.07L22.74 211.07L22.76 211.07L22.78 211.08L22.8 211.08L22.82 211.08L22.83 211.08L22.85 211.09L22.87 211.09L22.89 211.09L22.91 211.09L22.93 211.1L22.95 211.1L22.97 211.1L22.99 211.11L23.01 211.11L23.03 211.11L23.04 211.12L23.06 211.12L23.08 211.12L23.1 211.13L23.12 211.13L23.14 211.14L23.15 211.14L23.17 211.14L23.19 211.15L23.21 211.15L23.22 211.16L23.24 211.16L23.26 211.17L23.27 211.17L140.55 244.05L141.84 203.77L22.55 164.87L22.55 164.87L22.54 164.87L22.53 164.87L22.52 164.87L22.49 164.86L22.44 164.86L22.42 164.85L22.39 164.85L22.37 164.85L22.34 164.84L22.31 164.84L22.28 164.83L22.25 164.83L22.21 164.83L22.18 164.82L22.14 164.82L22.1 164.81L22.06 164.81L22.02 164.8L21.97 164.8L21.93 164.8L21.88 164.79L21.83 164.79L21.78 164.78L21.73 164.78L21.68 164.78L21.63 164.77L21.57 164.77L21.52 164.77L21.46 164.76L21.4 164.76L21.34 164.76L21.28 164.76L21.22 164.76L21.16 164.76L21.1 164.76L21.03 164.76L20.91 164.76L20.79 164.76ZM27.41 111.93L27.73 112.64L28.04 113.35L28.32 114.08L28.59 114.82L28.85 115.56L29.09 116.31L29.31 117.07L29.51 117.83L29.7 118.6L29.88 119.37L30.04 120.15L30.19 120.93L30.33 121.71L30.45 122.5L30.56 123.28L30.66 124.07L30.74 124.85L30.82 125.63L30.88 126.41L30.94 127.19L30.98 127.97L31.01 128.74L31.04 129.5L31.06 130.26L31.07 131.01L31.07 131.76L31.06 132.5L31.05 133.23L31.03 133.95L31 134.66L30.97 135.36L30.93 136.05L30.89 136.72L30.84 137.39L30.79 138.03L30.74 138.67L30.68 139.29L30.62 139.89L30.61 140.03L30.59 140.16L30.58 140.3L30.56 140.43L30.55 140.56L30.54 140.69L30.52 140.82L30.51 140.95L30.49 141.08L30.48 141.21L30.46 141.34L30.45 141.46L30.43 141.59L30.42 141.72L30.4 141.84L30.39 141.96L30.37 142.09L30.36 142.21L30.34 142.33L30.33 142.45L30.31 142.56L30.3 142.68L30.28 142.8L30.27 142.91L30.25 143.03L30.24 143.14L30.23 143.25L30.21 143.36L30.2 143.47L30.18 143.58L30.17 143.68L30.15 143.79L30.14 143.89L30.12 144L30.11 144.1L30.09 144.2L30.08 144.3L30.06 144.39L30.05 144.49L30.03 144.58L43.29 147.88L177.79 181.34L176.51 141.34L150.42 135.98L141.72 134.2L42.15 113.73L26.7 110.55L27.06 111.24L27.41 111.93ZM303.34 102.03L303.17 102.03L303.02 102.04L302.87 102.05L302.74 102.07L302.61 102.08L302.5 102.1L302.41 102.11L302.32 102.12L302.25 102.13L302.2 102.14L302.16 102.15L302.13 102.16L302.12 102.16L217.81 129.65L183 141.01L184.29 181.29L290.42 151.53L301.56 148.41L301.58 148.41L301.6 148.4L301.62 148.4L301.64 148.39L301.66 148.38L301.68 148.38L301.7 148.37L301.72 148.37L301.74 148.37L301.76 148.36L301.77 148.36L301.79 148.35L301.81 148.35L301.83 148.34L301.85 148.34L301.87 148.34L301.89 148.33L301.91 148.33L301.93 148.33L301.95 148.32L301.97 148.32L301.99 148.32L302.01 148.32L302.03 148.31L302.05 148.31L302.07 148.31L302.09 148.31L302.11 148.3L302.13 148.3L302.15 148.3L302.17 148.3L302.19 148.3L302.21 148.3L302.23 148.3L302.25 148.29L302.27 148.29L302.29 148.29L302.31 148.29L302.33 148.29L302.35 148.29L302.4 148.29L302.49 148.28L302.61 148.26L302.77 148.23L302.96 148.19L303.18 148.13L303.43 148.06L303.7 147.97L304 147.86L304.32 147.73L304.65 147.57L305.01 147.39L305.38 147.18L305.77 146.93L306.17 146.65L306.58 146.34L307 145.99L307.42 145.6L307.85 145.17L308.28 144.69L308.71 144.17L309.14 143.6L309.57 142.98L309.99 142.31L310.4 141.59L310.8 140.8L311.19 139.96L311.57 139.06L311.93 138.1L312.28 137.07L312.6 135.97L312.91 134.81L313.19 133.57L313.44 132.26L313.67 130.88L313.86 129.42L314.03 127.87L314.16 126.25L314.26 124.54L314.32 122.75L314.33 122.1L314.34 121.46L314.33 120.82L314.33 120.2L314.31 119.59L314.29 118.98L314.26 118.39L314.23 117.8L314.18 117.22L314.14 116.66L314.08 116.1L314.02 115.55L313.95 115.02L313.88 114.49L313.8 113.97L313.72 113.47L313.62 112.97L313.53 112.48L313.42 112.01L313.31 111.54L313.19 111.08L313.07 110.64L312.94 110.2L312.81 109.78L312.66 109.36L312.52 108.96L312.36 108.57L312.2 108.19L312.03 107.82L311.86 107.46L311.68 107.11L311.5 106.77L311.31 106.44L311.11 106.13L310.91 105.82L310.7 105.53L310.48 105.25L310.26 104.98L310.04 104.72L309.8 104.47L309.56 104.23L309.31 104.01L309.06 103.8L308.8 103.61L308.54 103.43L308.28 103.26L308.02 103.11L307.76 102.96L307.5 102.84L307.23 102.72L306.97 102.61L306.71 102.52L306.46 102.43L306.2 102.36L305.95 102.29L305.7 102.23L305.45 102.18L305.21 102.14L304.98 102.1L304.75 102.08L304.53 102.05L304.31 102.04L304.1 102.03L303.9 102.02L303.7 102.02L303.52 102.02L303.34 102.03ZM189.18 72.27L158.49 78.58L157.21 118.58L288.07 86.02L304.98 81.82L304.96 81.72L304.95 81.63L304.93 81.53L304.92 81.43L304.9 81.33L304.89 81.23L304.87 81.13L304.86 81.02L304.84 80.92L304.83 80.81L304.81 80.7L304.8 80.59L304.78 80.48L304.77 80.37L304.75 80.26L304.74 80.15L304.72 80.03L304.71 79.92L304.69 79.8L304.68 79.68L304.66 79.56L304.65 79.44L304.63 79.32L304.62 79.2L304.6 79.07L304.59 78.95L304.58 78.83L304.56 78.7L304.55 78.57L304.53 78.45L304.52 78.32L304.5 78.19L304.49 78.06L304.48 77.93L304.46 77.8L304.45 77.66L304.43 77.53L304.42 77.4L304.41 77.27L304.39 77.13L304.33 76.53L304.28 75.91L304.22 75.27L304.17 74.62L304.13 73.96L304.08 73.28L304.05 72.59L304.01 71.89L303.99 71.18L303.97 70.46L303.95 69.73L303.95 69L303.95 68.25L303.95 67.5L303.97 66.74L304 65.97L304.03 65.2L304.07 64.43L304.13 63.65L304.19 62.87L304.27 62.08L304.35 61.3L304.45 60.52L304.56 59.73L304.68 58.95L304.82 58.16L304.97 57.38L305.13 56.61L305.31 55.83L305.5 55.07L305.7 54.3L305.93 53.55L306.16 52.79L306.42 52.05L306.69 51.32L306.98 50.59L307.28 49.87L307.6 49.17L307.95 48.47L308.31 47.79L292.86 50.96L189.18 72.27ZM30.96 39.23L30.83 39.24L30.7 39.24L30.57 39.25L30.44 39.26L30.3 39.28L30.16 39.29L30.02 39.31L29.87 39.33L29.73 39.35L29.58 39.38L29.43 39.41L29.28 39.44L29.13 39.47L28.98 39.51L28.83 39.55L28.67 39.6L28.52 39.65L28.36 39.7L28.2 39.76L28.05 39.82L27.89 39.88L27.73 39.95L27.57 40.02L27.41 40.1L27.25 40.18L27.09 40.27L26.93 40.36L26.77 40.46L26.62 40.56L26.46 40.66L26.3 40.77L26.14 40.89L25.99 41.01L25.83 41.14L25.68 41.27L25.52 41.41L25.37 41.56L25.22 41.71L24.99 41.96L24.76 42.21L24.54 42.48L24.33 42.77L24.12 43.06L23.91 43.36L23.72 43.68L23.52 44L23.34 44.34L23.16 44.69L22.99 45.05L22.82 45.42L22.66 45.8L22.51 46.2L22.36 46.6L22.22 47.01L22.08 47.44L21.95 47.87L21.83 48.32L21.71 48.77L21.6 49.24L21.5 49.72L21.4 50.2L21.31 50.7L21.22 51.21L21.14 51.73L21.07 52.25L21 52.79L20.94 53.34L20.89 53.89L20.84 54.46L20.8 55.04L20.76 55.62L20.74 56.22L20.71 56.82L20.7 57.44L20.69 58.06L20.69 58.69L20.69 59.33L20.7 59.98L20.76 61.78L20.86 63.49L20.99 65.11L21.16 66.65L21.35 68.12L21.58 69.5L21.83 70.81L22.11 72.05L22.42 73.21L22.74 74.31L23.08 75.34L23.45 76.3L23.82 77.2L24.21 78.04L24.62 78.83L25.03 79.55L25.45 80.22L25.87 80.84L26.3 81.41L26.74 81.93L27.17 82.41L27.6 82.84L28.02 83.23L28.44 83.58L28.85 83.89L29.25 84.17L29.64 84.42L30.02 84.63L30.38 84.81L30.72 84.97L31.04 85.1L31.34 85.21L31.61 85.3L31.86 85.37L32.09 85.43L32.28 85.47L32.44 85.5L32.57 85.52L32.66 85.53L32.71 85.53L32.73 85.53L32.75 85.53L32.76 85.53L32.78 85.54L32.8 85.54L32.82 85.54L32.83 85.54L32.85 85.54L32.87 85.54L32.89 85.54L32.91 85.55L32.93 85.55L32.95 85.55L32.97 85.55L32.99 85.56L33 85.56L33.02 85.56L33.04 85.56L33.06 85.57L33.08 85.57L33.1 85.57L33.12 85.57L33.14 85.58L33.16 85.58L33.18 85.58L33.2 85.59L33.22 85.59L33.23 85.6L33.25 85.6L33.27 85.6L33.29 85.61L33.31 85.61L33.33 85.61L33.34 85.62L33.36 85.62L33.38 85.63L33.4 85.63L33.41 85.64L33.43 85.64L33.45 85.64L39.32 87.29L150.72 118.52L152.02 78.24L112.31 65.3L32.73 39.35L32.72 39.35L32.72 39.35L32.71 39.35L32.7 39.35L32.68 39.34L32.67 39.34L32.62 39.33L32.59 39.33L32.57 39.33L32.54 39.32L32.52 39.32L32.49 39.32L32.45 39.31L32.42 39.31L32.39 39.3L32.35 39.3L32.31 39.29L32.27 39.29L32.23 39.29L32.19 39.28L32.15 39.28L32.1 39.27L32.06 39.27L32.01 39.26L31.96 39.26L31.91 39.26L31.86 39.25L31.8 39.25L31.75 39.25L31.69 39.24L31.64 39.24L31.58 39.24L31.52 39.24L31.46 39.23L31.4 39.23L31.34 39.23L31.28 39.23L31.21 39.23L31.09 39.23L30.96 39.23Z" id="a879gq0Ixn"></path><linearGradient id="gradienta1VDL5k0Ar" gradientUnits="userSpaceOnUse" x1="167.5" y1="0" x2="167.5" y2="261.5"><stop style="stop-color: #4e096e;stop-opacity: 1" offset="0%"></stop><stop style="stop-color: #cb1162;stop-opacity: 1" offset="54.68000147419991%"></stop><stop style="stop-color: #fe5700;stop-opacity: 1" offset="83.25074179432049%"></stop><stop style="stop-color: #ffba00;stop-opacity: 1" offset="100%"></stop></linearGradient><path d="M143.43 369.86L147.34 370.24L151.25 370.76L155.13 371.44L158.99 372.26L162.82 373.23L166.62 374.35L170.39 375.63L174.11 377.05L177.78 378.62L181.4 380.34L184.97 382.21L188.47 384.23L191.91 386.4L195.28 388.72L198.57 391.19L201.78 393.81L204.91 396.58L207.95 399.49L210.56 402.2L213.04 404.97L215.41 407.81L217.66 410.72L219.79 413.69L221.8 416.71L223.7 419.79L225.47 422.92L227.13 426.1L228.66 429.32L230.08 432.58L231.38 435.89L232.56 439.22L233.62 442.59L234.56 445.98L235.38 449.4L236.09 452.84L236.67 456.3L237.14 459.78L237.49 463.26L237.72 466.76L237.83 470.25L237.82 473.75L237.69 477.25L237.45 480.74L237.08 484.23L236.6 487.7L236 491.16L235.28 494.6L234.44 498.02L233.48 501.41L232.41 504.77L231.22 508.11L229.9 511.41L228.47 514.67L226.92 517.89L225.26 521.06L223.47 524.19L221.57 527.26L219.54 530.28L219.84 530.35L220.14 530.41L220.43 530.49L220.73 530.56L221.02 530.65L221.32 530.73L221.61 530.82L221.9 530.91L222.19 531.01L222.48 531.11L222.77 531.22L223.05 531.33L223.34 531.45L223.62 531.56L223.91 531.69L224.19 531.81L224.47 531.94L224.75 532.08L225.02 532.22L225.3 532.36L225.57 532.51L225.84 532.66L226.12 532.82L226.38 532.98L226.65 533.14L226.91 533.31L227.18 533.48L227.44 533.66L227.69 533.84L227.95 534.03L228.2 534.22L228.46 534.41L228.71 534.61L228.95 534.81L229.2 535.02L229.44 535.23L229.68 535.44L229.92 535.66L230.15 535.88L230.38 536.11L288.5 594.25L289.12 594.89L289.7 595.55L290.26 596.23L290.78 596.92L291.28 597.63L291.74 598.36L292.16 599.1L292.56 599.85L292.93 600.62L293.26 601.39L293.56 602.18L293.83 602.97L294.07 603.77L294.27 604.58L294.45 605.4L294.59 606.22L294.7 607.04L294.78 607.87L294.83 608.7L294.84 609.53L294.83 610.36L294.78 611.19L294.7 612.01L294.59 612.84L294.45 613.66L294.27 614.47L294.07 615.28L293.83 616.08L293.56 616.88L293.26 617.67L292.93 618.44L292.56 619.21L292.16 619.96L291.74 620.7L291.28 621.43L290.78 622.14L290.26 622.84L289.7 623.52L289.12 624.18L288.5 624.83L287.86 625.44L287.2 626.03L286.52 626.59L285.82 627.11L285.11 627.6L284.39 628.06L283.65 628.49L282.9 628.88L282.13 629.25L281.36 629.58L280.57 629.88L279.78 630.15L278.98 630.39L278.17 630.6L277.35 630.77L276.53 630.91L275.71 631.02L274.88 631.1L274.05 631.15L273.22 631.17L272.39 631.15L271.57 631.1L270.74 631.02L269.91 630.91L269.09 630.77L268.28 630.6L267.47 630.39L266.67 630.15L265.87 629.88L265.08 629.58L264.31 629.25L263.54 628.88L262.79 628.49L262.05 628.06L261.32 627.6L260.6 627.11L259.91 626.59L259.23 626.03L258.56 625.44L257.92 624.83L199.8 566.71L199.57 566.48L199.35 566.24L199.13 566L198.91 565.76L198.7 565.52L198.49 565.27L198.29 565.03L198.09 564.78L197.89 564.52L197.7 564.27L197.52 564.01L197.33 563.75L197.16 563.49L196.98 563.23L196.81 562.97L196.65 562.7L196.49 562.43L196.33 562.16L196.18 561.89L196.03 561.62L195.89 561.34L195.75 561.06L195.62 560.79L195.48 560.51L195.36 560.22L195.23 559.94L195.12 559.66L195 559.37L194.89 559.09L194.79 558.8L194.68 558.51L194.59 558.22L194.49 557.93L194.4 557.63L194.32 557.34L194.24 557.05L194.16 556.75L194.09 556.46L194.02 556.16L193.95 555.86L190.93 557.88L187.86 559.79L184.73 561.57L181.56 563.24L178.34 564.79L175.08 566.22L171.78 567.53L168.45 568.72L165.09 569.79L161.69 570.75L158.28 571.59L154.84 572.31L151.38 572.91L147.91 573.39L144.42 573.75L140.93 574L137.43 574.12L133.93 574.13L130.43 574.02L126.94 573.79L123.46 573.44L119.98 572.98L116.52 572.39L113.08 571.69L109.66 570.87L106.27 569.92L102.9 568.86L99.57 567.68L96.26 566.39L93 564.97L89.78 563.44L86.6 561.78L83.47 560.01L80.39 558.12L77.37 556.11L74.41 553.98L71.5 551.73L68.66 549.36L65.89 546.87L63.18 544.27L60.27 541.23L57.5 538.1L54.88 534.89L52.41 531.59L50.09 528.23L47.92 524.79L45.9 521.28L44.03 517.72L42.31 514.1L40.74 510.42L39.32 506.7L38.05 502.94L36.93 499.14L35.95 495.31L35.13 491.45L34.46 487.56L33.93 483.66L33.56 479.74L33.34 475.81L33.26 471.88L33.34 467.95L33.56 464.02L33.93 460.11L34.46 456.2L35.13 452.32L35.95 448.46L36.93 444.62L38.05 440.82L39.32 437.06L40.74 433.34L42.31 429.67L44.03 426.05L45.9 422.48L47.92 418.98L50.09 415.54L52.41 412.17L54.88 408.88L57.5 405.66L60.27 402.53L63.18 399.49L66.22 396.58L69.35 393.81L72.57 391.19L75.86 388.72L79.23 386.4L82.66 384.23L86.17 382.21L89.73 380.34L93.35 378.62L97.03 377.05L100.75 375.63L104.51 374.35L108.31 373.23L112.14 372.26L116 371.44L119.89 370.76L123.79 370.24L127.71 369.86L131.64 369.64L135.57 369.56L139.5 369.64L143.43 369.86ZM129.7 395.74L126.77 396.02L123.86 396.41L120.96 396.91L118.08 397.52L115.22 398.25L112.38 399.09L109.57 400.04L106.79 401.1L104.05 402.27L101.35 403.56L98.69 404.95L96.07 406.46L93.51 408.08L90.99 409.81L88.53 411.65L86.14 413.61L83.8 415.67L81.53 417.85L79.36 420.12L77.29 422.46L75.34 424.86L73.49 427.31L71.76 429.83L70.14 432.39L68.64 435.01L67.24 437.67L65.96 440.38L64.78 443.12L63.72 445.89L62.77 448.7L61.94 451.54L61.21 454.4L60.6 457.28L60.09 460.18L59.7 463.1L59.42 466.02L59.26 468.95L59.2 471.89L59.26 474.82L59.42 477.75L59.7 480.68L60.09 483.59L60.6 486.49L61.21 489.37L61.94 492.23L62.77 495.07L63.72 497.88L64.78 500.66L65.96 503.4L67.24 506.1L68.64 508.76L70.14 511.38L71.76 513.94L73.49 516.46L75.34 518.92L77.29 521.32L79.36 523.65L81.53 525.92L83.8 528.1L86.14 530.17L88.53 532.12L90.99 533.96L93.51 535.7L96.07 537.32L98.69 538.82L101.35 540.22L104.05 541.51L106.79 542.68L109.57 543.74L112.38 544.69L115.22 545.53L118.08 546.25L120.96 546.87L123.86 547.37L126.77 547.76L129.7 548.04L132.63 548.21L135.56 548.27L138.5 548.21L141.43 548.04L144.35 547.76L147.27 547.37L150.17 546.87L153.05 546.25L155.91 545.53L158.75 544.69L161.56 543.74L164.33 542.68L167.08 541.51L169.78 540.22L172.44 538.82L175.06 537.32L177.63 535.7L180.14 533.96L182.6 532.12L185 530.17L187.33 528.1L189.6 525.92L191.78 523.65L193.85 521.32L195.8 518.92L197.65 516.46L199.38 513.94L201 511.38L202.51 508.76L203.9 506.1L205.19 503.4L206.36 500.66L207.42 497.88L208.37 495.07L209.21 492.23L209.94 489.37L210.55 486.49L211.05 483.59L211.44 480.68L211.72 477.75L211.89 474.82L211.95 471.89L211.89 468.95L211.72 466.02L211.44 463.1L211.05 460.18L210.55 457.28L209.94 454.4L209.21 451.54L208.37 448.7L207.42 445.89L206.36 443.12L205.19 440.38L203.9 437.67L202.51 435.01L201 432.39L199.38 429.83L197.65 427.31L195.8 424.86L193.85 422.46L191.78 420.12L189.6 417.85L187.33 415.67L185 413.61L182.6 411.65L180.14 409.81L177.63 408.08L175.06 406.46L172.44 404.95L169.78 403.56L167.08 402.27L164.33 401.1L161.56 400.04L158.75 399.09L155.91 398.25L153.05 397.52L150.17 396.91L147.27 396.41L144.35 396.02L141.43 395.74L138.5 395.57L135.56 395.51L132.63 395.57L129.7 395.74Z" id="cHtAWS6I6"></path><linearGradient id="gradienta4uEFs97ue" gradientUnits="userSpaceOnUse" x1="164.05" y1="369.56" x2="164.05" y2="631.17"><stop style="stop-color: #4f096e;stop-opacity: 1" offset="0%"></stop><stop style="stop-color: #bd1063;stop-opacity: 1" offset="51.793672848463224%"></stop><stop style="stop-color: #ec3e24;stop-opacity: 1" offset="81.67158360928892%"></stop><stop style="stop-color: #ffba00;stop-opacity: 1" offset="100%"></stop></linearGradient></defs><g><g><g><use xlink:href="#a879gq0Ixn" opacity="1" fill="url(#gradienta1VDL5k0Ar)"></use><g><use xlink:href="#a879gq0Ixn" opacity="1" fill-opacity="0" stroke="#000000" stroke-width="1" stroke-opacity="0"></use></g></g><g><use xlink:href="#cHtAWS6I6" opacity="1" fill="url(#gradienta4uEFs97ue)"></use><g><use xlink:href="#cHtAWS6I6" opacity="1" fill-opacity="0" stroke="#000000" stroke-width="1" stroke-opacity="0"></use></g></g></g></g></svg>