<?xml version="1.0" encoding="UTF-8" standalone="no"?>
<!DOCTYPE svg PUBLIC "-//W3C//DTD SVG 1.1//EN" "http://www.w3.org/Graphics/SVG/1.1/DTD/svg11.dtd">
<svg version="1.1" xmlns="http://www.w3.org/2000/svg" xmlns:xlink="http://www.w3.org/1999/xlink" preserveAspectRatio="xMidYMid meet" viewBox="0 0 100 100" width="100" height="100"><defs><path d="M87.17 7.2C44.85 7.2 18.39 7.2 7.81 7.2C7.63 7.2 7.48 7.35 7.48 7.53C7.48 18.9 7.48 47.33 7.48 92.8L23.71 92.8C23.71 55.59 23.71 32.33 23.71 23.03C23.71 22.85 23.86 22.7 24.05 22.7C32.46 22.7 53.51 22.7 87.17 22.7L87.17 7.2Z" id="b2vrqnwMzf"></path><linearGradient id="gradientc8jZ5ctIni" gradientUnits="userSpaceOnUse" x1="47.33" y1="92.8" x2="49.54" y2="-6.08"><stop style="stop-color: #5d107b;stop-opacity: 1" offset="0%"></stop><stop style="stop-color: #d0344c;stop-opacity: 1" offset="50.63483507538006%"></stop><stop style="stop-color: #ffda1b;stop-opacity: 1" offset="100%"></stop></linearGradient><path d="" id="aOVAuUseW"></path></defs><g><g><g><g><filter id="shadow14806176" x="-1.52" y="-1.8" width="98.7" height="104.6" filterUnits="userSpaceOnUse" primitiveUnits="userSpaceOnUse"><feFlood></feFlood><feComposite in2="SourceAlpha" operator="in"></feComposite><feGaussianBlur stdDeviation="1"></feGaussianBlur><feOffset dx="1" dy="1" result="afterOffset"></feOffset><feFlood flood-color="#000000" flood-opacity="0.19"></feFlood><feComposite in2="afterOffset" operator="in"></feComposite><feMorphology operator="dilate" radius="1"></feMorphology><feComposite in2="SourceAlpha" operator="out"></feComposite></filter><path d="M87.17 7.2C44.85 7.2 18.39 7.2 7.81 7.2C7.63 7.2 7.48 7.35 7.48 7.53C7.48 18.9 7.48 47.33 7.48 92.8L23.71 92.8C23.71 55.59 23.71 32.33 23.71 23.03C23.71 22.85 23.86 22.7 24.05 22.7C32.46 22.7 53.51 22.7 87.17 22.7L87.17 7.2Z" id="f1gFfo5YbE" fill="white" fill-opacity="1" filter="url(#shadow14806176)"></path></g><use xlink:href="#b2vrqnwMzf" opacity="1" fill="url(#gradientc8jZ5ctIni)"></use><g><use xlink:href="#b2vrqnwMzf" opacity="1" fill-opacity="0" stroke="#000000" stroke-width="6" stroke-opacity="0"></use></g></g><g><g><use xlink:href="#aOVAuUseW" opacity="1" fill-opacity="0" stroke="#000000" stroke-width="2" stroke-opacity="1"></use></g></g></g></g></svg>