<?xml version="1.0" encoding="UTF-8" standalone="no"?>
<!DOCTYPE svg PUBLIC "-//W3C//DTD SVG 1.1//EN" "http://www.w3.org/Graphics/SVG/1.1/DTD/svg11.dtd">
<svg version="1.1" xmlns="http://www.w3.org/2000/svg" xmlns:xlink="http://www.w3.org/1999/xlink" preserveAspectRatio="xMidYMid meet" viewBox="0 0 100 100" width="100" height="100"><defs><path d="M7.48 92.8C49.8 92.8 76.26 92.8 86.84 92.8C87.02 92.8 87.17 92.65 87.17 92.47C87.17 81.1 87.17 52.67 87.17 7.2L70.94 7.2C70.94 44.41 70.94 67.67 70.94 76.97C70.94 77.15 70.79 77.3 70.6 77.3C62.19 77.3 41.15 77.3 7.48 77.3L7.48 92.8Z" id="c1pgFx8phq"></path><linearGradient id="gradientb2lUTybass" gradientUnits="userSpaceOnUse" x1="47.33" y1="7.2" x2="45.11" y2="106.08"><stop style="stop-color: #5d107b;stop-opacity: 1" offset="0%"></stop><stop style="stop-color: #d0344c;stop-opacity: 1" offset="50.63483507538006%"></stop><stop style="stop-color: #ffda1b;stop-opacity: 1" offset="100%"></stop></linearGradient><path d="" id="aOVAuUseW"></path></defs><g><g><g><g><filter id="shadow7359471" x="-1.52" y="-1.8" width="98.7" height="104.6" filterUnits="userSpaceOnUse" primitiveUnits="userSpaceOnUse"><feFlood></feFlood><feComposite in2="SourceAlpha" operator="in"></feComposite><feGaussianBlur stdDeviation="1"></feGaussianBlur><feOffset dx="1" dy="1" result="afterOffset"></feOffset><feFlood flood-color="#000000" flood-opacity="0.19"></feFlood><feComposite in2="afterOffset" operator="in"></feComposite><feMorphology operator="dilate" radius="1"></feMorphology><feComposite in2="SourceAlpha" operator="out"></feComposite></filter><path d="M7.48 92.8C49.8 92.8 76.26 92.8 86.84 92.8C87.02 92.8 87.17 92.65 87.17 92.47C87.17 81.1 87.17 52.67 87.17 7.2L70.94 7.2C70.94 44.41 70.94 67.67 70.94 76.97C70.94 77.15 70.79 77.3 70.6 77.3C62.19 77.3 41.15 77.3 7.48 77.3L7.48 92.8Z" id="a4cuigiXl" fill="white" fill-opacity="1" filter="url(#shadow7359471)"></path></g><use xlink:href="#c1pgFx8phq" opacity="1" fill="url(#gradientb2lUTybass)"></use><g><use xlink:href="#c1pgFx8phq" opacity="1" fill-opacity="0" stroke="#000000" stroke-width="6" stroke-opacity="0"></use></g></g><g><g><use xlink:href="#aOVAuUseW" opacity="1" fill-opacity="0" stroke="#000000" stroke-width="2" stroke-opacity="1"></use></g></g></g></g></svg>