<?xml version="1.0" encoding="UTF-8" standalone="no"?>
<!DOCTYPE svg PUBLIC "-//W3C//DTD SVG 1.1//EN" "http://www.w3.org/Graphics/SVG/1.1/DTD/svg11.dtd">
<svg version="1.1" xmlns="http://www.w3.org/2000/svg" xmlns:xlink="http://www.w3.org/1999/xlink" preserveAspectRatio="xMidYMid meet" viewBox="0 0 100 100" width="100" height="100"><defs><path d="M7.48 7.2C7.48 7.2 7.48 7.2 7.48 7.2C51.49 7.2 87.17 42.88 87.17 86.9C87.17 88.08 87.17 74.88 87.17 91.8C87.17 92.35 86.72 92.8 86.17 92.8C83.12 92.8 87.17 92.8 87.17 92.8C78.21 92.8 70.94 85.53 70.94 76.57C70.94 65.79 70.94 57.89 70.94 49.17C70.94 34.55 59.09 22.7 44.47 22.7C37.07 22.7 32.57 22.7 22.97 22.7C14.42 22.7 7.48 15.76 7.48 7.2C7.48 7.2 7.48 7.2 7.48 7.2Z" id="axGvzPuop"></path><linearGradient id="gradientf441KeJBJD" gradientUnits="userSpaceOnUse" x1="47.33" y1="92.8" x2="45.11" y2="-6.08"><stop style="stop-color: #5d107b;stop-opacity: 1" offset="0%"></stop><stop style="stop-color: #d0344c;stop-opacity: 1" offset="50.63483507538006%"></stop><stop style="stop-color: #ffda1b;stop-opacity: 1" offset="100%"></stop></linearGradient><path d="" id="aOVAuUseW"></path></defs><g><g><g><g><filter id="shadow14874879" x="-1.52" y="-1.8" width="98.7" height="104.6" filterUnits="userSpaceOnUse" primitiveUnits="userSpaceOnUse"><feFlood></feFlood><feComposite in2="SourceAlpha" operator="in"></feComposite><feGaussianBlur stdDeviation="1"></feGaussianBlur><feOffset dx="1" dy="1" result="afterOffset"></feOffset><feFlood flood-color="#000000" flood-opacity="0.19"></feFlood><feComposite in2="afterOffset" operator="in"></feComposite><feMorphology operator="dilate" radius="1"></feMorphology><feComposite in2="SourceAlpha" operator="out"></feComposite></filter><path d="M7.48 7.2C7.48 7.2 7.48 7.2 7.48 7.2C51.49 7.2 87.17 42.88 87.17 86.9C87.17 88.08 87.17 74.88 87.17 91.8C87.17 92.35 86.72 92.8 86.17 92.8C83.12 92.8 87.17 92.8 87.17 92.8C78.21 92.8 70.94 85.53 70.94 76.57C70.94 65.79 70.94 57.89 70.94 49.17C70.94 34.55 59.09 22.7 44.47 22.7C37.07 22.7 32.57 22.7 22.97 22.7C14.42 22.7 7.48 15.76 7.48 7.2C7.48 7.2 7.48 7.2 7.48 7.2Z" id="a2mtCYT33c" fill="white" fill-opacity="1" filter="url(#shadow14874879)"></path></g><use xlink:href="#axGvzPuop" opacity="1" fill="url(#gradientf441KeJBJD)"></use><g><use xlink:href="#axGvzPuop" opacity="1" fill-opacity="0" stroke="#000000" stroke-width="6" stroke-opacity="0"></use></g></g><g><g><use xlink:href="#aOVAuUseW" opacity="1" fill-opacity="0" stroke="#000000" stroke-width="2" stroke-opacity="1"></use></g></g></g></g></svg>