<?xml version="1.0" encoding="UTF-8" standalone="no"?>
<!DOCTYPE svg PUBLIC "-//W3C//DTD SVG 1.1//EN" "http://www.w3.org/Graphics/SVG/1.1/DTD/svg11.dtd">
<svg version="1.1" xmlns="http://www.w3.org/2000/svg" xmlns:xlink="http://www.w3.org/1999/xlink" preserveAspectRatio="xMidYMid meet" viewBox="0 0 100 100" width="100" height="100"><defs><path d="M87.17 92.8C87.17 92.8 87.17 92.8 87.17 92.8C43.16 92.8 7.48 57.12 7.48 13.1C7.48 11.92 7.48 25.12 7.48 8.2C7.48 7.65 7.93 7.2 8.48 7.2C11.53 7.2 7.48 7.2 7.48 7.2C16.44 7.2 23.71 14.47 23.71 23.43C23.71 34.21 23.71 42.11 23.71 50.83C23.71 65.45 35.56 77.3 50.18 77.3C57.58 77.3 62.08 77.3 71.68 77.3C80.24 77.3 87.17 84.24 87.17 92.8C87.17 92.8 87.17 92.8 87.17 92.8Z" id="ddCUOJi8C"></path><linearGradient id="gradienth5sf2vXe" gradientUnits="userSpaceOnUse" x1="47.33" y1="7.2" x2="49.54" y2="106.08"><stop style="stop-color: #5d107b;stop-opacity: 1" offset="0%"></stop><stop style="stop-color: #d0344c;stop-opacity: 1" offset="50.63483507538006%"></stop><stop style="stop-color: #ffda1b;stop-opacity: 1" offset="100%"></stop></linearGradient><path d="" id="aOVAuUseW"></path></defs><g><g><g><g><filter id="shadow15806899" x="-1.52" y="-1.8" width="98.7" height="104.6" filterUnits="userSpaceOnUse" primitiveUnits="userSpaceOnUse"><feFlood></feFlood><feComposite in2="SourceAlpha" operator="in"></feComposite><feGaussianBlur stdDeviation="1"></feGaussianBlur><feOffset dx="1" dy="1" result="afterOffset"></feOffset><feFlood flood-color="#000000" flood-opacity="0.19"></feFlood><feComposite in2="afterOffset" operator="in"></feComposite><feMorphology operator="dilate" radius="1"></feMorphology><feComposite in2="SourceAlpha" operator="out"></feComposite></filter><path d="M87.17 92.8C87.17 92.8 87.17 92.8 87.17 92.8C43.16 92.8 7.48 57.12 7.48 13.1C7.48 11.92 7.48 25.12 7.48 8.2C7.48 7.65 7.93 7.2 8.48 7.2C11.53 7.2 7.48 7.2 7.48 7.2C16.44 7.2 23.71 14.47 23.71 23.43C23.71 34.21 23.71 42.11 23.71 50.83C23.71 65.45 35.56 77.3 50.18 77.3C57.58 77.3 62.08 77.3 71.68 77.3C80.24 77.3 87.17 84.24 87.17 92.8C87.17 92.8 87.17 92.8 87.17 92.8Z" id="dryXFYyzK" fill="white" fill-opacity="1" filter="url(#shadow15806899)"></path></g><use xlink:href="#ddCUOJi8C" opacity="1" fill="url(#gradienth5sf2vXe)"></use><g><use xlink:href="#ddCUOJi8C" opacity="1" fill-opacity="0" stroke="#000000" stroke-width="6" stroke-opacity="0"></use></g></g><g><g><use xlink:href="#aOVAuUseW" opacity="1" fill-opacity="0" stroke="#000000" stroke-width="2" stroke-opacity="1"></use></g></g></g></g></svg>